<mxfile host="app.diagrams.net" modified="2023-04-17T05:14:00.908Z" agent="Mozilla/5.0 (Windows NT 10.0; Win64; x64) AppleWebKit/537.36 (KHTML, like Gecko) Chrome/112.0.0.0 Safari/537.36" etag="lOLpekmZLyxugcyLxCwF" version="21.1.8" type="github">
  <diagram name="Page-1" id="2S65_K8TlIW-I9RaxmhA">
    <mxGraphModel dx="1122" dy="2241" grid="1" gridSize="10" guides="1" tooltips="1" connect="1" arrows="1" fold="1" page="1" pageScale="1" pageWidth="2500" pageHeight="1500" math="0" shadow="0">
      <root>
        <mxCell id="0" />
        <mxCell id="1" parent="0" />
        <mxCell id="SJSmvKwEZ4cIt8mxZRy5-101" value="user" style="swimlane;fontStyle=0;childLayout=stackLayout;horizontal=1;startSize=26;fillColor=#F0F0F0;horizontalStack=0;resizeParent=1;resizeParentMax=0;resizeLast=0;collapsible=1;marginBottom=0;swimlaneFillColor=none;align=center;strokeWidth=1;fontSize=13;strokeColor=#000000;rounded=0;" parent="1" vertex="1">
          <mxGeometry x="880" y="246" width="160" height="144" as="geometry" />
        </mxCell>
        <mxCell id="SJSmvKwEZ4cIt8mxZRy5-102" value="id" style="shape=partialRectangle;top=0;left=0;right=0;bottom=1;align=left;verticalAlign=middle;fillColor=none;spacingLeft=34;spacingRight=4;overflow=hidden;rotatable=0;points=[[0,0.5],[1,0.5]];portConstraint=eastwest;dropTarget=0;fontStyle=5;rounded=0;" parent="SJSmvKwEZ4cIt8mxZRy5-101" vertex="1">
          <mxGeometry y="26" width="160" height="30" as="geometry" />
        </mxCell>
        <mxCell id="SJSmvKwEZ4cIt8mxZRy5-103" value="PK" style="shape=partialRectangle;top=0;left=0;bottom=0;fillColor=none;align=left;verticalAlign=middle;spacingLeft=4;spacingRight=4;overflow=hidden;rotatable=0;points=[];portConstraint=eastwest;part=1;fontStyle=1;rounded=0;" parent="SJSmvKwEZ4cIt8mxZRy5-102" vertex="1" connectable="0">
          <mxGeometry width="30" height="30" as="geometry" />
        </mxCell>
        <mxCell id="SJSmvKwEZ4cIt8mxZRy5-106" value="avatar_url" style="shape=partialRectangle;top=0;left=0;right=0;bottom=0;align=left;verticalAlign=top;fillColor=none;spacingLeft=34;spacingRight=4;overflow=hidden;rotatable=0;points=[[0,0.5],[1,0.5]];portConstraint=eastwest;dropTarget=0;rounded=0;" parent="SJSmvKwEZ4cIt8mxZRy5-101" vertex="1">
          <mxGeometry y="56" width="160" height="26" as="geometry" />
        </mxCell>
        <mxCell id="SJSmvKwEZ4cIt8mxZRy5-107" value="" style="shape=partialRectangle;top=0;left=0;bottom=0;fillColor=none;align=left;verticalAlign=top;spacingLeft=4;spacingRight=4;overflow=hidden;rotatable=0;points=[];portConstraint=eastwest;part=1;rounded=0;" parent="SJSmvKwEZ4cIt8mxZRy5-106" vertex="1" connectable="0">
          <mxGeometry width="30" height="26" as="geometry" />
        </mxCell>
        <mxCell id="SJSmvKwEZ4cIt8mxZRy5-108" value="role" style="shape=partialRectangle;top=0;left=0;right=0;bottom=0;align=left;verticalAlign=top;fillColor=none;spacingLeft=34;spacingRight=4;overflow=hidden;rotatable=0;points=[[0,0.5],[1,0.5]];portConstraint=eastwest;dropTarget=0;rounded=0;" parent="SJSmvKwEZ4cIt8mxZRy5-101" vertex="1">
          <mxGeometry y="82" width="160" height="26" as="geometry" />
        </mxCell>
        <mxCell id="SJSmvKwEZ4cIt8mxZRy5-109" value="" style="shape=partialRectangle;top=0;left=0;bottom=0;fillColor=none;align=left;verticalAlign=top;spacingLeft=4;spacingRight=4;overflow=hidden;rotatable=0;points=[];portConstraint=eastwest;part=1;rounded=0;" parent="SJSmvKwEZ4cIt8mxZRy5-108" vertex="1" connectable="0">
          <mxGeometry width="30" height="26" as="geometry" />
        </mxCell>
        <mxCell id="SJSmvKwEZ4cIt8mxZRy5-113" value="user_metadata" style="shape=partialRectangle;top=0;left=0;right=0;bottom=0;align=left;verticalAlign=top;fillColor=none;spacingLeft=34;spacingRight=4;overflow=hidden;rotatable=0;points=[[0,0.5],[1,0.5]];portConstraint=eastwest;dropTarget=0;rounded=0;" parent="SJSmvKwEZ4cIt8mxZRy5-101" vertex="1">
          <mxGeometry y="108" width="160" height="26" as="geometry" />
        </mxCell>
        <mxCell id="SJSmvKwEZ4cIt8mxZRy5-114" value="" style="shape=partialRectangle;top=0;left=0;bottom=0;fillColor=none;align=left;verticalAlign=top;spacingLeft=4;spacingRight=4;overflow=hidden;rotatable=0;points=[];portConstraint=eastwest;part=1;rounded=0;" parent="SJSmvKwEZ4cIt8mxZRy5-113" vertex="1" connectable="0">
          <mxGeometry width="30" height="26" as="geometry" />
        </mxCell>
        <mxCell id="SJSmvKwEZ4cIt8mxZRy5-110" value="" style="shape=partialRectangle;top=0;left=0;right=0;bottom=0;align=left;verticalAlign=top;fillColor=none;spacingLeft=34;spacingRight=4;overflow=hidden;rotatable=0;points=[[0,0.5],[1,0.5]];portConstraint=eastwest;dropTarget=0;rounded=0;" parent="SJSmvKwEZ4cIt8mxZRy5-101" vertex="1">
          <mxGeometry y="134" width="160" height="10" as="geometry" />
        </mxCell>
        <mxCell id="SJSmvKwEZ4cIt8mxZRy5-111" value="" style="shape=partialRectangle;top=0;left=0;bottom=0;fillColor=none;align=left;verticalAlign=top;spacingLeft=4;spacingRight=4;overflow=hidden;rotatable=0;points=[];portConstraint=eastwest;part=1;rounded=0;" parent="SJSmvKwEZ4cIt8mxZRy5-110" vertex="1" connectable="0">
          <mxGeometry width="30" height="10" as="geometry" />
        </mxCell>
        <mxCell id="SJSmvKwEZ4cIt8mxZRy5-115" value="region" style="swimlane;fontStyle=0;childLayout=stackLayout;horizontal=1;startSize=26;fillColor=#f0f0f0;horizontalStack=0;resizeParent=1;resizeParentMax=0;resizeLast=0;collapsible=1;marginBottom=0;swimlaneFillColor=#FFD966;align=center;strokeWidth=1;fontSize=13;strokeColor=#000000;rounded=0;" parent="1" vertex="1">
          <mxGeometry x="85" y="66" width="165" height="92" as="geometry" />
        </mxCell>
        <mxCell id="SJSmvKwEZ4cIt8mxZRy5-116" value="id" style="shape=partialRectangle;top=0;left=0;right=0;bottom=1;align=left;verticalAlign=middle;fillColor=none;spacingLeft=34;spacingRight=4;overflow=hidden;rotatable=0;points=[[0,0.5],[1,0.5]];portConstraint=eastwest;dropTarget=0;fontStyle=5;rounded=0;" parent="SJSmvKwEZ4cIt8mxZRy5-115" vertex="1">
          <mxGeometry y="26" width="165" height="30" as="geometry" />
        </mxCell>
        <mxCell id="SJSmvKwEZ4cIt8mxZRy5-117" value="PK" style="shape=partialRectangle;top=0;left=0;bottom=0;fillColor=none;align=left;verticalAlign=middle;spacingLeft=4;spacingRight=4;overflow=hidden;rotatable=0;points=[];portConstraint=eastwest;part=1;fontStyle=1;rounded=0;" parent="SJSmvKwEZ4cIt8mxZRy5-116" vertex="1" connectable="0">
          <mxGeometry width="30" height="30" as="geometry" />
        </mxCell>
        <mxCell id="SJSmvKwEZ4cIt8mxZRy5-118" value="region_name" style="shape=partialRectangle;top=0;left=0;right=0;bottom=0;align=left;verticalAlign=top;fillColor=none;spacingLeft=34;spacingRight=4;overflow=hidden;rotatable=0;points=[[0,0.5],[1,0.5]];portConstraint=eastwest;dropTarget=0;rounded=0;" parent="SJSmvKwEZ4cIt8mxZRy5-115" vertex="1">
          <mxGeometry y="56" width="165" height="26" as="geometry" />
        </mxCell>
        <mxCell id="SJSmvKwEZ4cIt8mxZRy5-119" value="" style="shape=partialRectangle;top=0;left=0;bottom=0;fillColor=none;align=left;verticalAlign=top;spacingLeft=4;spacingRight=4;overflow=hidden;rotatable=0;points=[];portConstraint=eastwest;part=1;rounded=0;" parent="SJSmvKwEZ4cIt8mxZRy5-118" vertex="1" connectable="0">
          <mxGeometry width="30" height="26" as="geometry" />
        </mxCell>
        <mxCell id="SJSmvKwEZ4cIt8mxZRy5-124" value="" style="shape=partialRectangle;top=0;left=0;right=0;bottom=0;align=left;verticalAlign=top;fillColor=none;spacingLeft=34;spacingRight=4;overflow=hidden;rotatable=0;points=[[0,0.5],[1,0.5]];portConstraint=eastwest;dropTarget=0;rounded=0;" parent="SJSmvKwEZ4cIt8mxZRy5-115" vertex="1">
          <mxGeometry y="82" width="165" height="10" as="geometry" />
        </mxCell>
        <mxCell id="SJSmvKwEZ4cIt8mxZRy5-125" value="" style="shape=partialRectangle;top=0;left=0;bottom=0;fillColor=none;align=left;verticalAlign=top;spacingLeft=4;spacingRight=4;overflow=hidden;rotatable=0;points=[];portConstraint=eastwest;part=1;rounded=0;" parent="SJSmvKwEZ4cIt8mxZRy5-124" vertex="1" connectable="0">
          <mxGeometry width="30" height="10" as="geometry" />
        </mxCell>
        <mxCell id="SJSmvKwEZ4cIt8mxZRy5-126" value="province" style="swimlane;fontStyle=0;childLayout=stackLayout;horizontal=1;startSize=26;fillColor=#f0f0f0;horizontalStack=0;resizeParent=1;resizeParentMax=0;resizeLast=0;collapsible=1;marginBottom=0;swimlaneFillColor=#FFD966;align=center;strokeWidth=1;fontSize=13;strokeColor=#000000;rounded=0;" parent="1" vertex="1">
          <mxGeometry x="87.5" y="216" width="160" height="118" as="geometry" />
        </mxCell>
        <mxCell id="SJSmvKwEZ4cIt8mxZRy5-127" value="id" style="shape=partialRectangle;top=0;left=0;right=0;bottom=1;align=left;verticalAlign=middle;fillColor=none;spacingLeft=34;spacingRight=4;overflow=hidden;rotatable=0;points=[[0,0.5],[1,0.5]];portConstraint=eastwest;dropTarget=0;fontStyle=5;rounded=0;" parent="SJSmvKwEZ4cIt8mxZRy5-126" vertex="1">
          <mxGeometry y="26" width="160" height="30" as="geometry" />
        </mxCell>
        <mxCell id="SJSmvKwEZ4cIt8mxZRy5-128" value="PK" style="shape=partialRectangle;top=0;left=0;bottom=0;fillColor=none;align=left;verticalAlign=middle;spacingLeft=4;spacingRight=4;overflow=hidden;rotatable=0;points=[];portConstraint=eastwest;part=1;fontStyle=1;rounded=0;" parent="SJSmvKwEZ4cIt8mxZRy5-127" vertex="1" connectable="0">
          <mxGeometry width="30" height="30" as="geometry" />
        </mxCell>
        <mxCell id="SJSmvKwEZ4cIt8mxZRy5-129" value="region_id" style="shape=partialRectangle;top=0;left=0;right=0;bottom=0;align=left;verticalAlign=top;fillColor=none;spacingLeft=34;spacingRight=4;overflow=hidden;rotatable=0;points=[[0,0.5],[1,0.5]];portConstraint=eastwest;dropTarget=0;fontStyle=2;rounded=0;" parent="SJSmvKwEZ4cIt8mxZRy5-126" vertex="1">
          <mxGeometry y="56" width="160" height="26" as="geometry" />
        </mxCell>
        <mxCell id="SJSmvKwEZ4cIt8mxZRy5-130" value="FK" style="shape=partialRectangle;top=0;left=0;bottom=0;fillColor=none;align=left;verticalAlign=top;spacingLeft=4;spacingRight=4;overflow=hidden;rotatable=0;points=[];portConstraint=eastwest;part=1;rounded=0;" parent="SJSmvKwEZ4cIt8mxZRy5-129" vertex="1" connectable="0">
          <mxGeometry width="30" height="26" as="geometry" />
        </mxCell>
        <mxCell id="SJSmvKwEZ4cIt8mxZRy5-133" value="province_name" style="shape=partialRectangle;top=0;left=0;right=0;bottom=0;align=left;verticalAlign=top;fillColor=none;spacingLeft=34;spacingRight=4;overflow=hidden;rotatable=0;points=[[0,0.5],[1,0.5]];portConstraint=eastwest;dropTarget=0;fontStyle=0;rounded=0;" parent="SJSmvKwEZ4cIt8mxZRy5-126" vertex="1">
          <mxGeometry y="82" width="160" height="26" as="geometry" />
        </mxCell>
        <mxCell id="SJSmvKwEZ4cIt8mxZRy5-134" value="" style="shape=partialRectangle;top=0;left=0;bottom=0;fillColor=none;align=left;verticalAlign=top;spacingLeft=4;spacingRight=4;overflow=hidden;rotatable=0;points=[];portConstraint=eastwest;part=1;rounded=0;" parent="SJSmvKwEZ4cIt8mxZRy5-133" vertex="1" connectable="0">
          <mxGeometry width="30" height="26" as="geometry" />
        </mxCell>
        <mxCell id="SJSmvKwEZ4cIt8mxZRy5-131" value="" style="shape=partialRectangle;top=0;left=0;right=0;bottom=0;align=left;verticalAlign=top;fillColor=none;spacingLeft=34;spacingRight=4;overflow=hidden;rotatable=0;points=[[0,0.5],[1,0.5]];portConstraint=eastwest;dropTarget=0;rounded=0;" parent="SJSmvKwEZ4cIt8mxZRy5-126" vertex="1">
          <mxGeometry y="108" width="160" height="10" as="geometry" />
        </mxCell>
        <mxCell id="SJSmvKwEZ4cIt8mxZRy5-132" value="" style="shape=partialRectangle;top=0;left=0;bottom=0;fillColor=none;align=left;verticalAlign=top;spacingLeft=4;spacingRight=4;overflow=hidden;rotatable=0;points=[];portConstraint=eastwest;part=1;rounded=0;" parent="SJSmvKwEZ4cIt8mxZRy5-131" vertex="1" connectable="0">
          <mxGeometry width="30" height="10" as="geometry" />
        </mxCell>
        <mxCell id="SJSmvKwEZ4cIt8mxZRy5-135" value="city" style="swimlane;fontStyle=0;childLayout=stackLayout;horizontal=1;startSize=26;fillColor=#f0f0f0;horizontalStack=0;resizeParent=1;resizeParentMax=0;resizeLast=0;collapsible=1;marginBottom=0;swimlaneFillColor=#FFD966;align=center;strokeWidth=1;fontSize=13;strokeColor=#000000;rounded=0;" parent="1" vertex="1">
          <mxGeometry x="85" y="406" width="160" height="118" as="geometry" />
        </mxCell>
        <mxCell id="SJSmvKwEZ4cIt8mxZRy5-136" value="id" style="shape=partialRectangle;top=0;left=0;right=0;bottom=1;align=left;verticalAlign=middle;fillColor=none;spacingLeft=34;spacingRight=4;overflow=hidden;rotatable=0;points=[[0,0.5],[1,0.5]];portConstraint=eastwest;dropTarget=0;fontStyle=5;rounded=0;" parent="SJSmvKwEZ4cIt8mxZRy5-135" vertex="1">
          <mxGeometry y="26" width="160" height="30" as="geometry" />
        </mxCell>
        <mxCell id="SJSmvKwEZ4cIt8mxZRy5-137" value="PK" style="shape=partialRectangle;top=0;left=0;bottom=0;fillColor=none;align=left;verticalAlign=middle;spacingLeft=4;spacingRight=4;overflow=hidden;rotatable=0;points=[];portConstraint=eastwest;part=1;fontStyle=1;rounded=0;" parent="SJSmvKwEZ4cIt8mxZRy5-136" vertex="1" connectable="0">
          <mxGeometry width="30" height="30" as="geometry" />
        </mxCell>
        <mxCell id="SJSmvKwEZ4cIt8mxZRy5-138" value="province_id" style="shape=partialRectangle;top=0;left=0;right=0;bottom=0;align=left;verticalAlign=top;fillColor=none;spacingLeft=34;spacingRight=4;overflow=hidden;rotatable=0;points=[[0,0.5],[1,0.5]];portConstraint=eastwest;dropTarget=0;fontStyle=2;rounded=0;" parent="SJSmvKwEZ4cIt8mxZRy5-135" vertex="1">
          <mxGeometry y="56" width="160" height="26" as="geometry" />
        </mxCell>
        <mxCell id="SJSmvKwEZ4cIt8mxZRy5-139" value="FK" style="shape=partialRectangle;top=0;left=0;bottom=0;fillColor=none;align=left;verticalAlign=top;spacingLeft=4;spacingRight=4;overflow=hidden;rotatable=0;points=[];portConstraint=eastwest;part=1;rounded=0;" parent="SJSmvKwEZ4cIt8mxZRy5-138" vertex="1" connectable="0">
          <mxGeometry width="30" height="26" as="geometry" />
        </mxCell>
        <mxCell id="SJSmvKwEZ4cIt8mxZRy5-140" value="city_name" style="shape=partialRectangle;top=0;left=0;right=0;bottom=0;align=left;verticalAlign=top;fillColor=none;spacingLeft=34;spacingRight=4;overflow=hidden;rotatable=0;points=[[0,0.5],[1,0.5]];portConstraint=eastwest;dropTarget=0;fontStyle=0;rounded=0;" parent="SJSmvKwEZ4cIt8mxZRy5-135" vertex="1">
          <mxGeometry y="82" width="160" height="26" as="geometry" />
        </mxCell>
        <mxCell id="SJSmvKwEZ4cIt8mxZRy5-141" value="" style="shape=partialRectangle;top=0;left=0;bottom=0;fillColor=none;align=left;verticalAlign=top;spacingLeft=4;spacingRight=4;overflow=hidden;rotatable=0;points=[];portConstraint=eastwest;part=1;rounded=0;" parent="SJSmvKwEZ4cIt8mxZRy5-140" vertex="1" connectable="0">
          <mxGeometry width="30" height="26" as="geometry" />
        </mxCell>
        <mxCell id="SJSmvKwEZ4cIt8mxZRy5-142" value="" style="shape=partialRectangle;top=0;left=0;right=0;bottom=0;align=left;verticalAlign=top;fillColor=none;spacingLeft=34;spacingRight=4;overflow=hidden;rotatable=0;points=[[0,0.5],[1,0.5]];portConstraint=eastwest;dropTarget=0;rounded=0;" parent="SJSmvKwEZ4cIt8mxZRy5-135" vertex="1">
          <mxGeometry y="108" width="160" height="10" as="geometry" />
        </mxCell>
        <mxCell id="SJSmvKwEZ4cIt8mxZRy5-143" value="" style="shape=partialRectangle;top=0;left=0;bottom=0;fillColor=none;align=left;verticalAlign=top;spacingLeft=4;spacingRight=4;overflow=hidden;rotatable=0;points=[];portConstraint=eastwest;part=1;rounded=0;" parent="SJSmvKwEZ4cIt8mxZRy5-142" vertex="1" connectable="0">
          <mxGeometry width="30" height="10" as="geometry" />
        </mxCell>
        <mxCell id="SJSmvKwEZ4cIt8mxZRy5-144" value="barangay" style="swimlane;fontStyle=0;childLayout=stackLayout;horizontal=1;startSize=26;fillColor=#F0F0F0;horizontalStack=0;resizeParent=1;resizeParentMax=0;resizeLast=0;collapsible=1;marginBottom=0;swimlaneFillColor=#FFD966;align=center;strokeWidth=1;fontSize=13;strokeColor=#000000;rounded=0;" parent="1" vertex="1">
          <mxGeometry x="85" y="586" width="160" height="118" as="geometry" />
        </mxCell>
        <mxCell id="SJSmvKwEZ4cIt8mxZRy5-145" value="id" style="shape=partialRectangle;top=0;left=0;right=0;bottom=1;align=left;verticalAlign=middle;fillColor=#FFD966;spacingLeft=34;spacingRight=4;overflow=hidden;rotatable=0;points=[[0,0.5],[1,0.5]];portConstraint=eastwest;dropTarget=0;fontStyle=5;strokeColor=#000000;rounded=0;" parent="SJSmvKwEZ4cIt8mxZRy5-144" vertex="1">
          <mxGeometry y="26" width="160" height="30" as="geometry" />
        </mxCell>
        <mxCell id="SJSmvKwEZ4cIt8mxZRy5-146" value="PK" style="shape=partialRectangle;top=0;left=0;bottom=0;fillColor=none;align=left;verticalAlign=middle;spacingLeft=4;spacingRight=4;overflow=hidden;rotatable=0;points=[];portConstraint=eastwest;part=1;fontStyle=1;rounded=0;" parent="SJSmvKwEZ4cIt8mxZRy5-145" vertex="1" connectable="0">
          <mxGeometry width="30" height="30" as="geometry" />
        </mxCell>
        <mxCell id="SJSmvKwEZ4cIt8mxZRy5-147" value="city_id" style="shape=partialRectangle;top=0;left=0;right=0;bottom=0;align=left;verticalAlign=top;fillColor=none;spacingLeft=34;spacingRight=4;overflow=hidden;rotatable=0;points=[[0,0.5],[1,0.5]];portConstraint=eastwest;dropTarget=0;fontStyle=2;rounded=0;" parent="SJSmvKwEZ4cIt8mxZRy5-144" vertex="1">
          <mxGeometry y="56" width="160" height="26" as="geometry" />
        </mxCell>
        <mxCell id="SJSmvKwEZ4cIt8mxZRy5-148" value="FK" style="shape=partialRectangle;top=0;left=0;bottom=0;fillColor=none;align=left;verticalAlign=top;spacingLeft=4;spacingRight=4;overflow=hidden;rotatable=0;points=[];portConstraint=eastwest;part=1;rounded=0;" parent="SJSmvKwEZ4cIt8mxZRy5-147" vertex="1" connectable="0">
          <mxGeometry width="30" height="26" as="geometry" />
        </mxCell>
        <mxCell id="SJSmvKwEZ4cIt8mxZRy5-149" value="barangay_name" style="shape=partialRectangle;top=0;left=0;right=0;bottom=0;align=left;verticalAlign=top;fillColor=none;spacingLeft=34;spacingRight=4;overflow=hidden;rotatable=0;points=[[0,0.5],[1,0.5]];portConstraint=eastwest;dropTarget=0;fontStyle=0;rounded=0;" parent="SJSmvKwEZ4cIt8mxZRy5-144" vertex="1">
          <mxGeometry y="82" width="160" height="26" as="geometry" />
        </mxCell>
        <mxCell id="SJSmvKwEZ4cIt8mxZRy5-150" value="" style="shape=partialRectangle;top=0;left=0;bottom=0;fillColor=none;align=left;verticalAlign=top;spacingLeft=4;spacingRight=4;overflow=hidden;rotatable=0;points=[];portConstraint=eastwest;part=1;rounded=0;" parent="SJSmvKwEZ4cIt8mxZRy5-149" vertex="1" connectable="0">
          <mxGeometry width="30" height="26" as="geometry" />
        </mxCell>
        <mxCell id="SJSmvKwEZ4cIt8mxZRy5-151" value="" style="shape=partialRectangle;top=0;left=0;right=0;bottom=0;align=left;verticalAlign=top;fillColor=none;spacingLeft=34;spacingRight=4;overflow=hidden;rotatable=0;points=[[0,0.5],[1,0.5]];portConstraint=eastwest;dropTarget=0;rounded=0;" parent="SJSmvKwEZ4cIt8mxZRy5-144" vertex="1">
          <mxGeometry y="108" width="160" height="10" as="geometry" />
        </mxCell>
        <mxCell id="SJSmvKwEZ4cIt8mxZRy5-152" value="" style="shape=partialRectangle;top=0;left=0;bottom=0;fillColor=none;align=left;verticalAlign=top;spacingLeft=4;spacingRight=4;overflow=hidden;rotatable=0;points=[];portConstraint=eastwest;part=1;rounded=0;" parent="SJSmvKwEZ4cIt8mxZRy5-151" vertex="1" connectable="0">
          <mxGeometry width="30" height="10" as="geometry" />
        </mxCell>
        <mxCell id="SJSmvKwEZ4cIt8mxZRy5-154" value="address" style="swimlane;fontStyle=0;childLayout=stackLayout;horizontal=1;startSize=26;fillColor=#F0F0F0;horizontalStack=0;resizeParent=1;resizeParentMax=0;resizeLast=0;collapsible=1;marginBottom=0;swimlaneFillColor=#FFD966;align=center;strokeWidth=1;fontSize=13;strokeColor=#000000;rounded=0;" parent="1" vertex="1">
          <mxGeometry x="480" y="246" width="160" height="222" as="geometry" />
        </mxCell>
        <mxCell id="SJSmvKwEZ4cIt8mxZRy5-155" value="id" style="shape=partialRectangle;top=0;left=0;right=0;bottom=1;align=left;verticalAlign=middle;fillColor=none;spacingLeft=34;spacingRight=4;overflow=hidden;rotatable=0;points=[[0,0.5],[1,0.5]];portConstraint=eastwest;dropTarget=0;fontStyle=5;rounded=0;" parent="SJSmvKwEZ4cIt8mxZRy5-154" vertex="1">
          <mxGeometry y="26" width="160" height="30" as="geometry" />
        </mxCell>
        <mxCell id="SJSmvKwEZ4cIt8mxZRy5-156" value="PK" style="shape=partialRectangle;top=0;left=0;bottom=0;fillColor=none;align=left;verticalAlign=middle;spacingLeft=4;spacingRight=4;overflow=hidden;rotatable=0;points=[];portConstraint=eastwest;part=1;fontStyle=1;rounded=0;" parent="SJSmvKwEZ4cIt8mxZRy5-155" vertex="1" connectable="0">
          <mxGeometry width="30" height="30" as="geometry" />
        </mxCell>
        <mxCell id="SJSmvKwEZ4cIt8mxZRy5-157" value="region_id" style="shape=partialRectangle;top=0;left=0;right=0;bottom=0;align=left;verticalAlign=top;fillColor=none;spacingLeft=34;spacingRight=4;overflow=hidden;rotatable=0;points=[[0,0.5],[1,0.5]];portConstraint=eastwest;dropTarget=0;fontStyle=2;rounded=0;" parent="SJSmvKwEZ4cIt8mxZRy5-154" vertex="1">
          <mxGeometry y="56" width="160" height="26" as="geometry" />
        </mxCell>
        <mxCell id="SJSmvKwEZ4cIt8mxZRy5-158" value="FK" style="shape=partialRectangle;top=0;left=0;bottom=0;fillColor=none;align=left;verticalAlign=top;spacingLeft=4;spacingRight=4;overflow=hidden;rotatable=0;points=[];portConstraint=eastwest;part=1;rounded=0;" parent="SJSmvKwEZ4cIt8mxZRy5-157" vertex="1" connectable="0">
          <mxGeometry width="30" height="26" as="geometry" />
        </mxCell>
        <mxCell id="SJSmvKwEZ4cIt8mxZRy5-159" value="province_id" style="shape=partialRectangle;top=0;left=0;right=0;bottom=0;align=left;verticalAlign=top;fillColor=none;spacingLeft=34;spacingRight=4;overflow=hidden;rotatable=0;points=[[0,0.5],[1,0.5]];portConstraint=eastwest;dropTarget=0;fontStyle=2;rounded=0;" parent="SJSmvKwEZ4cIt8mxZRy5-154" vertex="1">
          <mxGeometry y="82" width="160" height="26" as="geometry" />
        </mxCell>
        <mxCell id="SJSmvKwEZ4cIt8mxZRy5-160" value="FK" style="shape=partialRectangle;top=0;left=0;bottom=0;fillColor=none;align=left;verticalAlign=top;spacingLeft=4;spacingRight=4;overflow=hidden;rotatable=0;points=[];portConstraint=eastwest;part=1;rounded=0;" parent="SJSmvKwEZ4cIt8mxZRy5-159" vertex="1" connectable="0">
          <mxGeometry width="30" height="26" as="geometry" />
        </mxCell>
        <mxCell id="SJSmvKwEZ4cIt8mxZRy5-166" value="city_id" style="shape=partialRectangle;top=0;left=0;right=0;bottom=0;align=left;verticalAlign=top;fillColor=none;spacingLeft=34;spacingRight=4;overflow=hidden;rotatable=0;points=[[0,0.5],[1,0.5]];portConstraint=eastwest;dropTarget=0;fontStyle=2;shadow=0;rounded=0;" parent="SJSmvKwEZ4cIt8mxZRy5-154" vertex="1">
          <mxGeometry y="108" width="160" height="26" as="geometry" />
        </mxCell>
        <mxCell id="SJSmvKwEZ4cIt8mxZRy5-167" value="FK" style="shape=partialRectangle;top=0;left=0;bottom=0;fillColor=none;align=left;verticalAlign=top;spacingLeft=4;spacingRight=4;overflow=hidden;rotatable=0;points=[];portConstraint=eastwest;part=1;rounded=0;" parent="SJSmvKwEZ4cIt8mxZRy5-166" vertex="1" connectable="0">
          <mxGeometry width="30" height="26" as="geometry" />
        </mxCell>
        <mxCell id="SJSmvKwEZ4cIt8mxZRy5-168" value="barangay_id" style="shape=partialRectangle;top=0;left=0;right=0;bottom=0;align=left;verticalAlign=top;fillColor=none;spacingLeft=34;spacingRight=4;overflow=hidden;rotatable=0;points=[[0,0.5],[1,0.5]];portConstraint=eastwest;dropTarget=0;fontStyle=2;rounded=0;" parent="SJSmvKwEZ4cIt8mxZRy5-154" vertex="1">
          <mxGeometry y="134" width="160" height="26" as="geometry" />
        </mxCell>
        <mxCell id="SJSmvKwEZ4cIt8mxZRy5-169" value="FK" style="shape=partialRectangle;top=0;left=0;bottom=0;fillColor=none;align=left;verticalAlign=top;spacingLeft=4;spacingRight=4;overflow=hidden;rotatable=0;points=[];portConstraint=eastwest;part=1;rounded=0;" parent="SJSmvKwEZ4cIt8mxZRy5-168" vertex="1" connectable="0">
          <mxGeometry width="30" height="26" as="geometry" />
        </mxCell>
        <mxCell id="SJSmvKwEZ4cIt8mxZRy5-161" value="street_address" style="shape=partialRectangle;top=0;left=0;right=0;bottom=0;align=left;verticalAlign=top;fillColor=none;spacingLeft=34;spacingRight=4;overflow=hidden;rotatable=0;points=[[0,0.5],[1,0.5]];portConstraint=eastwest;dropTarget=0;rounded=0;" parent="SJSmvKwEZ4cIt8mxZRy5-154" vertex="1">
          <mxGeometry y="160" width="160" height="26" as="geometry" />
        </mxCell>
        <mxCell id="SJSmvKwEZ4cIt8mxZRy5-162" value="" style="shape=partialRectangle;top=0;left=0;bottom=0;fillColor=none;align=left;verticalAlign=top;spacingLeft=4;spacingRight=4;overflow=hidden;rotatable=0;points=[];portConstraint=eastwest;part=1;rounded=0;" parent="SJSmvKwEZ4cIt8mxZRy5-161" vertex="1" connectable="0">
          <mxGeometry width="30" height="26" as="geometry" />
        </mxCell>
        <mxCell id="SJSmvKwEZ4cIt8mxZRy5-170" value="created_at" style="shape=partialRectangle;top=0;left=0;right=0;bottom=0;align=left;verticalAlign=top;fillColor=none;spacingLeft=34;spacingRight=4;overflow=hidden;rotatable=0;points=[[0,0.5],[1,0.5]];portConstraint=eastwest;dropTarget=0;rounded=0;" parent="SJSmvKwEZ4cIt8mxZRy5-154" vertex="1">
          <mxGeometry y="186" width="160" height="26" as="geometry" />
        </mxCell>
        <mxCell id="SJSmvKwEZ4cIt8mxZRy5-171" value="" style="shape=partialRectangle;top=0;left=0;bottom=0;fillColor=none;align=left;verticalAlign=top;spacingLeft=4;spacingRight=4;overflow=hidden;rotatable=0;points=[];portConstraint=eastwest;part=1;rounded=0;" parent="SJSmvKwEZ4cIt8mxZRy5-170" vertex="1" connectable="0">
          <mxGeometry width="30" height="26" as="geometry" />
        </mxCell>
        <mxCell id="SJSmvKwEZ4cIt8mxZRy5-163" value="" style="shape=partialRectangle;top=0;left=0;right=0;bottom=0;align=left;verticalAlign=top;fillColor=none;spacingLeft=34;spacingRight=4;overflow=hidden;rotatable=0;points=[[0,0.5],[1,0.5]];portConstraint=eastwest;dropTarget=0;rounded=0;" parent="SJSmvKwEZ4cIt8mxZRy5-154" vertex="1">
          <mxGeometry y="212" width="160" height="10" as="geometry" />
        </mxCell>
        <mxCell id="SJSmvKwEZ4cIt8mxZRy5-164" value="" style="shape=partialRectangle;top=0;left=0;bottom=0;fillColor=none;align=left;verticalAlign=top;spacingLeft=4;spacingRight=4;overflow=hidden;rotatable=0;points=[];portConstraint=eastwest;part=1;rounded=0;" parent="SJSmvKwEZ4cIt8mxZRy5-163" vertex="1" connectable="0">
          <mxGeometry width="30" height="10" as="geometry" />
        </mxCell>
        <mxCell id="SJSmvKwEZ4cIt8mxZRy5-172" value="" style="edgeStyle=entityRelationEdgeStyle;fontSize=12;html=1;endArrow=ERzeroToMany;startArrow=ERoneToMany;rounded=0;endFill=0;" parent="1" source="SJSmvKwEZ4cIt8mxZRy5-155" target="SJSmvKwEZ4cIt8mxZRy5-102" edge="1">
          <mxGeometry width="100" height="100" relative="1" as="geometry">
            <mxPoint x="640" y="296" as="sourcePoint" />
            <mxPoint x="740" y="196" as="targetPoint" />
          </mxGeometry>
        </mxCell>
        <mxCell id="SJSmvKwEZ4cIt8mxZRy5-200" style="edgeStyle=orthogonalEdgeStyle;rounded=0;orthogonalLoop=1;jettySize=auto;html=1;endArrow=none;endFill=0;dashed=1;" parent="1" source="SJSmvKwEZ4cIt8mxZRy5-173" edge="1">
          <mxGeometry relative="1" as="geometry">
            <mxPoint x="750" y="287" as="targetPoint" />
            <mxPoint x="750" y="201" as="sourcePoint" />
          </mxGeometry>
        </mxCell>
        <mxCell id="SJSmvKwEZ4cIt8mxZRy5-173" value="user_address" style="swimlane;fontStyle=0;childLayout=stackLayout;horizontal=1;startSize=26;fillColor=#F0F0F0;horizontalStack=0;resizeParent=1;resizeParentMax=0;resizeLast=0;collapsible=1;marginBottom=0;swimlaneFillColor=#FFD966;align=center;strokeWidth=1;fontSize=13;strokeColor=#000000;rounded=0;" parent="1" vertex="1">
          <mxGeometry x="670" y="60" width="160" height="144" as="geometry" />
        </mxCell>
        <mxCell id="SJSmvKwEZ4cIt8mxZRy5-174" value="id" style="shape=partialRectangle;top=0;left=0;right=0;bottom=1;align=left;verticalAlign=middle;fillColor=none;spacingLeft=34;spacingRight=4;overflow=hidden;rotatable=0;points=[[0,0.5],[1,0.5]];portConstraint=eastwest;dropTarget=0;fontStyle=5;rounded=0;" parent="SJSmvKwEZ4cIt8mxZRy5-173" vertex="1">
          <mxGeometry y="26" width="160" height="30" as="geometry" />
        </mxCell>
        <mxCell id="SJSmvKwEZ4cIt8mxZRy5-175" value="PK    " style="shape=partialRectangle;top=0;left=0;bottom=0;fillColor=none;align=left;verticalAlign=middle;spacingLeft=4;spacingRight=4;overflow=hidden;rotatable=0;points=[];portConstraint=eastwest;part=1;fontStyle=1;rounded=0;" parent="SJSmvKwEZ4cIt8mxZRy5-174" vertex="1" connectable="0">
          <mxGeometry width="30" height="30" as="geometry" />
        </mxCell>
        <mxCell id="SJSmvKwEZ4cIt8mxZRy5-176" value="user_id" style="shape=partialRectangle;top=0;left=0;right=0;bottom=0;align=left;verticalAlign=top;fillColor=none;spacingLeft=34;spacingRight=4;overflow=hidden;rotatable=0;points=[[0,0.5],[1,0.5]];portConstraint=eastwest;dropTarget=0;fontStyle=2;rounded=0;" parent="SJSmvKwEZ4cIt8mxZRy5-173" vertex="1">
          <mxGeometry y="56" width="160" height="26" as="geometry" />
        </mxCell>
        <mxCell id="SJSmvKwEZ4cIt8mxZRy5-177" value="FK" style="shape=partialRectangle;top=0;left=0;bottom=0;fillColor=none;align=left;verticalAlign=top;spacingLeft=4;spacingRight=4;overflow=hidden;rotatable=0;points=[];portConstraint=eastwest;part=1;rounded=0;" parent="SJSmvKwEZ4cIt8mxZRy5-176" vertex="1" connectable="0">
          <mxGeometry width="30" height="26" as="geometry" />
        </mxCell>
        <mxCell id="SJSmvKwEZ4cIt8mxZRy5-178" value="address_id" style="shape=partialRectangle;top=0;left=0;right=0;bottom=0;align=left;verticalAlign=top;fillColor=none;spacingLeft=34;spacingRight=4;overflow=hidden;rotatable=0;points=[[0,0.5],[1,0.5]];portConstraint=eastwest;dropTarget=0;fontStyle=2;rounded=0;" parent="SJSmvKwEZ4cIt8mxZRy5-173" vertex="1">
          <mxGeometry y="82" width="160" height="26" as="geometry" />
        </mxCell>
        <mxCell id="SJSmvKwEZ4cIt8mxZRy5-179" value="FK" style="shape=partialRectangle;top=0;left=0;bottom=0;fillColor=none;align=left;verticalAlign=top;spacingLeft=4;spacingRight=4;overflow=hidden;rotatable=0;points=[];portConstraint=eastwest;part=1;rounded=0;" parent="SJSmvKwEZ4cIt8mxZRy5-178" vertex="1" connectable="0">
          <mxGeometry width="30" height="26" as="geometry" />
        </mxCell>
        <mxCell id="SJSmvKwEZ4cIt8mxZRy5-198" value="isDefault&#xa;" style="shape=partialRectangle;top=0;left=0;right=0;bottom=0;align=left;verticalAlign=top;fillColor=none;spacingLeft=34;spacingRight=4;overflow=hidden;rotatable=0;points=[[0,0.5],[1,0.5]];portConstraint=eastwest;dropTarget=0;fontStyle=0;rounded=0;" parent="SJSmvKwEZ4cIt8mxZRy5-173" vertex="1">
          <mxGeometry y="108" width="160" height="26" as="geometry" />
        </mxCell>
        <mxCell id="SJSmvKwEZ4cIt8mxZRy5-199" value="" style="shape=partialRectangle;top=0;left=0;bottom=0;fillColor=none;align=left;verticalAlign=top;spacingLeft=4;spacingRight=4;overflow=hidden;rotatable=0;points=[];portConstraint=eastwest;part=1;rounded=0;" parent="SJSmvKwEZ4cIt8mxZRy5-198" vertex="1" connectable="0">
          <mxGeometry width="30" height="26" as="geometry" />
        </mxCell>
        <mxCell id="SJSmvKwEZ4cIt8mxZRy5-180" value="" style="shape=partialRectangle;top=0;left=0;right=0;bottom=0;align=left;verticalAlign=top;fillColor=none;spacingLeft=34;spacingRight=4;overflow=hidden;rotatable=0;points=[[0,0.5],[1,0.5]];portConstraint=eastwest;dropTarget=0;rounded=0;" parent="SJSmvKwEZ4cIt8mxZRy5-173" vertex="1">
          <mxGeometry y="134" width="160" height="10" as="geometry" />
        </mxCell>
        <mxCell id="SJSmvKwEZ4cIt8mxZRy5-181" value="" style="shape=partialRectangle;top=0;left=0;bottom=0;fillColor=none;align=left;verticalAlign=top;spacingLeft=4;spacingRight=4;overflow=hidden;rotatable=0;points=[];portConstraint=eastwest;part=1;rounded=0;" parent="SJSmvKwEZ4cIt8mxZRy5-180" vertex="1" connectable="0">
          <mxGeometry width="30" height="10" as="geometry" />
        </mxCell>
        <mxCell id="SJSmvKwEZ4cIt8mxZRy5-185" value="" style="fontSize=12;html=1;endArrow=ERoneToMany;startArrow=ERmandOne;rounded=0;strokeColor=#000000;entryX=0.5;entryY=0;entryDx=0;entryDy=0;" parent="1" source="SJSmvKwEZ4cIt8mxZRy5-115" target="SJSmvKwEZ4cIt8mxZRy5-126" edge="1">
          <mxGeometry width="100" height="100" relative="1" as="geometry">
            <mxPoint x="168" y="36" as="sourcePoint" />
            <mxPoint x="590" y="316" as="targetPoint" />
          </mxGeometry>
        </mxCell>
        <mxCell id="SJSmvKwEZ4cIt8mxZRy5-192" value="" style="edgeStyle=entityRelationEdgeStyle;fontSize=12;html=1;endArrow=ERoneToMany;startArrow=ERmandOne;rounded=0;" parent="1" source="SJSmvKwEZ4cIt8mxZRy5-116" target="SJSmvKwEZ4cIt8mxZRy5-157" edge="1">
          <mxGeometry width="100" height="100" relative="1" as="geometry">
            <mxPoint x="400" y="356" as="sourcePoint" />
            <mxPoint x="500" y="256" as="targetPoint" />
          </mxGeometry>
        </mxCell>
        <mxCell id="SJSmvKwEZ4cIt8mxZRy5-193" value="" style="edgeStyle=entityRelationEdgeStyle;fontSize=12;html=1;endArrow=ERoneToMany;startArrow=ERmandOne;rounded=0;" parent="1" source="SJSmvKwEZ4cIt8mxZRy5-127" target="SJSmvKwEZ4cIt8mxZRy5-159" edge="1">
          <mxGeometry width="100" height="100" relative="1" as="geometry">
            <mxPoint x="270" y="106" as="sourcePoint" />
            <mxPoint x="410" y="95" as="targetPoint" />
          </mxGeometry>
        </mxCell>
        <mxCell id="SJSmvKwEZ4cIt8mxZRy5-194" value="" style="edgeStyle=entityRelationEdgeStyle;fontSize=12;html=1;endArrow=ERoneToMany;startArrow=ERmandOne;rounded=0;" parent="1" source="SJSmvKwEZ4cIt8mxZRy5-136" target="SJSmvKwEZ4cIt8mxZRy5-166" edge="1">
          <mxGeometry width="100" height="100" relative="1" as="geometry">
            <mxPoint x="255" y="297" as="sourcePoint" />
            <mxPoint x="410" y="121" as="targetPoint" />
          </mxGeometry>
        </mxCell>
        <mxCell id="SJSmvKwEZ4cIt8mxZRy5-195" value="" style="edgeStyle=entityRelationEdgeStyle;fontSize=12;html=1;endArrow=ERoneToMany;startArrow=ERmandOne;rounded=0;" parent="1" source="SJSmvKwEZ4cIt8mxZRy5-145" target="SJSmvKwEZ4cIt8mxZRy5-168" edge="1">
          <mxGeometry width="100" height="100" relative="1" as="geometry">
            <mxPoint x="255" y="457" as="sourcePoint" />
            <mxPoint x="410" y="147" as="targetPoint" />
          </mxGeometry>
        </mxCell>
        <mxCell id="SJSmvKwEZ4cIt8mxZRy5-196" value="" style="fontSize=12;html=1;endArrow=ERoneToMany;startArrow=ERmandOne;rounded=0;strokeColor=#000000;" parent="1" source="SJSmvKwEZ4cIt8mxZRy5-126" target="SJSmvKwEZ4cIt8mxZRy5-135" edge="1">
          <mxGeometry width="100" height="100" relative="1" as="geometry">
            <mxPoint x="200" y="356" as="sourcePoint" />
            <mxPoint x="200" y="414" as="targetPoint" />
          </mxGeometry>
        </mxCell>
        <mxCell id="SJSmvKwEZ4cIt8mxZRy5-197" value="" style="fontSize=12;html=1;endArrow=ERoneToMany;startArrow=ERmandOne;rounded=0;strokeColor=#000000;entryX=0.5;entryY=0;entryDx=0;entryDy=0;" parent="1" source="SJSmvKwEZ4cIt8mxZRy5-135" target="SJSmvKwEZ4cIt8mxZRy5-144" edge="1">
          <mxGeometry width="100" height="100" relative="1" as="geometry">
            <mxPoint x="530" y="486" as="sourcePoint" />
            <mxPoint x="290" y="758.1052631578948" as="targetPoint" />
            <Array as="points" />
          </mxGeometry>
        </mxCell>
        <mxCell id="SJSmvKwEZ4cIt8mxZRy5-310" value="brand" style="swimlane;fontStyle=0;childLayout=stackLayout;horizontal=1;startSize=26;fillColor=#F0F0F0;horizontalStack=0;resizeParent=1;resizeParentMax=0;resizeLast=0;collapsible=1;marginBottom=0;swimlaneFillColor=#F8CECC;align=center;strokeWidth=1;fontSize=13;strokeColor=#000000;rounded=0;" parent="1" vertex="1">
          <mxGeometry x="90" y="791" width="160" height="92" as="geometry" />
        </mxCell>
        <mxCell id="SJSmvKwEZ4cIt8mxZRy5-311" value="id" style="shape=partialRectangle;top=0;left=0;right=0;bottom=1;align=left;verticalAlign=middle;fillColor=none;spacingLeft=34;spacingRight=4;overflow=hidden;rotatable=0;points=[[0,0.5],[1,0.5]];portConstraint=eastwest;dropTarget=0;fontStyle=5;strokeColor=#000000;rounded=0;" parent="SJSmvKwEZ4cIt8mxZRy5-310" vertex="1">
          <mxGeometry y="26" width="160" height="30" as="geometry" />
        </mxCell>
        <mxCell id="SJSmvKwEZ4cIt8mxZRy5-312" value="PK" style="shape=partialRectangle;top=0;left=0;bottom=0;fillColor=none;align=left;verticalAlign=middle;spacingLeft=4;spacingRight=4;overflow=hidden;rotatable=0;points=[];portConstraint=eastwest;part=1;fontStyle=1;rounded=0;" parent="SJSmvKwEZ4cIt8mxZRy5-311" vertex="1" connectable="0">
          <mxGeometry width="30" height="30" as="geometry" />
        </mxCell>
        <mxCell id="SJSmvKwEZ4cIt8mxZRy5-313" value="make" style="shape=partialRectangle;top=0;left=0;right=0;bottom=0;align=left;verticalAlign=top;fillColor=none;spacingLeft=34;spacingRight=4;overflow=hidden;rotatable=0;points=[[0,0.5],[1,0.5]];portConstraint=eastwest;dropTarget=0;fontStyle=0;rounded=0;" parent="SJSmvKwEZ4cIt8mxZRy5-310" vertex="1">
          <mxGeometry y="56" width="160" height="26" as="geometry" />
        </mxCell>
        <mxCell id="SJSmvKwEZ4cIt8mxZRy5-314" value="" style="shape=partialRectangle;top=0;left=0;bottom=0;fillColor=none;align=left;verticalAlign=top;spacingLeft=4;spacingRight=4;overflow=hidden;rotatable=0;points=[];portConstraint=eastwest;part=1;rounded=0;" parent="SJSmvKwEZ4cIt8mxZRy5-313" vertex="1" connectable="0">
          <mxGeometry width="30" height="26" as="geometry" />
        </mxCell>
        <mxCell id="SJSmvKwEZ4cIt8mxZRy5-317" value="" style="shape=partialRectangle;top=0;left=0;right=0;bottom=0;align=left;verticalAlign=top;fillColor=none;spacingLeft=34;spacingRight=4;overflow=hidden;rotatable=0;points=[[0,0.5],[1,0.5]];portConstraint=eastwest;dropTarget=0;rounded=0;" parent="SJSmvKwEZ4cIt8mxZRy5-310" vertex="1">
          <mxGeometry y="82" width="160" height="10" as="geometry" />
        </mxCell>
        <mxCell id="SJSmvKwEZ4cIt8mxZRy5-318" value="" style="shape=partialRectangle;top=0;left=0;bottom=0;fillColor=none;align=left;verticalAlign=top;spacingLeft=4;spacingRight=4;overflow=hidden;rotatable=0;points=[];portConstraint=eastwest;part=1;rounded=0;" parent="SJSmvKwEZ4cIt8mxZRy5-317" vertex="1" connectable="0">
          <mxGeometry width="30" height="10" as="geometry" />
        </mxCell>
        <mxCell id="SJSmvKwEZ4cIt8mxZRy5-319" value="model" style="swimlane;fontStyle=0;childLayout=stackLayout;horizontal=1;startSize=26;fillColor=#F0F0F0;horizontalStack=0;resizeParent=1;resizeParentMax=0;resizeLast=0;collapsible=1;marginBottom=0;swimlaneFillColor=#F8CECC;align=center;strokeWidth=1;fontSize=13;strokeColor=#000000;rounded=0;" parent="1" vertex="1">
          <mxGeometry x="90" y="991" width="160" height="92" as="geometry" />
        </mxCell>
        <mxCell id="SJSmvKwEZ4cIt8mxZRy5-320" value="id" style="shape=partialRectangle;top=0;left=0;right=0;bottom=1;align=left;verticalAlign=middle;fillColor=none;spacingLeft=34;spacingRight=4;overflow=hidden;rotatable=0;points=[[0,0.5],[1,0.5]];portConstraint=eastwest;dropTarget=0;fontStyle=5;strokeColor=#000000;rounded=0;" parent="SJSmvKwEZ4cIt8mxZRy5-319" vertex="1">
          <mxGeometry y="26" width="160" height="30" as="geometry" />
        </mxCell>
        <mxCell id="SJSmvKwEZ4cIt8mxZRy5-321" value="PK" style="shape=partialRectangle;top=0;left=0;bottom=0;fillColor=none;align=left;verticalAlign=middle;spacingLeft=4;spacingRight=4;overflow=hidden;rotatable=0;points=[];portConstraint=eastwest;part=1;fontStyle=1;rounded=0;" parent="SJSmvKwEZ4cIt8mxZRy5-320" vertex="1" connectable="0">
          <mxGeometry width="30" height="30" as="geometry" />
        </mxCell>
        <mxCell id="SJSmvKwEZ4cIt8mxZRy5-322" value="brand_id" style="shape=partialRectangle;top=0;left=0;right=0;bottom=0;align=left;verticalAlign=top;fillColor=none;spacingLeft=34;spacingRight=4;overflow=hidden;rotatable=0;points=[[0,0.5],[1,0.5]];portConstraint=eastwest;dropTarget=0;fontStyle=2;rounded=0;" parent="SJSmvKwEZ4cIt8mxZRy5-319" vertex="1">
          <mxGeometry y="56" width="160" height="26" as="geometry" />
        </mxCell>
        <mxCell id="SJSmvKwEZ4cIt8mxZRy5-323" value="FK" style="shape=partialRectangle;top=0;left=0;bottom=0;fillColor=none;align=left;verticalAlign=top;spacingLeft=4;spacingRight=4;overflow=hidden;rotatable=0;points=[];portConstraint=eastwest;part=1;rounded=0;" parent="SJSmvKwEZ4cIt8mxZRy5-322" vertex="1" connectable="0">
          <mxGeometry width="30" height="26" as="geometry" />
        </mxCell>
        <mxCell id="SJSmvKwEZ4cIt8mxZRy5-324" value="" style="shape=partialRectangle;top=0;left=0;right=0;bottom=0;align=left;verticalAlign=top;fillColor=none;spacingLeft=34;spacingRight=4;overflow=hidden;rotatable=0;points=[[0,0.5],[1,0.5]];portConstraint=eastwest;dropTarget=0;rounded=0;" parent="SJSmvKwEZ4cIt8mxZRy5-319" vertex="1">
          <mxGeometry y="82" width="160" height="10" as="geometry" />
        </mxCell>
        <mxCell id="SJSmvKwEZ4cIt8mxZRy5-325" value="" style="shape=partialRectangle;top=0;left=0;bottom=0;fillColor=none;align=left;verticalAlign=top;spacingLeft=4;spacingRight=4;overflow=hidden;rotatable=0;points=[];portConstraint=eastwest;part=1;rounded=0;" parent="SJSmvKwEZ4cIt8mxZRy5-324" vertex="1" connectable="0">
          <mxGeometry width="30" height="10" as="geometry" />
        </mxCell>
        <mxCell id="SJSmvKwEZ4cIt8mxZRy5-326" value="vehicle" style="swimlane;fontStyle=0;childLayout=stackLayout;horizontal=1;startSize=26;fillColor=#F0F0F0;horizontalStack=0;resizeParent=1;resizeParentMax=0;resizeLast=0;collapsible=1;marginBottom=0;swimlaneFillColor=#F8CECC;align=center;strokeWidth=1;fontSize=13;strokeColor=#000000;rounded=0;" parent="1" vertex="1">
          <mxGeometry x="480" y="890" width="160" height="248" as="geometry" />
        </mxCell>
        <mxCell id="SJSmvKwEZ4cIt8mxZRy5-327" value="id" style="shape=partialRectangle;top=0;left=0;right=0;bottom=1;align=left;verticalAlign=middle;fillColor=none;spacingLeft=34;spacingRight=4;overflow=hidden;rotatable=0;points=[[0,0.5],[1,0.5]];portConstraint=eastwest;dropTarget=0;fontStyle=5;strokeColor=#000000;rounded=0;" parent="SJSmvKwEZ4cIt8mxZRy5-326" vertex="1">
          <mxGeometry y="26" width="160" height="30" as="geometry" />
        </mxCell>
        <mxCell id="SJSmvKwEZ4cIt8mxZRy5-328" value="PK" style="shape=partialRectangle;top=0;left=0;bottom=0;fillColor=none;align=left;verticalAlign=middle;spacingLeft=4;spacingRight=4;overflow=hidden;rotatable=0;points=[];portConstraint=eastwest;part=1;fontStyle=1;rounded=0;" parent="SJSmvKwEZ4cIt8mxZRy5-327" vertex="1" connectable="0">
          <mxGeometry width="30" height="30" as="geometry" />
        </mxCell>
        <mxCell id="SJSmvKwEZ4cIt8mxZRy5-358" value="user_id" style="shape=partialRectangle;top=0;left=0;right=0;bottom=0;align=left;verticalAlign=top;fillColor=none;spacingLeft=34;spacingRight=4;overflow=hidden;rotatable=0;points=[[0,0.5],[1,0.5]];portConstraint=eastwest;dropTarget=0;fontStyle=2;rounded=0;" parent="SJSmvKwEZ4cIt8mxZRy5-326" vertex="1">
          <mxGeometry y="56" width="160" height="26" as="geometry" />
        </mxCell>
        <mxCell id="SJSmvKwEZ4cIt8mxZRy5-359" value="FK" style="shape=partialRectangle;top=0;left=0;bottom=0;fillColor=none;align=left;verticalAlign=top;spacingLeft=4;spacingRight=4;overflow=hidden;rotatable=0;points=[];portConstraint=eastwest;part=1;rounded=0;" parent="SJSmvKwEZ4cIt8mxZRy5-358" vertex="1" connectable="0">
          <mxGeometry width="30" height="26" as="geometry" />
        </mxCell>
        <mxCell id="SJSmvKwEZ4cIt8mxZRy5-329" value="brand_id" style="shape=partialRectangle;top=0;left=0;right=0;bottom=0;align=left;verticalAlign=top;fillColor=none;spacingLeft=34;spacingRight=4;overflow=hidden;rotatable=0;points=[[0,0.5],[1,0.5]];portConstraint=eastwest;dropTarget=0;fontStyle=2;rounded=0;" parent="SJSmvKwEZ4cIt8mxZRy5-326" vertex="1">
          <mxGeometry y="82" width="160" height="26" as="geometry" />
        </mxCell>
        <mxCell id="SJSmvKwEZ4cIt8mxZRy5-330" value="FK" style="shape=partialRectangle;top=0;left=0;bottom=0;fillColor=none;align=left;verticalAlign=top;spacingLeft=4;spacingRight=4;overflow=hidden;rotatable=0;points=[];portConstraint=eastwest;part=1;rounded=0;" parent="SJSmvKwEZ4cIt8mxZRy5-329" vertex="1" connectable="0">
          <mxGeometry width="30" height="26" as="geometry" />
        </mxCell>
        <mxCell id="SJSmvKwEZ4cIt8mxZRy5-333" value="model_id" style="shape=partialRectangle;top=0;left=0;right=0;bottom=0;align=left;verticalAlign=top;fillColor=none;spacingLeft=34;spacingRight=4;overflow=hidden;rotatable=0;points=[[0,0.5],[1,0.5]];portConstraint=eastwest;dropTarget=0;fontStyle=2;rounded=0;" parent="SJSmvKwEZ4cIt8mxZRy5-326" vertex="1">
          <mxGeometry y="108" width="160" height="26" as="geometry" />
        </mxCell>
        <mxCell id="SJSmvKwEZ4cIt8mxZRy5-334" value="FK" style="shape=partialRectangle;top=0;left=0;bottom=0;fillColor=none;align=left;verticalAlign=top;spacingLeft=4;spacingRight=4;overflow=hidden;rotatable=0;points=[];portConstraint=eastwest;part=1;rounded=0;" parent="SJSmvKwEZ4cIt8mxZRy5-333" vertex="1" connectable="0">
          <mxGeometry width="30" height="26" as="geometry" />
        </mxCell>
        <mxCell id="SJSmvKwEZ4cIt8mxZRy5-337" value="fuel_type_id" style="shape=partialRectangle;top=0;left=0;right=0;bottom=0;align=left;verticalAlign=top;fillColor=none;spacingLeft=34;spacingRight=4;overflow=hidden;rotatable=0;points=[[0,0.5],[1,0.5]];portConstraint=eastwest;dropTarget=0;fontStyle=2;rounded=0;" parent="SJSmvKwEZ4cIt8mxZRy5-326" vertex="1">
          <mxGeometry y="134" width="160" height="26" as="geometry" />
        </mxCell>
        <mxCell id="SJSmvKwEZ4cIt8mxZRy5-338" value="FK" style="shape=partialRectangle;top=0;left=0;bottom=0;fillColor=none;align=left;verticalAlign=top;spacingLeft=4;spacingRight=4;overflow=hidden;rotatable=0;points=[];portConstraint=eastwest;part=1;rounded=0;" parent="SJSmvKwEZ4cIt8mxZRy5-337" vertex="1" connectable="0">
          <mxGeometry width="30" height="26" as="geometry" />
        </mxCell>
        <mxCell id="SJSmvKwEZ4cIt8mxZRy5-371" value="VIN" style="shape=partialRectangle;top=0;left=0;right=0;bottom=0;align=left;verticalAlign=top;fillColor=none;spacingLeft=34;spacingRight=4;overflow=hidden;rotatable=0;points=[[0,0.5],[1,0.5]];portConstraint=eastwest;dropTarget=0;fontStyle=0;rounded=0;" parent="SJSmvKwEZ4cIt8mxZRy5-326" vertex="1">
          <mxGeometry y="160" width="160" height="26" as="geometry" />
        </mxCell>
        <mxCell id="SJSmvKwEZ4cIt8mxZRy5-372" value="" style="shape=partialRectangle;top=0;left=0;bottom=0;fillColor=none;align=left;verticalAlign=top;spacingLeft=4;spacingRight=4;overflow=hidden;rotatable=0;points=[];portConstraint=eastwest;part=1;rounded=0;" parent="SJSmvKwEZ4cIt8mxZRy5-371" vertex="1" connectable="0">
          <mxGeometry width="30" height="26" as="geometry" />
        </mxCell>
        <mxCell id="SJSmvKwEZ4cIt8mxZRy5-335" value="plate_no" style="shape=partialRectangle;top=0;left=0;right=0;bottom=0;align=left;verticalAlign=top;fillColor=none;spacingLeft=34;spacingRight=4;overflow=hidden;rotatable=0;points=[[0,0.5],[1,0.5]];portConstraint=eastwest;dropTarget=0;fontStyle=0;rounded=0;" parent="SJSmvKwEZ4cIt8mxZRy5-326" vertex="1">
          <mxGeometry y="186" width="160" height="26" as="geometry" />
        </mxCell>
        <mxCell id="SJSmvKwEZ4cIt8mxZRy5-336" value="" style="shape=partialRectangle;top=0;left=0;bottom=0;fillColor=none;align=left;verticalAlign=top;spacingLeft=4;spacingRight=4;overflow=hidden;rotatable=0;points=[];portConstraint=eastwest;part=1;rounded=0;" parent="SJSmvKwEZ4cIt8mxZRy5-335" vertex="1" connectable="0">
          <mxGeometry width="30" height="26" as="geometry" />
        </mxCell>
        <mxCell id="SJSmvKwEZ4cIt8mxZRy5-356" value="engine_no" style="shape=partialRectangle;top=0;left=0;right=0;bottom=0;align=left;verticalAlign=top;fillColor=none;spacingLeft=34;spacingRight=4;overflow=hidden;rotatable=0;points=[[0,0.5],[1,0.5]];portConstraint=eastwest;dropTarget=0;fontStyle=0;rounded=0;" parent="SJSmvKwEZ4cIt8mxZRy5-326" vertex="1">
          <mxGeometry y="212" width="160" height="26" as="geometry" />
        </mxCell>
        <mxCell id="SJSmvKwEZ4cIt8mxZRy5-357" value="" style="shape=partialRectangle;top=0;left=0;bottom=0;fillColor=none;align=left;verticalAlign=top;spacingLeft=4;spacingRight=4;overflow=hidden;rotatable=0;points=[];portConstraint=eastwest;part=1;rounded=0;" parent="SJSmvKwEZ4cIt8mxZRy5-356" vertex="1" connectable="0">
          <mxGeometry width="30" height="26" as="geometry" />
        </mxCell>
        <mxCell id="SJSmvKwEZ4cIt8mxZRy5-331" value="" style="shape=partialRectangle;top=0;left=0;right=0;bottom=0;align=left;verticalAlign=top;fillColor=none;spacingLeft=34;spacingRight=4;overflow=hidden;rotatable=0;points=[[0,0.5],[1,0.5]];portConstraint=eastwest;dropTarget=0;rounded=0;" parent="SJSmvKwEZ4cIt8mxZRy5-326" vertex="1">
          <mxGeometry y="238" width="160" height="10" as="geometry" />
        </mxCell>
        <mxCell id="SJSmvKwEZ4cIt8mxZRy5-332" value="" style="shape=partialRectangle;top=0;left=0;bottom=0;fillColor=none;align=left;verticalAlign=top;spacingLeft=4;spacingRight=4;overflow=hidden;rotatable=0;points=[];portConstraint=eastwest;part=1;rounded=0;" parent="SJSmvKwEZ4cIt8mxZRy5-331" vertex="1" connectable="0">
          <mxGeometry width="30" height="10" as="geometry" />
        </mxCell>
        <mxCell id="SJSmvKwEZ4cIt8mxZRy5-360" value="fuel_type" style="swimlane;fontStyle=0;childLayout=stackLayout;horizontal=1;startSize=26;fillColor=#F0F0F0;horizontalStack=0;resizeParent=1;resizeParentMax=0;resizeLast=0;collapsible=1;marginBottom=0;swimlaneFillColor=#F8CECC;align=center;strokeWidth=1;fontSize=13;strokeColor=#000000;rounded=0;" parent="1" vertex="1">
          <mxGeometry x="90" y="1161" width="160" height="92" as="geometry" />
        </mxCell>
        <mxCell id="SJSmvKwEZ4cIt8mxZRy5-361" value="id" style="shape=partialRectangle;top=0;left=0;right=0;bottom=1;align=left;verticalAlign=middle;fillColor=none;spacingLeft=34;spacingRight=4;overflow=hidden;rotatable=0;points=[[0,0.5],[1,0.5]];portConstraint=eastwest;dropTarget=0;fontStyle=5;strokeColor=#000000;rounded=0;" parent="SJSmvKwEZ4cIt8mxZRy5-360" vertex="1">
          <mxGeometry y="26" width="160" height="30" as="geometry" />
        </mxCell>
        <mxCell id="SJSmvKwEZ4cIt8mxZRy5-362" value="PK" style="shape=partialRectangle;top=0;left=0;bottom=0;fillColor=none;align=left;verticalAlign=middle;spacingLeft=4;spacingRight=4;overflow=hidden;rotatable=0;points=[];portConstraint=eastwest;part=1;fontStyle=1;rounded=0;" parent="SJSmvKwEZ4cIt8mxZRy5-361" vertex="1" connectable="0">
          <mxGeometry width="30" height="30" as="geometry" />
        </mxCell>
        <mxCell id="SJSmvKwEZ4cIt8mxZRy5-363" value="name" style="shape=partialRectangle;top=0;left=0;right=0;bottom=0;align=left;verticalAlign=top;fillColor=none;spacingLeft=34;spacingRight=4;overflow=hidden;rotatable=0;points=[[0,0.5],[1,0.5]];portConstraint=eastwest;dropTarget=0;fontStyle=0;rounded=0;" parent="SJSmvKwEZ4cIt8mxZRy5-360" vertex="1">
          <mxGeometry y="56" width="160" height="26" as="geometry" />
        </mxCell>
        <mxCell id="SJSmvKwEZ4cIt8mxZRy5-364" value="" style="shape=partialRectangle;top=0;left=0;bottom=0;fillColor=none;align=left;verticalAlign=top;spacingLeft=4;spacingRight=4;overflow=hidden;rotatable=0;points=[];portConstraint=eastwest;part=1;rounded=0;" parent="SJSmvKwEZ4cIt8mxZRy5-363" vertex="1" connectable="0">
          <mxGeometry width="30" height="26" as="geometry" />
        </mxCell>
        <mxCell id="SJSmvKwEZ4cIt8mxZRy5-365" value="" style="shape=partialRectangle;top=0;left=0;right=0;bottom=0;align=left;verticalAlign=top;fillColor=none;spacingLeft=34;spacingRight=4;overflow=hidden;rotatable=0;points=[[0,0.5],[1,0.5]];portConstraint=eastwest;dropTarget=0;rounded=0;" parent="SJSmvKwEZ4cIt8mxZRy5-360" vertex="1">
          <mxGeometry y="82" width="160" height="10" as="geometry" />
        </mxCell>
        <mxCell id="SJSmvKwEZ4cIt8mxZRy5-366" value="" style="shape=partialRectangle;top=0;left=0;bottom=0;fillColor=none;align=left;verticalAlign=top;spacingLeft=4;spacingRight=4;overflow=hidden;rotatable=0;points=[];portConstraint=eastwest;part=1;rounded=0;" parent="SJSmvKwEZ4cIt8mxZRy5-365" vertex="1" connectable="0">
          <mxGeometry width="30" height="10" as="geometry" />
        </mxCell>
        <mxCell id="SJSmvKwEZ4cIt8mxZRy5-368" value="" style="edgeStyle=entityRelationEdgeStyle;fontSize=12;html=1;endArrow=ERoneToMany;startArrow=ERmandOne;rounded=0;" parent="1" source="SJSmvKwEZ4cIt8mxZRy5-320" target="SJSmvKwEZ4cIt8mxZRy5-333" edge="1">
          <mxGeometry width="100" height="100" relative="1" as="geometry">
            <mxPoint x="255" y="637" as="sourcePoint" />
            <mxPoint x="490" y="383" as="targetPoint" />
          </mxGeometry>
        </mxCell>
        <mxCell id="SJSmvKwEZ4cIt8mxZRy5-369" value="" style="edgeStyle=entityRelationEdgeStyle;fontSize=12;html=1;endArrow=ERoneToMany;startArrow=ERmandOne;rounded=0;" parent="1" source="SJSmvKwEZ4cIt8mxZRy5-311" target="SJSmvKwEZ4cIt8mxZRy5-329" edge="1">
          <mxGeometry width="100" height="100" relative="1" as="geometry">
            <mxPoint x="260" y="1042" as="sourcePoint" />
            <mxPoint x="430" y="995" as="targetPoint" />
          </mxGeometry>
        </mxCell>
        <mxCell id="SJSmvKwEZ4cIt8mxZRy5-370" value="" style="edgeStyle=entityRelationEdgeStyle;fontSize=12;html=1;endArrow=ERoneToMany;startArrow=ERmandOne;rounded=0;" parent="1" source="SJSmvKwEZ4cIt8mxZRy5-361" target="SJSmvKwEZ4cIt8mxZRy5-337" edge="1">
          <mxGeometry width="100" height="100" relative="1" as="geometry">
            <mxPoint x="260" y="1042" as="sourcePoint" />
            <mxPoint x="430" y="995" as="targetPoint" />
          </mxGeometry>
        </mxCell>
        <mxCell id="SJSmvKwEZ4cIt8mxZRy5-374" value="" style="fontSize=12;html=1;endArrow=ERoneToMany;startArrow=ERmandOne;rounded=0;edgeStyle=orthogonalEdgeStyle;" parent="1" source="SJSmvKwEZ4cIt8mxZRy5-106" target="SJSmvKwEZ4cIt8mxZRy5-358" edge="1">
          <mxGeometry width="100" height="100" relative="1" as="geometry">
            <mxPoint x="860" y="580" as="sourcePoint" />
            <mxPoint x="640" y="1040" as="targetPoint" />
            <Array as="points">
              <mxPoint x="670" y="315" />
              <mxPoint x="670" y="960" />
            </Array>
          </mxGeometry>
        </mxCell>
        <mxCell id="SJSmvKwEZ4cIt8mxZRy5-446" value="Shop" style="swimlane;fontStyle=0;childLayout=stackLayout;horizontal=1;startSize=26;fillColor=#F0F0F0;horizontalStack=0;resizeParent=1;resizeParentMax=0;resizeLast=0;collapsible=1;marginBottom=0;swimlaneFillColor=#E5CCFF;align=center;strokeWidth=1;fontSize=13;strokeColor=#000000;rounded=0;" parent="1" vertex="1">
          <mxGeometry x="1510" y="30" width="160" height="144" as="geometry" />
        </mxCell>
        <mxCell id="SJSmvKwEZ4cIt8mxZRy5-447" value="ShopID" style="shape=partialRectangle;top=0;left=0;right=0;bottom=1;align=left;verticalAlign=middle;fillColor=none;spacingLeft=34;spacingRight=4;overflow=hidden;rotatable=0;points=[[0,0.5],[1,0.5]];portConstraint=eastwest;dropTarget=0;fontStyle=5;rounded=0;" parent="SJSmvKwEZ4cIt8mxZRy5-446" vertex="1">
          <mxGeometry y="26" width="160" height="30" as="geometry" />
        </mxCell>
        <mxCell id="SJSmvKwEZ4cIt8mxZRy5-448" value="PK" style="shape=partialRectangle;top=0;left=0;bottom=0;fillColor=none;align=left;verticalAlign=middle;spacingLeft=4;spacingRight=4;overflow=hidden;rotatable=0;points=[];portConstraint=eastwest;part=1;fontStyle=1;rounded=0;" parent="SJSmvKwEZ4cIt8mxZRy5-447" vertex="1" connectable="0">
          <mxGeometry width="30" height="30" as="geometry" />
        </mxCell>
        <mxCell id="SJSmvKwEZ4cIt8mxZRy5-449" value="shop_name" style="shape=partialRectangle;top=0;left=0;right=0;bottom=0;align=left;verticalAlign=top;fillColor=none;spacingLeft=34;spacingRight=4;overflow=hidden;rotatable=0;points=[[0,0.5],[1,0.5]];portConstraint=eastwest;dropTarget=0;rounded=0;" parent="SJSmvKwEZ4cIt8mxZRy5-446" vertex="1">
          <mxGeometry y="56" width="160" height="26" as="geometry" />
        </mxCell>
        <mxCell id="SJSmvKwEZ4cIt8mxZRy5-450" value="" style="shape=partialRectangle;top=0;left=0;bottom=0;fillColor=none;align=left;verticalAlign=top;spacingLeft=4;spacingRight=4;overflow=hidden;rotatable=0;points=[];portConstraint=eastwest;part=1;rounded=0;" parent="SJSmvKwEZ4cIt8mxZRy5-449" vertex="1" connectable="0">
          <mxGeometry width="30" height="26" as="geometry" />
        </mxCell>
        <mxCell id="SJSmvKwEZ4cIt8mxZRy5-451" value="shop_logo" style="shape=partialRectangle;top=0;left=0;right=0;bottom=0;align=left;verticalAlign=top;fillColor=none;spacingLeft=34;spacingRight=4;overflow=hidden;rotatable=0;points=[[0,0.5],[1,0.5]];portConstraint=eastwest;dropTarget=0;rounded=0;" parent="SJSmvKwEZ4cIt8mxZRy5-446" vertex="1">
          <mxGeometry y="82" width="160" height="26" as="geometry" />
        </mxCell>
        <mxCell id="SJSmvKwEZ4cIt8mxZRy5-452" value="" style="shape=partialRectangle;top=0;left=0;bottom=0;fillColor=none;align=left;verticalAlign=top;spacingLeft=4;spacingRight=4;overflow=hidden;rotatable=0;points=[];portConstraint=eastwest;part=1;rounded=0;" parent="SJSmvKwEZ4cIt8mxZRy5-451" vertex="1" connectable="0">
          <mxGeometry width="30" height="26" as="geometry" />
        </mxCell>
        <mxCell id="SJSmvKwEZ4cIt8mxZRy5-453" value="MainShopLocationID" style="shape=partialRectangle;top=0;left=0;right=0;bottom=0;align=left;verticalAlign=top;fillColor=none;spacingLeft=34;spacingRight=4;overflow=hidden;rotatable=0;points=[[0,0.5],[1,0.5]];portConstraint=eastwest;dropTarget=0;rounded=0;fontStyle=2" parent="SJSmvKwEZ4cIt8mxZRy5-446" vertex="1">
          <mxGeometry y="108" width="160" height="26" as="geometry" />
        </mxCell>
        <mxCell id="SJSmvKwEZ4cIt8mxZRy5-454" value="FK" style="shape=partialRectangle;top=0;left=0;bottom=0;fillColor=none;align=left;verticalAlign=top;spacingLeft=4;spacingRight=4;overflow=hidden;rotatable=0;points=[];portConstraint=eastwest;part=1;rounded=0;" parent="SJSmvKwEZ4cIt8mxZRy5-453" vertex="1" connectable="0">
          <mxGeometry width="30" height="26" as="geometry" />
        </mxCell>
        <mxCell id="SJSmvKwEZ4cIt8mxZRy5-455" value="" style="shape=partialRectangle;top=0;left=0;right=0;bottom=0;align=left;verticalAlign=top;fillColor=none;spacingLeft=34;spacingRight=4;overflow=hidden;rotatable=0;points=[[0,0.5],[1,0.5]];portConstraint=eastwest;dropTarget=0;rounded=0;" parent="SJSmvKwEZ4cIt8mxZRy5-446" vertex="1">
          <mxGeometry y="134" width="160" height="10" as="geometry" />
        </mxCell>
        <mxCell id="SJSmvKwEZ4cIt8mxZRy5-456" value="" style="shape=partialRectangle;top=0;left=0;bottom=0;fillColor=none;align=left;verticalAlign=top;spacingLeft=4;spacingRight=4;overflow=hidden;rotatable=0;points=[];portConstraint=eastwest;part=1;rounded=0;" parent="SJSmvKwEZ4cIt8mxZRy5-455" vertex="1" connectable="0">
          <mxGeometry width="30" height="10" as="geometry" />
        </mxCell>
        <mxCell id="SJSmvKwEZ4cIt8mxZRy5-457" value="Shop Location" style="swimlane;fontStyle=0;childLayout=stackLayout;horizontal=1;startSize=26;fillColor=#F0F0F0;horizontalStack=0;resizeParent=1;resizeParentMax=0;resizeLast=0;collapsible=1;marginBottom=0;swimlaneFillColor=#E5CCFF;align=center;strokeWidth=1;fontSize=13;strokeColor=#000000;rounded=0;" parent="1" vertex="1">
          <mxGeometry x="1510" y="350" width="160" height="248" as="geometry" />
        </mxCell>
        <mxCell id="SJSmvKwEZ4cIt8mxZRy5-458" value="ShopLocationID" style="shape=partialRectangle;top=0;left=0;right=0;bottom=1;align=left;verticalAlign=middle;fillColor=none;spacingLeft=34;spacingRight=4;overflow=hidden;rotatable=0;points=[[0,0.5],[1,0.5]];portConstraint=eastwest;dropTarget=0;fontStyle=5;rounded=0;" parent="SJSmvKwEZ4cIt8mxZRy5-457" vertex="1">
          <mxGeometry y="26" width="160" height="30" as="geometry" />
        </mxCell>
        <mxCell id="SJSmvKwEZ4cIt8mxZRy5-459" value="PK" style="shape=partialRectangle;top=0;left=0;bottom=0;fillColor=none;align=left;verticalAlign=middle;spacingLeft=4;spacingRight=4;overflow=hidden;rotatable=0;points=[];portConstraint=eastwest;part=1;fontStyle=1;rounded=0;" parent="SJSmvKwEZ4cIt8mxZRy5-458" vertex="1" connectable="0">
          <mxGeometry width="30" height="30" as="geometry" />
        </mxCell>
        <mxCell id="SJSmvKwEZ4cIt8mxZRy5-460" value="ShopID" style="shape=partialRectangle;top=0;left=0;right=0;bottom=0;align=left;verticalAlign=top;fillColor=none;spacingLeft=34;spacingRight=4;overflow=hidden;rotatable=0;points=[[0,0.5],[1,0.5]];portConstraint=eastwest;dropTarget=0;rounded=0;fontStyle=2" parent="SJSmvKwEZ4cIt8mxZRy5-457" vertex="1">
          <mxGeometry y="56" width="160" height="26" as="geometry" />
        </mxCell>
        <mxCell id="SJSmvKwEZ4cIt8mxZRy5-461" value="FK" style="shape=partialRectangle;top=0;left=0;bottom=0;fillColor=none;align=left;verticalAlign=top;spacingLeft=4;spacingRight=4;overflow=hidden;rotatable=0;points=[];portConstraint=eastwest;part=1;rounded=0;" parent="SJSmvKwEZ4cIt8mxZRy5-460" vertex="1" connectable="0">
          <mxGeometry width="30" height="26" as="geometry" />
        </mxCell>
        <mxCell id="SJSmvKwEZ4cIt8mxZRy5-462" value="AddressID" style="shape=partialRectangle;top=0;left=0;right=0;bottom=0;align=left;verticalAlign=top;fillColor=none;spacingLeft=34;spacingRight=4;overflow=hidden;rotatable=0;points=[[0,0.5],[1,0.5]];portConstraint=eastwest;dropTarget=0;rounded=0;fontStyle=2" parent="SJSmvKwEZ4cIt8mxZRy5-457" vertex="1">
          <mxGeometry y="82" width="160" height="26" as="geometry" />
        </mxCell>
        <mxCell id="SJSmvKwEZ4cIt8mxZRy5-463" value="FK" style="shape=partialRectangle;top=0;left=0;bottom=0;fillColor=none;align=left;verticalAlign=top;spacingLeft=4;spacingRight=4;overflow=hidden;rotatable=0;points=[];portConstraint=eastwest;part=1;rounded=0;" parent="SJSmvKwEZ4cIt8mxZRy5-462" vertex="1" connectable="0">
          <mxGeometry width="30" height="26" as="geometry" />
        </mxCell>
        <mxCell id="SJSmvKwEZ4cIt8mxZRy5-464" value="coordinates" style="shape=partialRectangle;top=0;left=0;right=0;bottom=0;align=left;verticalAlign=top;fillColor=none;spacingLeft=34;spacingRight=4;overflow=hidden;rotatable=0;points=[[0,0.5],[1,0.5]];portConstraint=eastwest;dropTarget=0;rounded=0;" parent="SJSmvKwEZ4cIt8mxZRy5-457" vertex="1">
          <mxGeometry y="108" width="160" height="26" as="geometry" />
        </mxCell>
        <mxCell id="SJSmvKwEZ4cIt8mxZRy5-465" value="" style="shape=partialRectangle;top=0;left=0;bottom=0;fillColor=none;align=left;verticalAlign=top;spacingLeft=4;spacingRight=4;overflow=hidden;rotatable=0;points=[];portConstraint=eastwest;part=1;rounded=0;" parent="SJSmvKwEZ4cIt8mxZRy5-464" vertex="1" connectable="0">
          <mxGeometry width="30" height="26" as="geometry" />
        </mxCell>
        <mxCell id="SJSmvKwEZ4cIt8mxZRy5-468" value="business_permit" style="shape=partialRectangle;top=0;left=0;right=0;bottom=0;align=left;verticalAlign=top;fillColor=none;spacingLeft=34;spacingRight=4;overflow=hidden;rotatable=0;points=[[0,0.5],[1,0.5]];portConstraint=eastwest;dropTarget=0;rounded=0;" parent="SJSmvKwEZ4cIt8mxZRy5-457" vertex="1">
          <mxGeometry y="134" width="160" height="26" as="geometry" />
        </mxCell>
        <mxCell id="SJSmvKwEZ4cIt8mxZRy5-469" value="" style="shape=partialRectangle;top=0;left=0;bottom=0;fillColor=none;align=left;verticalAlign=top;spacingLeft=4;spacingRight=4;overflow=hidden;rotatable=0;points=[];portConstraint=eastwest;part=1;rounded=0;" parent="SJSmvKwEZ4cIt8mxZRy5-468" vertex="1" connectable="0">
          <mxGeometry width="30" height="26" as="geometry" />
        </mxCell>
        <mxCell id="SJSmvKwEZ4cIt8mxZRy5-470" value="operating_hours" style="shape=partialRectangle;top=0;left=0;right=0;bottom=0;align=left;verticalAlign=top;fillColor=none;spacingLeft=34;spacingRight=4;overflow=hidden;rotatable=0;points=[[0,0.5],[1,0.5]];portConstraint=eastwest;dropTarget=0;rounded=0;" parent="SJSmvKwEZ4cIt8mxZRy5-457" vertex="1">
          <mxGeometry y="160" width="160" height="26" as="geometry" />
        </mxCell>
        <mxCell id="SJSmvKwEZ4cIt8mxZRy5-471" value="" style="shape=partialRectangle;top=0;left=0;bottom=0;fillColor=none;align=left;verticalAlign=top;spacingLeft=4;spacingRight=4;overflow=hidden;rotatable=0;points=[];portConstraint=eastwest;part=1;rounded=0;" parent="SJSmvKwEZ4cIt8mxZRy5-470" vertex="1" connectable="0">
          <mxGeometry width="30" height="26" as="geometry" />
        </mxCell>
        <mxCell id="SJSmvKwEZ4cIt8mxZRy5-472" value="workshop_since" style="shape=partialRectangle;top=0;left=0;right=0;bottom=0;align=left;verticalAlign=top;fillColor=none;spacingLeft=34;spacingRight=4;overflow=hidden;rotatable=0;points=[[0,0.5],[1,0.5]];portConstraint=eastwest;dropTarget=0;rounded=0;" parent="SJSmvKwEZ4cIt8mxZRy5-457" vertex="1">
          <mxGeometry y="186" width="160" height="26" as="geometry" />
        </mxCell>
        <mxCell id="SJSmvKwEZ4cIt8mxZRy5-473" value="" style="shape=partialRectangle;top=0;left=0;bottom=0;fillColor=none;align=left;verticalAlign=top;spacingLeft=4;spacingRight=4;overflow=hidden;rotatable=0;points=[];portConstraint=eastwest;part=1;rounded=0;" parent="SJSmvKwEZ4cIt8mxZRy5-472" vertex="1" connectable="0">
          <mxGeometry width="30" height="26" as="geometry" />
        </mxCell>
        <mxCell id="SJSmvKwEZ4cIt8mxZRy5-474" value="shop_metadata" style="shape=partialRectangle;top=0;left=0;right=0;bottom=0;align=left;verticalAlign=top;fillColor=none;spacingLeft=34;spacingRight=4;overflow=hidden;rotatable=0;points=[[0,0.5],[1,0.5]];portConstraint=eastwest;dropTarget=0;rounded=0;" parent="SJSmvKwEZ4cIt8mxZRy5-457" vertex="1">
          <mxGeometry y="212" width="160" height="26" as="geometry" />
        </mxCell>
        <mxCell id="SJSmvKwEZ4cIt8mxZRy5-475" value="" style="shape=partialRectangle;top=0;left=0;bottom=0;fillColor=none;align=left;verticalAlign=top;spacingLeft=4;spacingRight=4;overflow=hidden;rotatable=0;points=[];portConstraint=eastwest;part=1;rounded=0;" parent="SJSmvKwEZ4cIt8mxZRy5-474" vertex="1" connectable="0">
          <mxGeometry width="30" height="26" as="geometry" />
        </mxCell>
        <mxCell id="SJSmvKwEZ4cIt8mxZRy5-466" value="" style="shape=partialRectangle;top=0;left=0;right=0;bottom=0;align=left;verticalAlign=top;fillColor=none;spacingLeft=34;spacingRight=4;overflow=hidden;rotatable=0;points=[[0,0.5],[1,0.5]];portConstraint=eastwest;dropTarget=0;rounded=0;" parent="SJSmvKwEZ4cIt8mxZRy5-457" vertex="1">
          <mxGeometry y="238" width="160" height="10" as="geometry" />
        </mxCell>
        <mxCell id="SJSmvKwEZ4cIt8mxZRy5-467" value="" style="shape=partialRectangle;top=0;left=0;bottom=0;fillColor=none;align=left;verticalAlign=top;spacingLeft=4;spacingRight=4;overflow=hidden;rotatable=0;points=[];portConstraint=eastwest;part=1;rounded=0;" parent="SJSmvKwEZ4cIt8mxZRy5-466" vertex="1" connectable="0">
          <mxGeometry width="30" height="10" as="geometry" />
        </mxCell>
        <mxCell id="SJSmvKwEZ4cIt8mxZRy5-476" value="" style="fontSize=12;html=1;endArrow=ERoneToMany;startArrow=ERmandOne;rounded=0;" parent="1" source="SJSmvKwEZ4cIt8mxZRy5-446" target="SJSmvKwEZ4cIt8mxZRy5-457" edge="1">
          <mxGeometry width="100" height="100" relative="1" as="geometry">
            <mxPoint x="255" y="637" as="sourcePoint" />
            <mxPoint x="490" y="383" as="targetPoint" />
          </mxGeometry>
        </mxCell>
        <mxCell id="SJSmvKwEZ4cIt8mxZRy5-477" value="" style="fontSize=12;html=1;endArrow=ERoneToMany;startArrow=ERmandOne;rounded=0;edgeStyle=orthogonalEdgeStyle;" parent="1" source="SJSmvKwEZ4cIt8mxZRy5-170" target="SJSmvKwEZ4cIt8mxZRy5-462" edge="1">
          <mxGeometry width="100" height="100" relative="1" as="geometry">
            <mxPoint x="820" y="530" as="sourcePoint" />
            <mxPoint x="920" y="430" as="targetPoint" />
          </mxGeometry>
        </mxCell>
        <mxCell id="SJSmvKwEZ4cIt8mxZRy5-478" value="categories" style="swimlane;fontStyle=0;childLayout=stackLayout;horizontal=1;startSize=26;fillColor=#F0F0F0;horizontalStack=0;resizeParent=1;resizeParentMax=0;resizeLast=0;collapsible=1;marginBottom=0;swimlaneFillColor=#E5CCFF;align=center;strokeWidth=1;fontSize=13;strokeColor=#000000;rounded=0;" parent="1" vertex="1">
          <mxGeometry x="1840" y="300" width="160" height="144" as="geometry" />
        </mxCell>
        <mxCell id="SJSmvKwEZ4cIt8mxZRy5-510" style="edgeStyle=orthogonalEdgeStyle;rounded=0;orthogonalLoop=1;jettySize=auto;html=1;endArrow=ERzeroToMany;endFill=0;startArrow=ERzeroToOne;startFill=0;" parent="SJSmvKwEZ4cIt8mxZRy5-478" source="SJSmvKwEZ4cIt8mxZRy5-479" target="SJSmvKwEZ4cIt8mxZRy5-485" edge="1">
          <mxGeometry relative="1" as="geometry">
            <Array as="points">
              <mxPoint x="-40" y="41" />
              <mxPoint x="-40" y="121" />
            </Array>
          </mxGeometry>
        </mxCell>
        <mxCell id="SJSmvKwEZ4cIt8mxZRy5-479" value="id" style="shape=partialRectangle;top=0;left=0;right=0;bottom=1;align=left;verticalAlign=middle;fillColor=none;spacingLeft=34;spacingRight=4;overflow=hidden;rotatable=0;points=[[0,0.5],[1,0.5]];portConstraint=eastwest;dropTarget=0;fontStyle=5;rounded=0;" parent="SJSmvKwEZ4cIt8mxZRy5-478" vertex="1">
          <mxGeometry y="26" width="160" height="30" as="geometry" />
        </mxCell>
        <mxCell id="SJSmvKwEZ4cIt8mxZRy5-480" value="PK" style="shape=partialRectangle;top=0;left=0;bottom=0;fillColor=none;align=left;verticalAlign=middle;spacingLeft=4;spacingRight=4;overflow=hidden;rotatable=0;points=[];portConstraint=eastwest;part=1;fontStyle=1;rounded=0;" parent="SJSmvKwEZ4cIt8mxZRy5-479" vertex="1" connectable="0">
          <mxGeometry width="30" height="30" as="geometry" />
        </mxCell>
        <mxCell id="SJSmvKwEZ4cIt8mxZRy5-481" value="category_name" style="shape=partialRectangle;top=0;left=0;right=0;bottom=0;align=left;verticalAlign=top;fillColor=none;spacingLeft=34;spacingRight=4;overflow=hidden;rotatable=0;points=[[0,0.5],[1,0.5]];portConstraint=eastwest;dropTarget=0;rounded=0;" parent="SJSmvKwEZ4cIt8mxZRy5-478" vertex="1">
          <mxGeometry y="56" width="160" height="26" as="geometry" />
        </mxCell>
        <mxCell id="SJSmvKwEZ4cIt8mxZRy5-482" value="" style="shape=partialRectangle;top=0;left=0;bottom=0;fillColor=none;align=left;verticalAlign=top;spacingLeft=4;spacingRight=4;overflow=hidden;rotatable=0;points=[];portConstraint=eastwest;part=1;rounded=0;" parent="SJSmvKwEZ4cIt8mxZRy5-481" vertex="1" connectable="0">
          <mxGeometry width="30" height="26" as="geometry" />
        </mxCell>
        <mxCell id="SJSmvKwEZ4cIt8mxZRy5-483" value="description" style="shape=partialRectangle;top=0;left=0;right=0;bottom=0;align=left;verticalAlign=top;fillColor=none;spacingLeft=34;spacingRight=4;overflow=hidden;rotatable=0;points=[[0,0.5],[1,0.5]];portConstraint=eastwest;dropTarget=0;rounded=0;" parent="SJSmvKwEZ4cIt8mxZRy5-478" vertex="1">
          <mxGeometry y="82" width="160" height="26" as="geometry" />
        </mxCell>
        <mxCell id="SJSmvKwEZ4cIt8mxZRy5-484" value="" style="shape=partialRectangle;top=0;left=0;bottom=0;fillColor=none;align=left;verticalAlign=top;spacingLeft=4;spacingRight=4;overflow=hidden;rotatable=0;points=[];portConstraint=eastwest;part=1;rounded=0;" parent="SJSmvKwEZ4cIt8mxZRy5-483" vertex="1" connectable="0">
          <mxGeometry width="30" height="26" as="geometry" />
        </mxCell>
        <mxCell id="SJSmvKwEZ4cIt8mxZRy5-485" value="parentID" style="shape=partialRectangle;top=0;left=0;right=0;bottom=0;align=left;verticalAlign=top;fillColor=none;spacingLeft=34;spacingRight=4;overflow=hidden;rotatable=0;points=[[0,0.5],[1,0.5]];portConstraint=eastwest;dropTarget=0;rounded=0;fontStyle=2" parent="SJSmvKwEZ4cIt8mxZRy5-478" vertex="1">
          <mxGeometry y="108" width="160" height="26" as="geometry" />
        </mxCell>
        <mxCell id="SJSmvKwEZ4cIt8mxZRy5-486" value="FK" style="shape=partialRectangle;top=0;left=0;bottom=0;fillColor=none;align=left;verticalAlign=top;spacingLeft=4;spacingRight=4;overflow=hidden;rotatable=0;points=[];portConstraint=eastwest;part=1;rounded=0;" parent="SJSmvKwEZ4cIt8mxZRy5-485" vertex="1" connectable="0">
          <mxGeometry width="30" height="26" as="geometry" />
        </mxCell>
        <mxCell id="SJSmvKwEZ4cIt8mxZRy5-487" value="" style="shape=partialRectangle;top=0;left=0;right=0;bottom=0;align=left;verticalAlign=top;fillColor=none;spacingLeft=34;spacingRight=4;overflow=hidden;rotatable=0;points=[[0,0.5],[1,0.5]];portConstraint=eastwest;dropTarget=0;rounded=0;" parent="SJSmvKwEZ4cIt8mxZRy5-478" vertex="1">
          <mxGeometry y="134" width="160" height="10" as="geometry" />
        </mxCell>
        <mxCell id="SJSmvKwEZ4cIt8mxZRy5-488" value="" style="shape=partialRectangle;top=0;left=0;bottom=0;fillColor=none;align=left;verticalAlign=top;spacingLeft=4;spacingRight=4;overflow=hidden;rotatable=0;points=[];portConstraint=eastwest;part=1;rounded=0;" parent="SJSmvKwEZ4cIt8mxZRy5-487" vertex="1" connectable="0">
          <mxGeometry width="30" height="10" as="geometry" />
        </mxCell>
        <mxCell id="SJSmvKwEZ4cIt8mxZRy5-489" value="services_offered" style="swimlane;fontStyle=0;childLayout=stackLayout;horizontal=1;startSize=26;fillColor=#F0F0F0;horizontalStack=0;resizeParent=1;resizeParentMax=0;resizeLast=0;collapsible=1;marginBottom=0;swimlaneFillColor=#E5CCFF;align=center;strokeWidth=1;fontSize=13;strokeColor=#000000;rounded=0;" parent="1" vertex="1">
          <mxGeometry x="1840" y="455" width="160" height="248" as="geometry" />
        </mxCell>
        <mxCell id="SJSmvKwEZ4cIt8mxZRy5-490" value="id" style="shape=partialRectangle;top=0;left=0;right=0;bottom=1;align=left;verticalAlign=middle;fillColor=none;spacingLeft=34;spacingRight=4;overflow=hidden;rotatable=0;points=[[0,0.5],[1,0.5]];portConstraint=eastwest;dropTarget=0;fontStyle=5;rounded=0;" parent="SJSmvKwEZ4cIt8mxZRy5-489" vertex="1">
          <mxGeometry y="26" width="160" height="30" as="geometry" />
        </mxCell>
        <mxCell id="SJSmvKwEZ4cIt8mxZRy5-491" value="PK" style="shape=partialRectangle;top=0;left=0;bottom=0;fillColor=none;align=left;verticalAlign=middle;spacingLeft=4;spacingRight=4;overflow=hidden;rotatable=0;points=[];portConstraint=eastwest;part=1;fontStyle=1;rounded=0;" parent="SJSmvKwEZ4cIt8mxZRy5-490" vertex="1" connectable="0">
          <mxGeometry width="30" height="30" as="geometry" />
        </mxCell>
        <mxCell id="SJSmvKwEZ4cIt8mxZRy5-492" value="categories_id" style="shape=partialRectangle;top=0;left=0;right=0;bottom=0;align=left;verticalAlign=top;fillColor=none;spacingLeft=34;spacingRight=4;overflow=hidden;rotatable=0;points=[[0,0.5],[1,0.5]];portConstraint=eastwest;dropTarget=0;rounded=0;fontStyle=2" parent="SJSmvKwEZ4cIt8mxZRy5-489" vertex="1">
          <mxGeometry y="56" width="160" height="26" as="geometry" />
        </mxCell>
        <mxCell id="SJSmvKwEZ4cIt8mxZRy5-493" value="FK" style="shape=partialRectangle;top=0;left=0;bottom=0;fillColor=none;align=left;verticalAlign=top;spacingLeft=4;spacingRight=4;overflow=hidden;rotatable=0;points=[];portConstraint=eastwest;part=1;rounded=0;" parent="SJSmvKwEZ4cIt8mxZRy5-492" vertex="1" connectable="0">
          <mxGeometry width="30" height="26" as="geometry" />
        </mxCell>
        <mxCell id="SJSmvKwEZ4cIt8mxZRy5-500" value="shop_location_id" style="shape=partialRectangle;top=0;left=0;right=0;bottom=0;align=left;verticalAlign=top;fillColor=none;spacingLeft=34;spacingRight=4;overflow=hidden;rotatable=0;points=[[0,0.5],[1,0.5]];portConstraint=eastwest;dropTarget=0;rounded=0;fontStyle=2" parent="SJSmvKwEZ4cIt8mxZRy5-489" vertex="1">
          <mxGeometry y="82" width="160" height="26" as="geometry" />
        </mxCell>
        <mxCell id="SJSmvKwEZ4cIt8mxZRy5-501" value="FK" style="shape=partialRectangle;top=0;left=0;bottom=0;fillColor=none;align=left;verticalAlign=top;spacingLeft=4;spacingRight=4;overflow=hidden;rotatable=0;points=[];portConstraint=eastwest;part=1;rounded=0;" parent="SJSmvKwEZ4cIt8mxZRy5-500" vertex="1" connectable="0">
          <mxGeometry width="30" height="26" as="geometry" />
        </mxCell>
        <mxCell id="SJSmvKwEZ4cIt8mxZRy5-504" value="price" style="shape=partialRectangle;top=0;left=0;right=0;bottom=0;align=left;verticalAlign=top;fillColor=none;spacingLeft=34;spacingRight=4;overflow=hidden;rotatable=0;points=[[0,0.5],[1,0.5]];portConstraint=eastwest;dropTarget=0;rounded=0;" parent="SJSmvKwEZ4cIt8mxZRy5-489" vertex="1">
          <mxGeometry y="108" width="160" height="26" as="geometry" />
        </mxCell>
        <mxCell id="SJSmvKwEZ4cIt8mxZRy5-505" value="" style="shape=partialRectangle;top=0;left=0;bottom=0;fillColor=none;align=left;verticalAlign=top;spacingLeft=4;spacingRight=4;overflow=hidden;rotatable=0;points=[];portConstraint=eastwest;part=1;rounded=0;" parent="SJSmvKwEZ4cIt8mxZRy5-504" vertex="1" connectable="0">
          <mxGeometry width="30" height="26" as="geometry" />
        </mxCell>
        <mxCell id="SJSmvKwEZ4cIt8mxZRy5-496" value="status" style="shape=partialRectangle;top=0;left=0;right=0;bottom=0;align=left;verticalAlign=top;fillColor=none;spacingLeft=34;spacingRight=4;overflow=hidden;rotatable=0;points=[[0,0.5],[1,0.5]];portConstraint=eastwest;dropTarget=0;rounded=0;fontStyle=0" parent="SJSmvKwEZ4cIt8mxZRy5-489" vertex="1">
          <mxGeometry y="134" width="160" height="26" as="geometry" />
        </mxCell>
        <mxCell id="SJSmvKwEZ4cIt8mxZRy5-497" value="" style="shape=partialRectangle;top=0;left=0;bottom=0;fillColor=none;align=left;verticalAlign=top;spacingLeft=4;spacingRight=4;overflow=hidden;rotatable=0;points=[];portConstraint=eastwest;part=1;rounded=0;" parent="SJSmvKwEZ4cIt8mxZRy5-496" vertex="1" connectable="0">
          <mxGeometry width="30" height="26" as="geometry" />
        </mxCell>
        <mxCell id="yQyPxhstI3LtVDyPCECz-84" value="image_url" style="shape=partialRectangle;top=0;left=0;right=0;bottom=0;align=left;verticalAlign=top;fillColor=none;spacingLeft=34;spacingRight=4;overflow=hidden;rotatable=0;points=[[0,0.5],[1,0.5]];portConstraint=eastwest;dropTarget=0;rounded=0;fontStyle=0" parent="SJSmvKwEZ4cIt8mxZRy5-489" vertex="1">
          <mxGeometry y="160" width="160" height="26" as="geometry" />
        </mxCell>
        <mxCell id="yQyPxhstI3LtVDyPCECz-85" value="" style="shape=partialRectangle;top=0;left=0;bottom=0;fillColor=none;align=left;verticalAlign=top;spacingLeft=4;spacingRight=4;overflow=hidden;rotatable=0;points=[];portConstraint=eastwest;part=1;rounded=0;" parent="yQyPxhstI3LtVDyPCECz-84" vertex="1" connectable="0">
          <mxGeometry width="30" height="26" as="geometry" />
        </mxCell>
        <mxCell id="yQyPxhstI3LtVDyPCECz-38" value="description" style="shape=partialRectangle;top=0;left=0;right=0;bottom=0;align=left;verticalAlign=top;fillColor=none;spacingLeft=34;spacingRight=4;overflow=hidden;rotatable=0;points=[[0,0.5],[1,0.5]];portConstraint=eastwest;dropTarget=0;rounded=0;fontStyle=0" parent="SJSmvKwEZ4cIt8mxZRy5-489" vertex="1">
          <mxGeometry y="186" width="160" height="26" as="geometry" />
        </mxCell>
        <mxCell id="yQyPxhstI3LtVDyPCECz-39" value="" style="shape=partialRectangle;top=0;left=0;bottom=0;fillColor=none;align=left;verticalAlign=top;spacingLeft=4;spacingRight=4;overflow=hidden;rotatable=0;points=[];portConstraint=eastwest;part=1;rounded=0;" parent="yQyPxhstI3LtVDyPCECz-38" vertex="1" connectable="0">
          <mxGeometry width="30" height="26" as="geometry" />
        </mxCell>
        <mxCell id="SJSmvKwEZ4cIt8mxZRy5-502" value="service_metadata" style="shape=partialRectangle;top=0;left=0;right=0;bottom=0;align=left;verticalAlign=top;fillColor=none;spacingLeft=34;spacingRight=4;overflow=hidden;rotatable=0;points=[[0,0.5],[1,0.5]];portConstraint=eastwest;dropTarget=0;rounded=0;fontStyle=0" parent="SJSmvKwEZ4cIt8mxZRy5-489" vertex="1">
          <mxGeometry y="212" width="160" height="26" as="geometry" />
        </mxCell>
        <mxCell id="SJSmvKwEZ4cIt8mxZRy5-503" value="" style="shape=partialRectangle;top=0;left=0;bottom=0;fillColor=none;align=left;verticalAlign=top;spacingLeft=4;spacingRight=4;overflow=hidden;rotatable=0;points=[];portConstraint=eastwest;part=1;rounded=0;" parent="SJSmvKwEZ4cIt8mxZRy5-502" vertex="1" connectable="0">
          <mxGeometry width="30" height="26" as="geometry" />
        </mxCell>
        <mxCell id="SJSmvKwEZ4cIt8mxZRy5-498" value="" style="shape=partialRectangle;top=0;left=0;right=0;bottom=0;align=left;verticalAlign=top;fillColor=none;spacingLeft=34;spacingRight=4;overflow=hidden;rotatable=0;points=[[0,0.5],[1,0.5]];portConstraint=eastwest;dropTarget=0;rounded=0;" parent="SJSmvKwEZ4cIt8mxZRy5-489" vertex="1">
          <mxGeometry y="238" width="160" height="10" as="geometry" />
        </mxCell>
        <mxCell id="SJSmvKwEZ4cIt8mxZRy5-499" value="" style="shape=partialRectangle;top=0;left=0;bottom=0;fillColor=none;align=left;verticalAlign=top;spacingLeft=4;spacingRight=4;overflow=hidden;rotatable=0;points=[];portConstraint=eastwest;part=1;rounded=0;" parent="SJSmvKwEZ4cIt8mxZRy5-498" vertex="1" connectable="0">
          <mxGeometry width="30" height="10" as="geometry" />
        </mxCell>
        <mxCell id="SJSmvKwEZ4cIt8mxZRy5-508" value="" style="edgeStyle=entityRelationEdgeStyle;fontSize=12;html=1;endArrow=ERoneToMany;startArrow=ERmandOne;rounded=0;" parent="1" source="SJSmvKwEZ4cIt8mxZRy5-447" target="SJSmvKwEZ4cIt8mxZRy5-460" edge="1">
          <mxGeometry width="100" height="100" relative="1" as="geometry">
            <mxPoint x="255" y="637" as="sourcePoint" />
            <mxPoint x="490" y="383" as="targetPoint" />
          </mxGeometry>
        </mxCell>
        <mxCell id="SJSmvKwEZ4cIt8mxZRy5-509" style="edgeStyle=orthogonalEdgeStyle;rounded=0;orthogonalLoop=1;jettySize=auto;html=1;exitX=1;exitY=0.5;exitDx=0;exitDy=0;endArrow=ERone;endFill=0;startArrow=ERone;startFill=0;" parent="1" source="SJSmvKwEZ4cIt8mxZRy5-458" target="SJSmvKwEZ4cIt8mxZRy5-453" edge="1">
          <mxGeometry relative="1" as="geometry" />
        </mxCell>
        <mxCell id="SJSmvKwEZ4cIt8mxZRy5-511" value="" style="fontSize=12;html=1;endArrow=ERoneToMany;startArrow=ERmandOne;rounded=0;exitX=1;exitY=0.5;exitDx=0;exitDy=0;edgeStyle=orthogonalEdgeStyle;" parent="1" source="SJSmvKwEZ4cIt8mxZRy5-479" target="SJSmvKwEZ4cIt8mxZRy5-492" edge="1">
          <mxGeometry width="100" height="100" relative="1" as="geometry">
            <mxPoint x="1310" y="520" as="sourcePoint" />
            <mxPoint x="2140" y="560" as="targetPoint" />
            <Array as="points">
              <mxPoint x="2030" y="341" />
              <mxPoint x="2030" y="524" />
            </Array>
          </mxGeometry>
        </mxCell>
        <mxCell id="SJSmvKwEZ4cIt8mxZRy5-512" style="rounded=0;orthogonalLoop=1;jettySize=auto;html=1;endArrow=ERoneToMany;endFill=0;startArrow=ERmandOne;startFill=0;edgeStyle=orthogonalEdgeStyle;" parent="1" source="SJSmvKwEZ4cIt8mxZRy5-457" target="SJSmvKwEZ4cIt8mxZRy5-489" edge="1">
          <mxGeometry relative="1" as="geometry">
            <mxPoint x="1420" y="428.969696969697" as="targetPoint" />
            <mxPoint x="1250" y="431.03030303030323" as="sourcePoint" />
            <Array as="points">
              <mxPoint x="1800" y="474" />
              <mxPoint x="1800" y="550" />
            </Array>
          </mxGeometry>
        </mxCell>
        <mxCell id="xPs3qHdYtmF-mURhRglS-4" style="edgeStyle=orthogonalEdgeStyle;rounded=0;orthogonalLoop=1;jettySize=auto;html=1;endArrow=ERzeroToMany;endFill=0;startArrow=ERzeroToOne;startFill=0;" parent="1" source="SJSmvKwEZ4cIt8mxZRy5-544" target="SJSmvKwEZ4cIt8mxZRy5-555" edge="1">
          <mxGeometry relative="1" as="geometry" />
        </mxCell>
        <mxCell id="SJSmvKwEZ4cIt8mxZRy5-544" value="conversation" style="swimlane;fontStyle=0;childLayout=stackLayout;horizontal=1;startSize=26;fillColor=#F0F0F0;horizontalStack=0;resizeParent=1;resizeParentMax=0;resizeLast=0;collapsible=1;marginBottom=0;swimlaneFillColor=#E5CCFF;align=center;strokeWidth=1;fontSize=13;strokeColor=#000000;rounded=0;" parent="1" vertex="1">
          <mxGeometry x="1190" y="15" width="160" height="118" as="geometry" />
        </mxCell>
        <mxCell id="SJSmvKwEZ4cIt8mxZRy5-545" value="id" style="shape=partialRectangle;top=0;left=0;right=0;bottom=1;align=left;verticalAlign=middle;fillColor=none;spacingLeft=34;spacingRight=4;overflow=hidden;rotatable=0;points=[[0,0.5],[1,0.5]];portConstraint=eastwest;dropTarget=0;fontStyle=5;rounded=0;" parent="SJSmvKwEZ4cIt8mxZRy5-544" vertex="1">
          <mxGeometry y="26" width="160" height="30" as="geometry" />
        </mxCell>
        <mxCell id="SJSmvKwEZ4cIt8mxZRy5-546" value="PK" style="shape=partialRectangle;top=0;left=0;bottom=0;fillColor=none;align=left;verticalAlign=middle;spacingLeft=4;spacingRight=4;overflow=hidden;rotatable=0;points=[];portConstraint=eastwest;part=1;fontStyle=1;rounded=0;" parent="SJSmvKwEZ4cIt8mxZRy5-545" vertex="1" connectable="0">
          <mxGeometry width="30" height="30" as="geometry" />
        </mxCell>
        <mxCell id="SJSmvKwEZ4cIt8mxZRy5-547" value="user_id" style="shape=partialRectangle;top=0;left=0;right=0;bottom=0;align=left;verticalAlign=top;fillColor=none;spacingLeft=34;spacingRight=4;overflow=hidden;rotatable=0;points=[[0,0.5],[1,0.5]];portConstraint=eastwest;dropTarget=0;rounded=0;" parent="SJSmvKwEZ4cIt8mxZRy5-544" vertex="1">
          <mxGeometry y="56" width="160" height="26" as="geometry" />
        </mxCell>
        <mxCell id="SJSmvKwEZ4cIt8mxZRy5-548" value="FK" style="shape=partialRectangle;top=0;left=0;bottom=0;fillColor=none;align=left;verticalAlign=top;spacingLeft=4;spacingRight=4;overflow=hidden;rotatable=0;points=[];portConstraint=eastwest;part=1;rounded=0;" parent="SJSmvKwEZ4cIt8mxZRy5-547" vertex="1" connectable="0">
          <mxGeometry width="30" height="26" as="geometry" />
        </mxCell>
        <mxCell id="SJSmvKwEZ4cIt8mxZRy5-549" value="shop_location_id" style="shape=partialRectangle;top=0;left=0;right=0;bottom=0;align=left;verticalAlign=top;fillColor=none;spacingLeft=34;spacingRight=4;overflow=hidden;rotatable=0;points=[[0,0.5],[1,0.5]];portConstraint=eastwest;dropTarget=0;rounded=0;" parent="SJSmvKwEZ4cIt8mxZRy5-544" vertex="1">
          <mxGeometry y="82" width="160" height="26" as="geometry" />
        </mxCell>
        <mxCell id="SJSmvKwEZ4cIt8mxZRy5-550" value="FK" style="shape=partialRectangle;top=0;left=0;bottom=0;fillColor=none;align=left;verticalAlign=top;spacingLeft=4;spacingRight=4;overflow=hidden;rotatable=0;points=[];portConstraint=eastwest;part=1;rounded=0;" parent="SJSmvKwEZ4cIt8mxZRy5-549" vertex="1" connectable="0">
          <mxGeometry width="30" height="26" as="geometry" />
        </mxCell>
        <mxCell id="SJSmvKwEZ4cIt8mxZRy5-553" value="" style="shape=partialRectangle;top=0;left=0;right=0;bottom=0;align=left;verticalAlign=top;fillColor=none;spacingLeft=34;spacingRight=4;overflow=hidden;rotatable=0;points=[[0,0.5],[1,0.5]];portConstraint=eastwest;dropTarget=0;rounded=0;" parent="SJSmvKwEZ4cIt8mxZRy5-544" vertex="1">
          <mxGeometry y="108" width="160" height="10" as="geometry" />
        </mxCell>
        <mxCell id="SJSmvKwEZ4cIt8mxZRy5-554" value="" style="shape=partialRectangle;top=0;left=0;bottom=0;fillColor=none;align=left;verticalAlign=top;spacingLeft=4;spacingRight=4;overflow=hidden;rotatable=0;points=[];portConstraint=eastwest;part=1;rounded=0;" parent="SJSmvKwEZ4cIt8mxZRy5-553" vertex="1" connectable="0">
          <mxGeometry width="30" height="10" as="geometry" />
        </mxCell>
        <mxCell id="SJSmvKwEZ4cIt8mxZRy5-555" value="message" style="swimlane;fontStyle=0;childLayout=stackLayout;horizontal=1;startSize=26;fillColor=#F0F0F0;horizontalStack=0;resizeParent=1;resizeParentMax=0;resizeLast=0;collapsible=1;marginBottom=0;swimlaneFillColor=#E5CCFF;align=center;strokeWidth=1;fontSize=13;strokeColor=#000000;rounded=0;" parent="1" vertex="1">
          <mxGeometry x="1190" y="260" width="160" height="172" as="geometry" />
        </mxCell>
        <mxCell id="SJSmvKwEZ4cIt8mxZRy5-556" value="id" style="shape=partialRectangle;top=0;left=0;right=0;bottom=1;align=left;verticalAlign=middle;fillColor=none;spacingLeft=34;spacingRight=4;overflow=hidden;rotatable=0;points=[[0,0.5],[1,0.5]];portConstraint=eastwest;dropTarget=0;fontStyle=5;rounded=0;" parent="SJSmvKwEZ4cIt8mxZRy5-555" vertex="1">
          <mxGeometry y="26" width="160" height="30" as="geometry" />
        </mxCell>
        <mxCell id="SJSmvKwEZ4cIt8mxZRy5-557" value="PK" style="shape=partialRectangle;top=0;left=0;bottom=0;fillColor=none;align=left;verticalAlign=middle;spacingLeft=4;spacingRight=4;overflow=hidden;rotatable=0;points=[];portConstraint=eastwest;part=1;fontStyle=1;rounded=0;" parent="SJSmvKwEZ4cIt8mxZRy5-556" vertex="1" connectable="0">
          <mxGeometry width="30" height="30" as="geometry" />
        </mxCell>
        <mxCell id="SJSmvKwEZ4cIt8mxZRy5-558" value="conversation_id" style="shape=partialRectangle;top=0;left=0;right=0;bottom=0;align=left;verticalAlign=top;fillColor=none;spacingLeft=34;spacingRight=4;overflow=hidden;rotatable=0;points=[[0,0.5],[1,0.5]];portConstraint=eastwest;dropTarget=0;rounded=0;fontStyle=2" parent="SJSmvKwEZ4cIt8mxZRy5-555" vertex="1">
          <mxGeometry y="56" width="160" height="26" as="geometry" />
        </mxCell>
        <mxCell id="SJSmvKwEZ4cIt8mxZRy5-559" value="FK" style="shape=partialRectangle;top=0;left=0;bottom=0;fillColor=none;align=left;verticalAlign=top;spacingLeft=4;spacingRight=4;overflow=hidden;rotatable=0;points=[];portConstraint=eastwest;part=1;rounded=0;" parent="SJSmvKwEZ4cIt8mxZRy5-558" vertex="1" connectable="0">
          <mxGeometry width="30" height="26" as="geometry" />
        </mxCell>
        <mxCell id="SJSmvKwEZ4cIt8mxZRy5-560" value="sender_id" style="shape=partialRectangle;top=0;left=0;right=0;bottom=0;align=left;verticalAlign=top;fillColor=none;spacingLeft=34;spacingRight=4;overflow=hidden;rotatable=0;points=[[0,0.5],[1,0.5]];portConstraint=eastwest;dropTarget=0;rounded=0;fontStyle=2" parent="SJSmvKwEZ4cIt8mxZRy5-555" vertex="1">
          <mxGeometry y="82" width="160" height="28" as="geometry" />
        </mxCell>
        <mxCell id="SJSmvKwEZ4cIt8mxZRy5-561" value="FK" style="shape=partialRectangle;top=0;left=0;bottom=0;fillColor=none;align=left;verticalAlign=top;spacingLeft=4;spacingRight=4;overflow=hidden;rotatable=0;points=[];portConstraint=eastwest;part=1;rounded=0;" parent="SJSmvKwEZ4cIt8mxZRy5-560" vertex="1" connectable="0">
          <mxGeometry width="30" height="28" as="geometry" />
        </mxCell>
        <mxCell id="SJSmvKwEZ4cIt8mxZRy5-564" value="message_body" style="shape=partialRectangle;top=0;left=0;right=0;bottom=0;align=left;verticalAlign=top;fillColor=none;spacingLeft=34;spacingRight=4;overflow=hidden;rotatable=0;points=[[0,0.5],[1,0.5]];portConstraint=eastwest;dropTarget=0;rounded=0;fontStyle=0" parent="SJSmvKwEZ4cIt8mxZRy5-555" vertex="1">
          <mxGeometry y="110" width="160" height="26" as="geometry" />
        </mxCell>
        <mxCell id="SJSmvKwEZ4cIt8mxZRy5-565" value="" style="shape=partialRectangle;top=0;left=0;bottom=0;fillColor=none;align=left;verticalAlign=top;spacingLeft=4;spacingRight=4;overflow=hidden;rotatable=0;points=[];portConstraint=eastwest;part=1;rounded=0;" parent="SJSmvKwEZ4cIt8mxZRy5-564" vertex="1" connectable="0">
          <mxGeometry width="30" height="26" as="geometry" />
        </mxCell>
        <mxCell id="SJSmvKwEZ4cIt8mxZRy5-566" value="created_at" style="shape=partialRectangle;top=0;left=0;right=0;bottom=0;align=left;verticalAlign=top;fillColor=none;spacingLeft=34;spacingRight=4;overflow=hidden;rotatable=0;points=[[0,0.5],[1,0.5]];portConstraint=eastwest;dropTarget=0;rounded=0;fontStyle=0" parent="SJSmvKwEZ4cIt8mxZRy5-555" vertex="1">
          <mxGeometry y="136" width="160" height="26" as="geometry" />
        </mxCell>
        <mxCell id="SJSmvKwEZ4cIt8mxZRy5-567" value="" style="shape=partialRectangle;top=0;left=0;bottom=0;fillColor=none;align=left;verticalAlign=top;spacingLeft=4;spacingRight=4;overflow=hidden;rotatable=0;points=[];portConstraint=eastwest;part=1;rounded=0;" parent="SJSmvKwEZ4cIt8mxZRy5-566" vertex="1" connectable="0">
          <mxGeometry width="30" height="26" as="geometry" />
        </mxCell>
        <mxCell id="SJSmvKwEZ4cIt8mxZRy5-562" value="" style="shape=partialRectangle;top=0;left=0;right=0;bottom=0;align=left;verticalAlign=top;fillColor=none;spacingLeft=34;spacingRight=4;overflow=hidden;rotatable=0;points=[[0,0.5],[1,0.5]];portConstraint=eastwest;dropTarget=0;rounded=0;" parent="SJSmvKwEZ4cIt8mxZRy5-555" vertex="1">
          <mxGeometry y="162" width="160" height="10" as="geometry" />
        </mxCell>
        <mxCell id="SJSmvKwEZ4cIt8mxZRy5-563" value="" style="shape=partialRectangle;top=0;left=0;bottom=0;fillColor=none;align=left;verticalAlign=top;spacingLeft=4;spacingRight=4;overflow=hidden;rotatable=0;points=[];portConstraint=eastwest;part=1;rounded=0;" parent="SJSmvKwEZ4cIt8mxZRy5-562" vertex="1" connectable="0">
          <mxGeometry width="30" height="10" as="geometry" />
        </mxCell>
        <mxCell id="xPs3qHdYtmF-mURhRglS-2" style="edgeStyle=orthogonalEdgeStyle;rounded=0;orthogonalLoop=1;jettySize=auto;html=1;exitX=1;exitY=0.5;exitDx=0;exitDy=0;startArrow=ERzeroToOne;startFill=0;endArrow=ERzeroToMany;endFill=0;" parent="1" source="SJSmvKwEZ4cIt8mxZRy5-102" target="SJSmvKwEZ4cIt8mxZRy5-547" edge="1">
          <mxGeometry relative="1" as="geometry" />
        </mxCell>
        <mxCell id="xPs3qHdYtmF-mURhRglS-3" style="edgeStyle=orthogonalEdgeStyle;rounded=0;orthogonalLoop=1;jettySize=auto;html=1;exitX=0;exitY=0.5;exitDx=0;exitDy=0;endArrow=ERzeroToMany;endFill=0;startArrow=ERzeroToOne;startFill=0;" parent="1" source="SJSmvKwEZ4cIt8mxZRy5-458" target="SJSmvKwEZ4cIt8mxZRy5-549" edge="1">
          <mxGeometry relative="1" as="geometry">
            <Array as="points">
              <mxPoint x="1410" y="391" />
              <mxPoint x="1410" y="110" />
            </Array>
          </mxGeometry>
        </mxCell>
        <mxCell id="xPs3qHdYtmF-mURhRglS-5" style="edgeStyle=orthogonalEdgeStyle;rounded=0;orthogonalLoop=1;jettySize=auto;html=1;exitX=1;exitY=0.5;exitDx=0;exitDy=0;endArrow=ERzeroToMany;endFill=0;startArrow=ERzeroToOne;startFill=0;" parent="1" source="SJSmvKwEZ4cIt8mxZRy5-102" target="SJSmvKwEZ4cIt8mxZRy5-560" edge="1">
          <mxGeometry relative="1" as="geometry" />
        </mxCell>
        <mxCell id="xPs3qHdYtmF-mURhRglS-6" style="edgeStyle=orthogonalEdgeStyle;rounded=0;orthogonalLoop=1;jettySize=auto;html=1;exitX=0;exitY=0.5;exitDx=0;exitDy=0;endArrow=ERzeroToMany;endFill=0;startArrow=ERzeroToOne;startFill=0;" parent="1" source="SJSmvKwEZ4cIt8mxZRy5-458" target="SJSmvKwEZ4cIt8mxZRy5-560" edge="1">
          <mxGeometry relative="1" as="geometry">
            <Array as="points">
              <mxPoint x="1410" y="391" />
              <mxPoint x="1410" y="364" />
            </Array>
          </mxGeometry>
        </mxCell>
        <mxCell id="xPs3qHdYtmF-mURhRglS-33" value="cart" style="swimlane;fontStyle=0;childLayout=stackLayout;horizontal=1;startSize=26;fillColor=#F0F0F0;horizontalStack=0;resizeParent=1;resizeParentMax=0;resizeLast=0;collapsible=1;marginBottom=0;swimlaneFillColor=#E5CCFF;align=center;strokeWidth=1;fontSize=13;strokeColor=#000000;rounded=0;" parent="1" vertex="1">
          <mxGeometry x="741" y="524" width="160" height="92" as="geometry" />
        </mxCell>
        <mxCell id="xPs3qHdYtmF-mURhRglS-34" value="id" style="shape=partialRectangle;top=0;left=0;right=0;bottom=1;align=left;verticalAlign=middle;fillColor=none;spacingLeft=34;spacingRight=4;overflow=hidden;rotatable=0;points=[[0,0.5],[1,0.5]];portConstraint=eastwest;dropTarget=0;fontStyle=5;rounded=0;" parent="xPs3qHdYtmF-mURhRglS-33" vertex="1">
          <mxGeometry y="26" width="160" height="30" as="geometry" />
        </mxCell>
        <mxCell id="xPs3qHdYtmF-mURhRglS-35" value="PK" style="shape=partialRectangle;top=0;left=0;bottom=0;fillColor=none;align=left;verticalAlign=middle;spacingLeft=4;spacingRight=4;overflow=hidden;rotatable=0;points=[];portConstraint=eastwest;part=1;fontStyle=1;rounded=0;" parent="xPs3qHdYtmF-mURhRglS-34" vertex="1" connectable="0">
          <mxGeometry width="30" height="30" as="geometry" />
        </mxCell>
        <mxCell id="xPs3qHdYtmF-mURhRglS-36" value="user_id" style="shape=partialRectangle;top=0;left=0;right=0;bottom=0;align=left;verticalAlign=top;fillColor=none;spacingLeft=34;spacingRight=4;overflow=hidden;rotatable=0;points=[[0,0.5],[1,0.5]];portConstraint=eastwest;dropTarget=0;rounded=0;fontStyle=2" parent="xPs3qHdYtmF-mURhRglS-33" vertex="1">
          <mxGeometry y="56" width="160" height="26" as="geometry" />
        </mxCell>
        <mxCell id="xPs3qHdYtmF-mURhRglS-37" value="FK" style="shape=partialRectangle;top=0;left=0;bottom=0;fillColor=none;align=left;verticalAlign=top;spacingLeft=4;spacingRight=4;overflow=hidden;rotatable=0;points=[];portConstraint=eastwest;part=1;rounded=0;" parent="xPs3qHdYtmF-mURhRglS-36" vertex="1" connectable="0">
          <mxGeometry width="30" height="26" as="geometry" />
        </mxCell>
        <mxCell id="xPs3qHdYtmF-mURhRglS-42" value="" style="shape=partialRectangle;top=0;left=0;right=0;bottom=0;align=left;verticalAlign=top;fillColor=none;spacingLeft=34;spacingRight=4;overflow=hidden;rotatable=0;points=[[0,0.5],[1,0.5]];portConstraint=eastwest;dropTarget=0;rounded=0;" parent="xPs3qHdYtmF-mURhRglS-33" vertex="1">
          <mxGeometry y="82" width="160" height="10" as="geometry" />
        </mxCell>
        <mxCell id="xPs3qHdYtmF-mURhRglS-43" value="" style="shape=partialRectangle;top=0;left=0;bottom=0;fillColor=none;align=left;verticalAlign=top;spacingLeft=4;spacingRight=4;overflow=hidden;rotatable=0;points=[];portConstraint=eastwest;part=1;rounded=0;" parent="xPs3qHdYtmF-mURhRglS-42" vertex="1" connectable="0">
          <mxGeometry width="30" height="10" as="geometry" />
        </mxCell>
        <mxCell id="xPs3qHdYtmF-mURhRglS-44" value="cart_item" style="swimlane;fontStyle=0;childLayout=stackLayout;horizontal=1;startSize=26;fillColor=#F0F0F0;horizontalStack=0;resizeParent=1;resizeParentMax=0;resizeLast=0;collapsible=1;marginBottom=0;swimlaneFillColor=#E5CCFF;align=center;strokeWidth=1;fontSize=13;strokeColor=#000000;rounded=0;" parent="1" vertex="1">
          <mxGeometry x="1041" y="496" width="160" height="196" as="geometry" />
        </mxCell>
        <mxCell id="xPs3qHdYtmF-mURhRglS-45" value="id" style="shape=partialRectangle;top=0;left=0;right=0;bottom=1;align=left;verticalAlign=middle;fillColor=none;spacingLeft=34;spacingRight=4;overflow=hidden;rotatable=0;points=[[0,0.5],[1,0.5]];portConstraint=eastwest;dropTarget=0;fontStyle=5;rounded=0;" parent="xPs3qHdYtmF-mURhRglS-44" vertex="1">
          <mxGeometry y="26" width="160" height="30" as="geometry" />
        </mxCell>
        <mxCell id="xPs3qHdYtmF-mURhRglS-46" value="PK" style="shape=partialRectangle;top=0;left=0;bottom=0;fillColor=none;align=left;verticalAlign=middle;spacingLeft=4;spacingRight=4;overflow=hidden;rotatable=0;points=[];portConstraint=eastwest;part=1;fontStyle=1;rounded=0;" parent="xPs3qHdYtmF-mURhRglS-45" vertex="1" connectable="0">
          <mxGeometry width="30" height="30" as="geometry" />
        </mxCell>
        <mxCell id="xPs3qHdYtmF-mURhRglS-47" value="cart_id" style="shape=partialRectangle;top=0;left=0;right=0;bottom=0;align=left;verticalAlign=top;fillColor=none;spacingLeft=34;spacingRight=4;overflow=hidden;rotatable=0;points=[[0,0.5],[1,0.5]];portConstraint=eastwest;dropTarget=0;rounded=0;fontStyle=2" parent="xPs3qHdYtmF-mURhRglS-44" vertex="1">
          <mxGeometry y="56" width="160" height="26" as="geometry" />
        </mxCell>
        <mxCell id="xPs3qHdYtmF-mURhRglS-48" value="FK" style="shape=partialRectangle;top=0;left=0;bottom=0;fillColor=none;align=left;verticalAlign=top;spacingLeft=4;spacingRight=4;overflow=hidden;rotatable=0;points=[];portConstraint=eastwest;part=1;rounded=0;" parent="xPs3qHdYtmF-mURhRglS-47" vertex="1" connectable="0">
          <mxGeometry width="30" height="26" as="geometry" />
        </mxCell>
        <mxCell id="xPs3qHdYtmF-mURhRglS-57" value="quantity" style="shape=partialRectangle;top=0;left=0;right=0;bottom=0;align=left;verticalAlign=top;fillColor=none;spacingLeft=34;spacingRight=4;overflow=hidden;rotatable=0;points=[[0,0.5],[1,0.5]];portConstraint=eastwest;dropTarget=0;rounded=0;fontStyle=0" parent="xPs3qHdYtmF-mURhRglS-44" vertex="1">
          <mxGeometry y="82" width="160" height="26" as="geometry" />
        </mxCell>
        <mxCell id="xPs3qHdYtmF-mURhRglS-58" value="" style="shape=partialRectangle;top=0;left=0;bottom=0;fillColor=none;align=left;verticalAlign=top;spacingLeft=4;spacingRight=4;overflow=hidden;rotatable=0;points=[];portConstraint=eastwest;part=1;rounded=0;" parent="xPs3qHdYtmF-mURhRglS-57" vertex="1" connectable="0">
          <mxGeometry width="30" height="26" as="geometry" />
        </mxCell>
        <mxCell id="xPs3qHdYtmF-mURhRglS-52" value="services_offered_id" style="shape=partialRectangle;top=0;left=0;right=0;bottom=0;align=left;verticalAlign=top;fillColor=none;spacingLeft=34;spacingRight=4;overflow=hidden;rotatable=0;points=[[0,0.5],[1,0.5]];portConstraint=eastwest;dropTarget=0;rounded=0;fontStyle=2" parent="xPs3qHdYtmF-mURhRglS-44" vertex="1">
          <mxGeometry y="108" width="160" height="26" as="geometry" />
        </mxCell>
        <mxCell id="xPs3qHdYtmF-mURhRglS-53" value="FK" style="shape=partialRectangle;top=0;left=0;bottom=0;fillColor=none;align=left;verticalAlign=top;spacingLeft=4;spacingRight=4;overflow=hidden;rotatable=0;points=[];portConstraint=eastwest;part=1;rounded=0;" parent="xPs3qHdYtmF-mURhRglS-52" vertex="1" connectable="0">
          <mxGeometry width="30" height="26" as="geometry" />
        </mxCell>
        <mxCell id="xPs3qHdYtmF-mURhRglS-54" value="vehicle_id" style="shape=partialRectangle;top=0;left=0;right=0;bottom=0;align=left;verticalAlign=top;fillColor=none;spacingLeft=34;spacingRight=4;overflow=hidden;rotatable=0;points=[[0,0.5],[1,0.5]];portConstraint=eastwest;dropTarget=0;rounded=0;fontStyle=2" parent="xPs3qHdYtmF-mURhRglS-44" vertex="1">
          <mxGeometry y="134" width="160" height="26" as="geometry" />
        </mxCell>
        <mxCell id="xPs3qHdYtmF-mURhRglS-55" value="FK" style="shape=partialRectangle;top=0;left=0;bottom=0;fillColor=none;align=left;verticalAlign=top;spacingLeft=4;spacingRight=4;overflow=hidden;rotatable=0;points=[];portConstraint=eastwest;part=1;rounded=0;" parent="xPs3qHdYtmF-mURhRglS-54" vertex="1" connectable="0">
          <mxGeometry width="30" height="26" as="geometry" />
        </mxCell>
        <mxCell id="yQyPxhstI3LtVDyPCECz-81" value="status" style="shape=partialRectangle;top=0;left=0;right=0;bottom=0;align=left;verticalAlign=top;fillColor=none;spacingLeft=34;spacingRight=4;overflow=hidden;rotatable=0;points=[[0,0.5],[1,0.5]];portConstraint=eastwest;dropTarget=0;rounded=0;fontStyle=0" parent="xPs3qHdYtmF-mURhRglS-44" vertex="1">
          <mxGeometry y="160" width="160" height="26" as="geometry" />
        </mxCell>
        <mxCell id="yQyPxhstI3LtVDyPCECz-82" value="" style="shape=partialRectangle;top=0;left=0;bottom=0;fillColor=none;align=left;verticalAlign=top;spacingLeft=4;spacingRight=4;overflow=hidden;rotatable=0;points=[];portConstraint=eastwest;part=1;rounded=0;" parent="yQyPxhstI3LtVDyPCECz-81" vertex="1" connectable="0">
          <mxGeometry width="30" height="26" as="geometry" />
        </mxCell>
        <mxCell id="xPs3qHdYtmF-mURhRglS-49" value="" style="shape=partialRectangle;top=0;left=0;right=0;bottom=0;align=left;verticalAlign=top;fillColor=none;spacingLeft=34;spacingRight=4;overflow=hidden;rotatable=0;points=[[0,0.5],[1,0.5]];portConstraint=eastwest;dropTarget=0;rounded=0;" parent="xPs3qHdYtmF-mURhRglS-44" vertex="1">
          <mxGeometry y="186" width="160" height="10" as="geometry" />
        </mxCell>
        <mxCell id="xPs3qHdYtmF-mURhRglS-50" value="" style="shape=partialRectangle;top=0;left=0;bottom=0;fillColor=none;align=left;verticalAlign=top;spacingLeft=4;spacingRight=4;overflow=hidden;rotatable=0;points=[];portConstraint=eastwest;part=1;rounded=0;" parent="xPs3qHdYtmF-mURhRglS-49" vertex="1" connectable="0">
          <mxGeometry width="30" height="10" as="geometry" />
        </mxCell>
        <mxCell id="xPs3qHdYtmF-mURhRglS-61" style="edgeStyle=orthogonalEdgeStyle;rounded=0;orthogonalLoop=1;jettySize=auto;html=1;endArrow=ERzeroToMany;endFill=0;startArrow=ERmandOne;startFill=0;" parent="1" target="xPs3qHdYtmF-mURhRglS-54" edge="1">
          <mxGeometry relative="1" as="geometry">
            <mxPoint x="560" y="890" as="sourcePoint" />
            <Array as="points">
              <mxPoint x="560" y="643" />
            </Array>
          </mxGeometry>
        </mxCell>
        <mxCell id="xPs3qHdYtmF-mURhRglS-62" style="edgeStyle=orthogonalEdgeStyle;rounded=0;orthogonalLoop=1;jettySize=auto;html=1;exitX=0;exitY=0.5;exitDx=0;exitDy=0;startArrow=ERmandOne;startFill=0;endArrow=ERoneToMany;endFill=0;" parent="1" source="SJSmvKwEZ4cIt8mxZRy5-108" target="xPs3qHdYtmF-mURhRglS-33" edge="1">
          <mxGeometry relative="1" as="geometry" />
        </mxCell>
        <mxCell id="xPs3qHdYtmF-mURhRglS-63" style="edgeStyle=orthogonalEdgeStyle;rounded=0;orthogonalLoop=1;jettySize=auto;html=1;exitX=1;exitY=0.5;exitDx=0;exitDy=0;endArrow=ERzeroToMany;endFill=0;startArrow=ERmandOne;startFill=0;" parent="1" source="xPs3qHdYtmF-mURhRglS-34" target="xPs3qHdYtmF-mURhRglS-47" edge="1">
          <mxGeometry relative="1" as="geometry" />
        </mxCell>
        <mxCell id="xPs3qHdYtmF-mURhRglS-65" style="edgeStyle=orthogonalEdgeStyle;rounded=0;orthogonalLoop=1;jettySize=auto;html=1;startArrow=ERmandOne;startFill=0;endArrow=ERzeroToMany;endFill=0;" parent="1" source="SJSmvKwEZ4cIt8mxZRy5-490" target="xPs3qHdYtmF-mURhRglS-52" edge="1">
          <mxGeometry relative="1" as="geometry">
            <Array as="points">
              <mxPoint x="1710" y="496" />
              <mxPoint x="1710" y="617" />
            </Array>
          </mxGeometry>
        </mxCell>
        <mxCell id="xPs3qHdYtmF-mURhRglS-130" value="mechanic" style="swimlane;fontStyle=1;childLayout=stackLayout;horizontal=1;startSize=26;fillColor=#F0F0F0;horizontalStack=0;resizeParent=1;resizeParentMax=0;resizeLast=0;collapsible=1;marginBottom=0;swimlaneFillColor=#B9E0A5;align=center;strokeWidth=1;fontSize=13;strokeColor=#000000;rounded=0;" parent="1" vertex="1">
          <mxGeometry x="721" y="704" width="160" height="144" as="geometry" />
        </mxCell>
        <mxCell id="xPs3qHdYtmF-mURhRglS-131" value="id" style="shape=partialRectangle;top=0;left=0;right=0;bottom=1;align=left;verticalAlign=middle;fillColor=none;spacingLeft=34;spacingRight=4;overflow=hidden;rotatable=0;points=[[0,0.5],[1,0.5]];portConstraint=eastwest;dropTarget=0;fontStyle=5;rounded=0;" parent="xPs3qHdYtmF-mURhRglS-130" vertex="1">
          <mxGeometry y="26" width="160" height="30" as="geometry" />
        </mxCell>
        <mxCell id="xPs3qHdYtmF-mURhRglS-132" value="PK" style="shape=partialRectangle;top=0;left=0;bottom=0;fillColor=none;align=left;verticalAlign=middle;spacingLeft=4;spacingRight=4;overflow=hidden;rotatable=0;points=[];portConstraint=eastwest;part=1;fontStyle=1;rounded=0;" parent="xPs3qHdYtmF-mURhRglS-131" vertex="1" connectable="0">
          <mxGeometry width="30" height="30" as="geometry" />
        </mxCell>
        <mxCell id="xPs3qHdYtmF-mURhRglS-133" value="shop_location_id" style="shape=partialRectangle;top=0;left=0;right=0;bottom=0;align=left;verticalAlign=top;fillColor=none;spacingLeft=34;spacingRight=4;overflow=hidden;rotatable=0;points=[[0,0.5],[1,0.5]];portConstraint=eastwest;dropTarget=0;rounded=0;fontStyle=2" parent="xPs3qHdYtmF-mURhRglS-130" vertex="1">
          <mxGeometry y="56" width="160" height="26" as="geometry" />
        </mxCell>
        <mxCell id="xPs3qHdYtmF-mURhRglS-134" value="FK" style="shape=partialRectangle;top=0;left=0;bottom=0;fillColor=none;align=left;verticalAlign=top;spacingLeft=4;spacingRight=4;overflow=hidden;rotatable=0;points=[];portConstraint=eastwest;part=1;rounded=0;" parent="xPs3qHdYtmF-mURhRglS-133" vertex="1" connectable="0">
          <mxGeometry width="30" height="26" as="geometry" />
        </mxCell>
        <mxCell id="xPs3qHdYtmF-mURhRglS-137" value="role" style="shape=partialRectangle;top=0;left=0;right=0;bottom=0;align=left;verticalAlign=top;fillColor=none;spacingLeft=34;spacingRight=4;overflow=hidden;rotatable=0;points=[[0,0.5],[1,0.5]];portConstraint=eastwest;dropTarget=0;rounded=0;fontStyle=0" parent="xPs3qHdYtmF-mURhRglS-130" vertex="1">
          <mxGeometry y="82" width="160" height="26" as="geometry" />
        </mxCell>
        <mxCell id="xPs3qHdYtmF-mURhRglS-138" value="" style="shape=partialRectangle;top=0;left=0;bottom=0;fillColor=none;align=left;verticalAlign=top;spacingLeft=4;spacingRight=4;overflow=hidden;rotatable=0;points=[];portConstraint=eastwest;part=1;rounded=0;" parent="xPs3qHdYtmF-mURhRglS-137" vertex="1" connectable="0">
          <mxGeometry width="30" height="26" as="geometry" />
        </mxCell>
        <mxCell id="xPs3qHdYtmF-mURhRglS-139" value="status" style="shape=partialRectangle;top=0;left=0;right=0;bottom=0;align=left;verticalAlign=top;fillColor=none;spacingLeft=34;spacingRight=4;overflow=hidden;rotatable=0;points=[[0,0.5],[1,0.5]];portConstraint=eastwest;dropTarget=0;rounded=0;fontStyle=0" parent="xPs3qHdYtmF-mURhRglS-130" vertex="1">
          <mxGeometry y="108" width="160" height="26" as="geometry" />
        </mxCell>
        <mxCell id="xPs3qHdYtmF-mURhRglS-140" value="" style="shape=partialRectangle;top=0;left=0;bottom=0;fillColor=none;align=left;verticalAlign=top;spacingLeft=4;spacingRight=4;overflow=hidden;rotatable=0;points=[];portConstraint=eastwest;part=1;rounded=0;" parent="xPs3qHdYtmF-mURhRglS-139" vertex="1" connectable="0">
          <mxGeometry width="30" height="26" as="geometry" />
        </mxCell>
        <mxCell id="xPs3qHdYtmF-mURhRglS-135" value="" style="shape=partialRectangle;top=0;left=0;right=0;bottom=0;align=left;verticalAlign=top;fillColor=none;spacingLeft=34;spacingRight=4;overflow=hidden;rotatable=0;points=[[0,0.5],[1,0.5]];portConstraint=eastwest;dropTarget=0;rounded=0;" parent="xPs3qHdYtmF-mURhRglS-130" vertex="1">
          <mxGeometry y="134" width="160" height="10" as="geometry" />
        </mxCell>
        <mxCell id="xPs3qHdYtmF-mURhRglS-136" value="" style="shape=partialRectangle;top=0;left=0;bottom=0;fillColor=none;align=left;verticalAlign=top;spacingLeft=4;spacingRight=4;overflow=hidden;rotatable=0;points=[];portConstraint=eastwest;part=1;rounded=0;" parent="xPs3qHdYtmF-mURhRglS-135" vertex="1" connectable="0">
          <mxGeometry width="30" height="10" as="geometry" />
        </mxCell>
        <mxCell id="xPs3qHdYtmF-mURhRglS-190" style="rounded=0;orthogonalLoop=1;jettySize=auto;html=1;endArrow=none;endFill=0;dashed=1;" parent="1" source="xPs3qHdYtmF-mURhRglS-141" edge="1">
          <mxGeometry relative="1" as="geometry">
            <mxPoint x="800" y="902" as="targetPoint" />
          </mxGeometry>
        </mxCell>
        <mxCell id="xPs3qHdYtmF-mURhRglS-141" value="emergency_response" style="swimlane;fontStyle=1;childLayout=stackLayout;horizontal=1;startSize=26;fillColor=#F0F0F0;horizontalStack=0;resizeParent=1;resizeParentMax=0;resizeLast=0;collapsible=1;marginBottom=0;swimlaneFillColor=#B9E0A5;align=center;strokeWidth=1;fontSize=13;strokeColor=#000000;rounded=0;" parent="1" vertex="1">
          <mxGeometry x="1010" y="830" width="200" height="144" as="geometry" />
        </mxCell>
        <mxCell id="xPs3qHdYtmF-mURhRglS-142" value="id" style="shape=partialRectangle;top=0;left=0;right=0;bottom=1;align=left;verticalAlign=middle;fillColor=none;spacingLeft=34;spacingRight=4;overflow=hidden;rotatable=0;points=[[0,0.5],[1,0.5]];portConstraint=eastwest;dropTarget=0;fontStyle=5;rounded=0;" parent="xPs3qHdYtmF-mURhRglS-141" vertex="1">
          <mxGeometry y="26" width="200" height="30" as="geometry" />
        </mxCell>
        <mxCell id="xPs3qHdYtmF-mURhRglS-143" value="PK" style="shape=partialRectangle;top=0;left=0;bottom=0;fillColor=none;align=left;verticalAlign=middle;spacingLeft=4;spacingRight=4;overflow=hidden;rotatable=0;points=[];portConstraint=eastwest;part=1;fontStyle=1;rounded=0;" parent="xPs3qHdYtmF-mURhRglS-142" vertex="1" connectable="0">
          <mxGeometry width="30" height="30" as="geometry" />
        </mxCell>
        <mxCell id="xPs3qHdYtmF-mURhRglS-144" value="mechanic_id" style="shape=partialRectangle;top=0;left=0;right=0;bottom=0;align=left;verticalAlign=top;fillColor=none;spacingLeft=34;spacingRight=4;overflow=hidden;rotatable=0;points=[[0,0.5],[1,0.5]];portConstraint=eastwest;dropTarget=0;rounded=0;fontStyle=2" parent="xPs3qHdYtmF-mURhRglS-141" vertex="1">
          <mxGeometry y="56" width="200" height="26" as="geometry" />
        </mxCell>
        <mxCell id="xPs3qHdYtmF-mURhRglS-145" value="FK" style="shape=partialRectangle;top=0;left=0;bottom=0;fillColor=none;align=left;verticalAlign=top;spacingLeft=4;spacingRight=4;overflow=hidden;rotatable=0;points=[];portConstraint=eastwest;part=1;rounded=0;" parent="xPs3qHdYtmF-mURhRglS-144" vertex="1" connectable="0">
          <mxGeometry width="30" height="26" as="geometry" />
        </mxCell>
        <mxCell id="xPs3qHdYtmF-mURhRglS-146" value="emergency_request_id" style="shape=partialRectangle;top=0;left=0;right=0;bottom=0;align=left;verticalAlign=top;fillColor=none;spacingLeft=34;spacingRight=4;overflow=hidden;rotatable=0;points=[[0,0.5],[1,0.5]];portConstraint=eastwest;dropTarget=0;rounded=0;fontStyle=2" parent="xPs3qHdYtmF-mURhRglS-141" vertex="1">
          <mxGeometry y="82" width="200" height="26" as="geometry" />
        </mxCell>
        <mxCell id="xPs3qHdYtmF-mURhRglS-147" value="FK" style="shape=partialRectangle;top=0;left=0;bottom=0;fillColor=none;align=left;verticalAlign=top;spacingLeft=4;spacingRight=4;overflow=hidden;rotatable=0;points=[];portConstraint=eastwest;part=1;rounded=0;" parent="xPs3qHdYtmF-mURhRglS-146" vertex="1" connectable="0">
          <mxGeometry width="30" height="26" as="geometry" />
        </mxCell>
        <mxCell id="xPs3qHdYtmF-mURhRglS-148" value="assigned_at" style="shape=partialRectangle;top=0;left=0;right=0;bottom=0;align=left;verticalAlign=top;fillColor=none;spacingLeft=34;spacingRight=4;overflow=hidden;rotatable=0;points=[[0,0.5],[1,0.5]];portConstraint=eastwest;dropTarget=0;rounded=0;fontStyle=0" parent="xPs3qHdYtmF-mURhRglS-141" vertex="1">
          <mxGeometry y="108" width="200" height="26" as="geometry" />
        </mxCell>
        <mxCell id="xPs3qHdYtmF-mURhRglS-149" value="" style="shape=partialRectangle;top=0;left=0;bottom=0;fillColor=none;align=left;verticalAlign=top;spacingLeft=4;spacingRight=4;overflow=hidden;rotatable=0;points=[];portConstraint=eastwest;part=1;rounded=0;" parent="xPs3qHdYtmF-mURhRglS-148" vertex="1" connectable="0">
          <mxGeometry width="30" height="26" as="geometry" />
        </mxCell>
        <mxCell id="xPs3qHdYtmF-mURhRglS-150" value="" style="shape=partialRectangle;top=0;left=0;right=0;bottom=0;align=left;verticalAlign=top;fillColor=none;spacingLeft=34;spacingRight=4;overflow=hidden;rotatable=0;points=[[0,0.5],[1,0.5]];portConstraint=eastwest;dropTarget=0;rounded=0;" parent="xPs3qHdYtmF-mURhRglS-141" vertex="1">
          <mxGeometry y="134" width="200" height="10" as="geometry" />
        </mxCell>
        <mxCell id="xPs3qHdYtmF-mURhRglS-151" value="" style="shape=partialRectangle;top=0;left=0;bottom=0;fillColor=none;align=left;verticalAlign=top;spacingLeft=4;spacingRight=4;overflow=hidden;rotatable=0;points=[];portConstraint=eastwest;part=1;rounded=0;" parent="xPs3qHdYtmF-mURhRglS-150" vertex="1" connectable="0">
          <mxGeometry width="30" height="10" as="geometry" />
        </mxCell>
        <mxCell id="xPs3qHdYtmF-mURhRglS-187" style="edgeStyle=orthogonalEdgeStyle;rounded=0;orthogonalLoop=1;jettySize=auto;html=1;endArrow=ERoneToMany;endFill=0;startArrow=ERone;startFill=0;" parent="1" source="xPs3qHdYtmF-mURhRglS-152" target="xPs3qHdYtmF-mURhRglS-163" edge="1">
          <mxGeometry relative="1" as="geometry" />
        </mxCell>
        <mxCell id="xPs3qHdYtmF-mURhRglS-152" value="energency_type" style="swimlane;fontStyle=1;childLayout=stackLayout;horizontal=1;startSize=26;fillColor=#F0F0F0;horizontalStack=0;resizeParent=1;resizeParentMax=0;resizeLast=0;collapsible=1;marginBottom=0;swimlaneFillColor=#B9E0A5;align=center;strokeWidth=1;fontSize=13;strokeColor=#000000;rounded=0;" parent="1" vertex="1">
          <mxGeometry x="701" y="1270" width="200" height="144" as="geometry" />
        </mxCell>
        <mxCell id="xPs3qHdYtmF-mURhRglS-153" value="id" style="shape=partialRectangle;top=0;left=0;right=0;bottom=1;align=left;verticalAlign=middle;fillColor=none;spacingLeft=34;spacingRight=4;overflow=hidden;rotatable=0;points=[[0,0.5],[1,0.5]];portConstraint=eastwest;dropTarget=0;fontStyle=5;rounded=0;" parent="xPs3qHdYtmF-mURhRglS-152" vertex="1">
          <mxGeometry y="26" width="200" height="30" as="geometry" />
        </mxCell>
        <mxCell id="xPs3qHdYtmF-mURhRglS-154" value="PK" style="shape=partialRectangle;top=0;left=0;bottom=0;fillColor=none;align=left;verticalAlign=middle;spacingLeft=4;spacingRight=4;overflow=hidden;rotatable=0;points=[];portConstraint=eastwest;part=1;fontStyle=1;rounded=0;" parent="xPs3qHdYtmF-mURhRglS-153" vertex="1" connectable="0">
          <mxGeometry width="30" height="30" as="geometry" />
        </mxCell>
        <mxCell id="xPs3qHdYtmF-mURhRglS-155" value="name" style="shape=partialRectangle;top=0;left=0;right=0;bottom=0;align=left;verticalAlign=top;fillColor=none;spacingLeft=34;spacingRight=4;overflow=hidden;rotatable=0;points=[[0,0.5],[1,0.5]];portConstraint=eastwest;dropTarget=0;rounded=0;fontStyle=0" parent="xPs3qHdYtmF-mURhRglS-152" vertex="1">
          <mxGeometry y="56" width="200" height="26" as="geometry" />
        </mxCell>
        <mxCell id="xPs3qHdYtmF-mURhRglS-156" value="" style="shape=partialRectangle;top=0;left=0;bottom=0;fillColor=none;align=left;verticalAlign=top;spacingLeft=4;spacingRight=4;overflow=hidden;rotatable=0;points=[];portConstraint=eastwest;part=1;rounded=0;" parent="xPs3qHdYtmF-mURhRglS-155" vertex="1" connectable="0">
          <mxGeometry width="30" height="26" as="geometry" />
        </mxCell>
        <mxCell id="xPs3qHdYtmF-mURhRglS-157" value="description" style="shape=partialRectangle;top=0;left=0;right=0;bottom=0;align=left;verticalAlign=top;fillColor=none;spacingLeft=34;spacingRight=4;overflow=hidden;rotatable=0;points=[[0,0.5],[1,0.5]];portConstraint=eastwest;dropTarget=0;rounded=0;fontStyle=0" parent="xPs3qHdYtmF-mURhRglS-152" vertex="1">
          <mxGeometry y="82" width="200" height="26" as="geometry" />
        </mxCell>
        <mxCell id="xPs3qHdYtmF-mURhRglS-158" value="" style="shape=partialRectangle;top=0;left=0;bottom=0;fillColor=none;align=left;verticalAlign=top;spacingLeft=4;spacingRight=4;overflow=hidden;rotatable=0;points=[];portConstraint=eastwest;part=1;rounded=0;" parent="xPs3qHdYtmF-mURhRglS-157" vertex="1" connectable="0">
          <mxGeometry width="30" height="26" as="geometry" />
        </mxCell>
        <mxCell id="xPs3qHdYtmF-mURhRglS-159" value="is_active" style="shape=partialRectangle;top=0;left=0;right=0;bottom=0;align=left;verticalAlign=top;fillColor=none;spacingLeft=34;spacingRight=4;overflow=hidden;rotatable=0;points=[[0,0.5],[1,0.5]];portConstraint=eastwest;dropTarget=0;rounded=0;fontStyle=0" parent="xPs3qHdYtmF-mURhRglS-152" vertex="1">
          <mxGeometry y="108" width="200" height="26" as="geometry" />
        </mxCell>
        <mxCell id="xPs3qHdYtmF-mURhRglS-160" value="" style="shape=partialRectangle;top=0;left=0;bottom=0;fillColor=none;align=left;verticalAlign=top;spacingLeft=4;spacingRight=4;overflow=hidden;rotatable=0;points=[];portConstraint=eastwest;part=1;rounded=0;" parent="xPs3qHdYtmF-mURhRglS-159" vertex="1" connectable="0">
          <mxGeometry width="30" height="26" as="geometry" />
        </mxCell>
        <mxCell id="xPs3qHdYtmF-mURhRglS-161" value="" style="shape=partialRectangle;top=0;left=0;right=0;bottom=0;align=left;verticalAlign=top;fillColor=none;spacingLeft=34;spacingRight=4;overflow=hidden;rotatable=0;points=[[0,0.5],[1,0.5]];portConstraint=eastwest;dropTarget=0;rounded=0;" parent="xPs3qHdYtmF-mURhRglS-152" vertex="1">
          <mxGeometry y="134" width="200" height="10" as="geometry" />
        </mxCell>
        <mxCell id="xPs3qHdYtmF-mURhRglS-162" value="" style="shape=partialRectangle;top=0;left=0;bottom=0;fillColor=none;align=left;verticalAlign=top;spacingLeft=4;spacingRight=4;overflow=hidden;rotatable=0;points=[];portConstraint=eastwest;part=1;rounded=0;" parent="xPs3qHdYtmF-mURhRglS-161" vertex="1" connectable="0">
          <mxGeometry width="30" height="10" as="geometry" />
        </mxCell>
        <mxCell id="xPs3qHdYtmF-mURhRglS-163" value="emergency_request" style="swimlane;fontStyle=1;childLayout=stackLayout;horizontal=1;startSize=26;fillColor=#F0F0F0;horizontalStack=0;resizeParent=1;resizeParentMax=0;resizeLast=0;collapsible=1;marginBottom=0;swimlaneFillColor=#B9E0A5;align=center;strokeWidth=1;fontSize=13;strokeColor=#000000;rounded=0;" parent="1" vertex="1">
          <mxGeometry x="701" y="950" width="200" height="274" as="geometry" />
        </mxCell>
        <mxCell id="xPs3qHdYtmF-mURhRglS-164" value="id" style="shape=partialRectangle;top=0;left=0;right=0;bottom=1;align=left;verticalAlign=middle;fillColor=none;spacingLeft=34;spacingRight=4;overflow=hidden;rotatable=0;points=[[0,0.5],[1,0.5]];portConstraint=eastwest;dropTarget=0;fontStyle=5;rounded=0;" parent="xPs3qHdYtmF-mURhRglS-163" vertex="1">
          <mxGeometry y="26" width="200" height="30" as="geometry" />
        </mxCell>
        <mxCell id="xPs3qHdYtmF-mURhRglS-165" value="PK" style="shape=partialRectangle;top=0;left=0;bottom=0;fillColor=none;align=left;verticalAlign=middle;spacingLeft=4;spacingRight=4;overflow=hidden;rotatable=0;points=[];portConstraint=eastwest;part=1;fontStyle=1;rounded=0;" parent="xPs3qHdYtmF-mURhRglS-164" vertex="1" connectable="0">
          <mxGeometry width="30" height="30" as="geometry" />
        </mxCell>
        <mxCell id="xPs3qHdYtmF-mURhRglS-166" value="user_id" style="shape=partialRectangle;top=0;left=0;right=0;bottom=0;align=left;verticalAlign=top;fillColor=none;spacingLeft=34;spacingRight=4;overflow=hidden;rotatable=0;points=[[0,0.5],[1,0.5]];portConstraint=eastwest;dropTarget=0;rounded=0;fontStyle=2" parent="xPs3qHdYtmF-mURhRglS-163" vertex="1">
          <mxGeometry y="56" width="200" height="26" as="geometry" />
        </mxCell>
        <mxCell id="xPs3qHdYtmF-mURhRglS-167" value="FK" style="shape=partialRectangle;top=0;left=0;bottom=0;fillColor=none;align=left;verticalAlign=top;spacingLeft=4;spacingRight=4;overflow=hidden;rotatable=0;points=[];portConstraint=eastwest;part=1;rounded=0;" parent="xPs3qHdYtmF-mURhRglS-166" vertex="1" connectable="0">
          <mxGeometry width="30" height="26" as="geometry" />
        </mxCell>
        <mxCell id="xPs3qHdYtmF-mURhRglS-175" value="anon_user_id" style="shape=partialRectangle;top=0;left=0;right=0;bottom=0;align=left;verticalAlign=top;fillColor=none;spacingLeft=34;spacingRight=4;overflow=hidden;rotatable=0;points=[[0,0.5],[1,0.5]];portConstraint=eastwest;dropTarget=0;rounded=0;fontStyle=2" parent="xPs3qHdYtmF-mURhRglS-163" vertex="1">
          <mxGeometry y="82" width="200" height="26" as="geometry" />
        </mxCell>
        <mxCell id="xPs3qHdYtmF-mURhRglS-176" value="" style="shape=partialRectangle;top=0;left=0;bottom=0;fillColor=none;align=left;verticalAlign=top;spacingLeft=4;spacingRight=4;overflow=hidden;rotatable=0;points=[];portConstraint=eastwest;part=1;rounded=0;" parent="xPs3qHdYtmF-mURhRglS-175" vertex="1" connectable="0">
          <mxGeometry width="30" height="26" as="geometry" />
        </mxCell>
        <mxCell id="xPs3qHdYtmF-mURhRglS-168" value="coordinates" style="shape=partialRectangle;top=0;left=0;right=0;bottom=0;align=left;verticalAlign=top;fillColor=none;spacingLeft=34;spacingRight=4;overflow=hidden;rotatable=0;points=[[0,0.5],[1,0.5]];portConstraint=eastwest;dropTarget=0;rounded=0;fontStyle=2" parent="xPs3qHdYtmF-mURhRglS-163" vertex="1">
          <mxGeometry y="108" width="200" height="26" as="geometry" />
        </mxCell>
        <mxCell id="xPs3qHdYtmF-mURhRglS-169" value="" style="shape=partialRectangle;top=0;left=0;bottom=0;fillColor=none;align=left;verticalAlign=top;spacingLeft=4;spacingRight=4;overflow=hidden;rotatable=0;points=[];portConstraint=eastwest;part=1;rounded=0;" parent="xPs3qHdYtmF-mURhRglS-168" vertex="1" connectable="0">
          <mxGeometry width="30" height="26" as="geometry" />
        </mxCell>
        <mxCell id="xPs3qHdYtmF-mURhRglS-170" value="phone_no" style="shape=partialRectangle;top=0;left=0;right=0;bottom=0;align=left;verticalAlign=top;fillColor=none;spacingLeft=34;spacingRight=4;overflow=hidden;rotatable=0;points=[[0,0.5],[1,0.5]];portConstraint=eastwest;dropTarget=0;rounded=0;fontStyle=0" parent="xPs3qHdYtmF-mURhRglS-163" vertex="1">
          <mxGeometry y="134" width="200" height="26" as="geometry" />
        </mxCell>
        <mxCell id="xPs3qHdYtmF-mURhRglS-171" value="" style="shape=partialRectangle;top=0;left=0;bottom=0;fillColor=none;align=left;verticalAlign=top;spacingLeft=4;spacingRight=4;overflow=hidden;rotatable=0;points=[];portConstraint=eastwest;part=1;rounded=0;" parent="xPs3qHdYtmF-mURhRglS-170" vertex="1" connectable="0">
          <mxGeometry width="30" height="26" as="geometry" />
        </mxCell>
        <mxCell id="xPs3qHdYtmF-mURhRglS-179" value="description" style="shape=partialRectangle;top=0;left=0;right=0;bottom=0;align=left;verticalAlign=top;fillColor=none;spacingLeft=34;spacingRight=4;overflow=hidden;rotatable=0;points=[[0,0.5],[1,0.5]];portConstraint=eastwest;dropTarget=0;rounded=0;fontStyle=0" parent="xPs3qHdYtmF-mURhRglS-163" vertex="1">
          <mxGeometry y="160" width="200" height="26" as="geometry" />
        </mxCell>
        <mxCell id="xPs3qHdYtmF-mURhRglS-180" value="" style="shape=partialRectangle;top=0;left=0;bottom=0;fillColor=none;align=left;verticalAlign=top;spacingLeft=4;spacingRight=4;overflow=hidden;rotatable=0;points=[];portConstraint=eastwest;part=1;rounded=0;" parent="xPs3qHdYtmF-mURhRglS-179" vertex="1" connectable="0">
          <mxGeometry width="30" height="26" as="geometry" />
        </mxCell>
        <mxCell id="xPs3qHdYtmF-mURhRglS-199" value="status" style="shape=partialRectangle;top=0;left=0;right=0;bottom=0;align=left;verticalAlign=top;fillColor=none;spacingLeft=34;spacingRight=4;overflow=hidden;rotatable=0;points=[[0,0.5],[1,0.5]];portConstraint=eastwest;dropTarget=0;rounded=0;fontStyle=0" parent="xPs3qHdYtmF-mURhRglS-163" vertex="1">
          <mxGeometry y="186" width="200" height="26" as="geometry" />
        </mxCell>
        <mxCell id="xPs3qHdYtmF-mURhRglS-200" value="" style="shape=partialRectangle;top=0;left=0;bottom=0;fillColor=none;align=left;verticalAlign=top;spacingLeft=4;spacingRight=4;overflow=hidden;rotatable=0;points=[];portConstraint=eastwest;part=1;rounded=0;" parent="xPs3qHdYtmF-mURhRglS-199" vertex="1" connectable="0">
          <mxGeometry width="30" height="26" as="geometry" />
        </mxCell>
        <mxCell id="xPs3qHdYtmF-mURhRglS-181" value="message_id" style="shape=partialRectangle;top=0;left=0;right=0;bottom=0;align=left;verticalAlign=top;fillColor=none;spacingLeft=34;spacingRight=4;overflow=hidden;rotatable=0;points=[[0,0.5],[1,0.5]];portConstraint=eastwest;dropTarget=0;rounded=0;fontStyle=0" parent="xPs3qHdYtmF-mURhRglS-163" vertex="1">
          <mxGeometry y="212" width="200" height="26" as="geometry" />
        </mxCell>
        <mxCell id="xPs3qHdYtmF-mURhRglS-182" value="FK" style="shape=partialRectangle;top=0;left=0;bottom=0;fillColor=none;align=left;verticalAlign=top;spacingLeft=4;spacingRight=4;overflow=hidden;rotatable=0;points=[];portConstraint=eastwest;part=1;rounded=0;" parent="xPs3qHdYtmF-mURhRglS-181" vertex="1" connectable="0">
          <mxGeometry width="30" height="26" as="geometry" />
        </mxCell>
        <mxCell id="xPs3qHdYtmF-mURhRglS-185" value="EmergencyTypeID" style="shape=partialRectangle;top=0;left=0;right=0;bottom=0;align=left;verticalAlign=top;fillColor=none;spacingLeft=34;spacingRight=4;overflow=hidden;rotatable=0;points=[[0,0.5],[1,0.5]];portConstraint=eastwest;dropTarget=0;rounded=0;fontStyle=0" parent="xPs3qHdYtmF-mURhRglS-163" vertex="1">
          <mxGeometry y="238" width="200" height="26" as="geometry" />
        </mxCell>
        <mxCell id="xPs3qHdYtmF-mURhRglS-186" value="FK" style="shape=partialRectangle;top=0;left=0;bottom=0;fillColor=none;align=left;verticalAlign=top;spacingLeft=4;spacingRight=4;overflow=hidden;rotatable=0;points=[];portConstraint=eastwest;part=1;rounded=0;" parent="xPs3qHdYtmF-mURhRglS-185" vertex="1" connectable="0">
          <mxGeometry width="30" height="26" as="geometry" />
        </mxCell>
        <mxCell id="xPs3qHdYtmF-mURhRglS-172" value="" style="shape=partialRectangle;top=0;left=0;right=0;bottom=0;align=left;verticalAlign=top;fillColor=none;spacingLeft=34;spacingRight=4;overflow=hidden;rotatable=0;points=[[0,0.5],[1,0.5]];portConstraint=eastwest;dropTarget=0;rounded=0;" parent="xPs3qHdYtmF-mURhRglS-163" vertex="1">
          <mxGeometry y="264" width="200" height="10" as="geometry" />
        </mxCell>
        <mxCell id="xPs3qHdYtmF-mURhRglS-173" value="" style="shape=partialRectangle;top=0;left=0;bottom=0;fillColor=none;align=left;verticalAlign=top;spacingLeft=4;spacingRight=4;overflow=hidden;rotatable=0;points=[];portConstraint=eastwest;part=1;rounded=0;" parent="xPs3qHdYtmF-mURhRglS-172" vertex="1" connectable="0">
          <mxGeometry width="30" height="10" as="geometry" />
        </mxCell>
        <mxCell id="xPs3qHdYtmF-mURhRglS-188" value="" style="fontSize=12;html=1;endArrow=ERoneToMany;startArrow=ERzeroToMany;rounded=0;" parent="1" source="xPs3qHdYtmF-mURhRglS-163" target="xPs3qHdYtmF-mURhRglS-130" edge="1">
          <mxGeometry width="100" height="100" relative="1" as="geometry">
            <mxPoint x="990" y="1140" as="sourcePoint" />
            <mxPoint x="1090" y="1040" as="targetPoint" />
          </mxGeometry>
        </mxCell>
        <mxCell id="xPs3qHdYtmF-mURhRglS-191" style="edgeStyle=orthogonalEdgeStyle;rounded=0;orthogonalLoop=1;jettySize=auto;html=1;exitX=1;exitY=0.5;exitDx=0;exitDy=0;endArrow=ERmandOne;endFill=0;startArrow=ERoneToMany;startFill=0;" parent="1" source="xPs3qHdYtmF-mURhRglS-133" target="SJSmvKwEZ4cIt8mxZRy5-457" edge="1">
          <mxGeometry relative="1" as="geometry" />
        </mxCell>
        <mxCell id="xPs3qHdYtmF-mURhRglS-251" value="task_details" style="swimlane;fontStyle=1;childLayout=stackLayout;horizontal=1;startSize=26;fillColor=#F0F0F0;horizontalStack=0;resizeParent=1;resizeParentMax=0;resizeLast=0;collapsible=1;marginBottom=0;swimlaneFillColor=#B9E0A5;align=center;strokeWidth=1;fontSize=13;strokeColor=#000000;rounded=0;" parent="1" vertex="1">
          <mxGeometry x="1010" y="1300" width="200" height="144" as="geometry" />
        </mxCell>
        <mxCell id="xPs3qHdYtmF-mURhRglS-252" value="id" style="shape=partialRectangle;top=0;left=0;right=0;bottom=1;align=left;verticalAlign=middle;fillColor=none;spacingLeft=34;spacingRight=4;overflow=hidden;rotatable=0;points=[[0,0.5],[1,0.5]];portConstraint=eastwest;dropTarget=0;fontStyle=5;rounded=0;" parent="xPs3qHdYtmF-mURhRglS-251" vertex="1">
          <mxGeometry y="26" width="200" height="30" as="geometry" />
        </mxCell>
        <mxCell id="xPs3qHdYtmF-mURhRglS-253" value="PK" style="shape=partialRectangle;top=0;left=0;bottom=0;fillColor=none;align=left;verticalAlign=middle;spacingLeft=4;spacingRight=4;overflow=hidden;rotatable=0;points=[];portConstraint=eastwest;part=1;fontStyle=1;rounded=0;" parent="xPs3qHdYtmF-mURhRglS-252" vertex="1" connectable="0">
          <mxGeometry width="30" height="30" as="geometry" />
        </mxCell>
        <mxCell id="xPs3qHdYtmF-mURhRglS-254" value="service_request_id" style="shape=partialRectangle;top=0;left=0;right=0;bottom=0;align=left;verticalAlign=top;fillColor=none;spacingLeft=34;spacingRight=4;overflow=hidden;rotatable=0;points=[[0,0.5],[1,0.5]];portConstraint=eastwest;dropTarget=0;rounded=0;fontStyle=2" parent="xPs3qHdYtmF-mURhRglS-251" vertex="1">
          <mxGeometry y="56" width="200" height="26" as="geometry" />
        </mxCell>
        <mxCell id="xPs3qHdYtmF-mURhRglS-255" value="FK" style="shape=partialRectangle;top=0;left=0;bottom=0;fillColor=none;align=left;verticalAlign=top;spacingLeft=4;spacingRight=4;overflow=hidden;rotatable=0;points=[];portConstraint=eastwest;part=1;rounded=0;" parent="xPs3qHdYtmF-mURhRglS-254" vertex="1" connectable="0">
          <mxGeometry width="30" height="26" as="geometry" />
        </mxCell>
        <mxCell id="xPs3qHdYtmF-mURhRglS-256" value="note" style="shape=partialRectangle;top=0;left=0;right=0;bottom=0;align=left;verticalAlign=top;fillColor=none;spacingLeft=34;spacingRight=4;overflow=hidden;rotatable=0;points=[[0,0.5],[1,0.5]];portConstraint=eastwest;dropTarget=0;rounded=0;fontStyle=0" parent="xPs3qHdYtmF-mURhRglS-251" vertex="1">
          <mxGeometry y="82" width="200" height="26" as="geometry" />
        </mxCell>
        <mxCell id="xPs3qHdYtmF-mURhRglS-257" value="" style="shape=partialRectangle;top=0;left=0;bottom=0;fillColor=none;align=left;verticalAlign=top;spacingLeft=4;spacingRight=4;overflow=hidden;rotatable=0;points=[];portConstraint=eastwest;part=1;rounded=0;" parent="xPs3qHdYtmF-mURhRglS-256" vertex="1" connectable="0">
          <mxGeometry width="30" height="26" as="geometry" />
        </mxCell>
        <mxCell id="xPs3qHdYtmF-mURhRglS-258" value="instruction" style="shape=partialRectangle;top=0;left=0;right=0;bottom=0;align=left;verticalAlign=top;fillColor=none;spacingLeft=34;spacingRight=4;overflow=hidden;rotatable=0;points=[[0,0.5],[1,0.5]];portConstraint=eastwest;dropTarget=0;rounded=0;fontStyle=0" parent="xPs3qHdYtmF-mURhRglS-251" vertex="1">
          <mxGeometry y="108" width="200" height="26" as="geometry" />
        </mxCell>
        <mxCell id="xPs3qHdYtmF-mURhRglS-259" value="" style="shape=partialRectangle;top=0;left=0;bottom=0;fillColor=none;align=left;verticalAlign=top;spacingLeft=4;spacingRight=4;overflow=hidden;rotatable=0;points=[];portConstraint=eastwest;part=1;rounded=0;" parent="xPs3qHdYtmF-mURhRglS-258" vertex="1" connectable="0">
          <mxGeometry width="30" height="26" as="geometry" />
        </mxCell>
        <mxCell id="xPs3qHdYtmF-mURhRglS-260" value="" style="shape=partialRectangle;top=0;left=0;right=0;bottom=0;align=left;verticalAlign=top;fillColor=none;spacingLeft=34;spacingRight=4;overflow=hidden;rotatable=0;points=[[0,0.5],[1,0.5]];portConstraint=eastwest;dropTarget=0;rounded=0;" parent="xPs3qHdYtmF-mURhRglS-251" vertex="1">
          <mxGeometry y="134" width="200" height="10" as="geometry" />
        </mxCell>
        <mxCell id="xPs3qHdYtmF-mURhRglS-261" value="" style="shape=partialRectangle;top=0;left=0;bottom=0;fillColor=none;align=left;verticalAlign=top;spacingLeft=4;spacingRight=4;overflow=hidden;rotatable=0;points=[];portConstraint=eastwest;part=1;rounded=0;" parent="xPs3qHdYtmF-mURhRglS-260" vertex="1" connectable="0">
          <mxGeometry width="30" height="10" as="geometry" />
        </mxCell>
        <mxCell id="xPs3qHdYtmF-mURhRglS-303" style="edgeStyle=orthogonalEdgeStyle;rounded=0;orthogonalLoop=1;jettySize=auto;html=1;exitX=0.5;exitY=0;exitDx=0;exitDy=0;endArrow=ERoneToMany;endFill=0;startArrow=ERmandOne;startFill=0;" parent="1" source="xPs3qHdYtmF-mURhRglS-262" target="xPs3qHdYtmF-mURhRglS-281" edge="1">
          <mxGeometry relative="1" as="geometry" />
        </mxCell>
        <mxCell id="xPs3qHdYtmF-mURhRglS-262" value="service_request" style="swimlane;fontStyle=1;childLayout=stackLayout;horizontal=1;startSize=26;fillColor=#F0F0F0;horizontalStack=0;resizeParent=1;resizeParentMax=0;resizeLast=0;collapsible=1;marginBottom=0;swimlaneFillColor=#B9E0A5;align=center;strokeWidth=1;fontSize=13;strokeColor=#000000;rounded=0;" parent="1" vertex="1">
          <mxGeometry x="1345" y="1030" width="200" height="170" as="geometry" />
        </mxCell>
        <mxCell id="xPs3qHdYtmF-mURhRglS-263" value="id" style="shape=partialRectangle;top=0;left=0;right=0;bottom=1;align=left;verticalAlign=middle;fillColor=none;spacingLeft=34;spacingRight=4;overflow=hidden;rotatable=0;points=[[0,0.5],[1,0.5]];portConstraint=eastwest;dropTarget=0;fontStyle=5;rounded=0;" parent="xPs3qHdYtmF-mURhRglS-262" vertex="1">
          <mxGeometry y="26" width="200" height="30" as="geometry" />
        </mxCell>
        <mxCell id="xPs3qHdYtmF-mURhRglS-264" value="PK" style="shape=partialRectangle;top=0;left=0;bottom=0;fillColor=none;align=left;verticalAlign=middle;spacingLeft=4;spacingRight=4;overflow=hidden;rotatable=0;points=[];portConstraint=eastwest;part=1;fontStyle=1;rounded=0;" parent="xPs3qHdYtmF-mURhRglS-263" vertex="1" connectable="0">
          <mxGeometry width="30" height="30" as="geometry" />
        </mxCell>
        <mxCell id="xPs3qHdYtmF-mURhRglS-265" value="shop_order_id" style="shape=partialRectangle;top=0;left=0;right=0;bottom=0;align=left;verticalAlign=top;fillColor=none;spacingLeft=34;spacingRight=4;overflow=hidden;rotatable=0;points=[[0,0.5],[1,0.5]];portConstraint=eastwest;dropTarget=0;rounded=0;fontStyle=2" parent="xPs3qHdYtmF-mURhRglS-262" vertex="1">
          <mxGeometry y="56" width="200" height="26" as="geometry" />
        </mxCell>
        <mxCell id="xPs3qHdYtmF-mURhRglS-266" value="FK" style="shape=partialRectangle;top=0;left=0;bottom=0;fillColor=none;align=left;verticalAlign=top;spacingLeft=4;spacingRight=4;overflow=hidden;rotatable=0;points=[];portConstraint=eastwest;part=1;rounded=0;" parent="xPs3qHdYtmF-mURhRglS-265" vertex="1" connectable="0">
          <mxGeometry width="30" height="26" as="geometry" />
        </mxCell>
        <mxCell id="xPs3qHdYtmF-mURhRglS-267" value="user_id" style="shape=partialRectangle;top=0;left=0;right=0;bottom=0;align=left;verticalAlign=top;fillColor=none;spacingLeft=34;spacingRight=4;overflow=hidden;rotatable=0;points=[[0,0.5],[1,0.5]];portConstraint=eastwest;dropTarget=0;rounded=0;fontStyle=2" parent="xPs3qHdYtmF-mURhRglS-262" vertex="1">
          <mxGeometry y="82" width="200" height="26" as="geometry" />
        </mxCell>
        <mxCell id="xPs3qHdYtmF-mURhRglS-268" value="FK" style="shape=partialRectangle;top=0;left=0;bottom=0;fillColor=none;align=left;verticalAlign=top;spacingLeft=4;spacingRight=4;overflow=hidden;rotatable=0;points=[];portConstraint=eastwest;part=1;rounded=0;" parent="xPs3qHdYtmF-mURhRglS-267" vertex="1" connectable="0">
          <mxGeometry width="30" height="26" as="geometry" />
        </mxCell>
        <mxCell id="xPs3qHdYtmF-mURhRglS-269" value="description" style="shape=partialRectangle;top=0;left=0;right=0;bottom=0;align=left;verticalAlign=top;fillColor=none;spacingLeft=34;spacingRight=4;overflow=hidden;rotatable=0;points=[[0,0.5],[1,0.5]];portConstraint=eastwest;dropTarget=0;rounded=0;fontStyle=0" parent="xPs3qHdYtmF-mURhRglS-262" vertex="1">
          <mxGeometry y="108" width="200" height="26" as="geometry" />
        </mxCell>
        <mxCell id="xPs3qHdYtmF-mURhRglS-270" value="" style="shape=partialRectangle;top=0;left=0;bottom=0;fillColor=none;align=left;verticalAlign=top;spacingLeft=4;spacingRight=4;overflow=hidden;rotatable=0;points=[];portConstraint=eastwest;part=1;rounded=0;" parent="xPs3qHdYtmF-mURhRglS-269" vertex="1" connectable="0">
          <mxGeometry width="30" height="26" as="geometry" />
        </mxCell>
        <mxCell id="xPs3qHdYtmF-mURhRglS-292" value="status" style="shape=partialRectangle;top=0;left=0;right=0;bottom=0;align=left;verticalAlign=top;fillColor=none;spacingLeft=34;spacingRight=4;overflow=hidden;rotatable=0;points=[[0,0.5],[1,0.5]];portConstraint=eastwest;dropTarget=0;rounded=0;fontStyle=0" parent="xPs3qHdYtmF-mURhRglS-262" vertex="1">
          <mxGeometry y="134" width="200" height="26" as="geometry" />
        </mxCell>
        <mxCell id="xPs3qHdYtmF-mURhRglS-293" value="" style="shape=partialRectangle;top=0;left=0;bottom=0;fillColor=none;align=left;verticalAlign=top;spacingLeft=4;spacingRight=4;overflow=hidden;rotatable=0;points=[];portConstraint=eastwest;part=1;rounded=0;" parent="xPs3qHdYtmF-mURhRglS-292" vertex="1" connectable="0">
          <mxGeometry width="30" height="26" as="geometry" />
        </mxCell>
        <mxCell id="xPs3qHdYtmF-mURhRglS-271" value="" style="shape=partialRectangle;top=0;left=0;right=0;bottom=0;align=left;verticalAlign=top;fillColor=none;spacingLeft=34;spacingRight=4;overflow=hidden;rotatable=0;points=[[0,0.5],[1,0.5]];portConstraint=eastwest;dropTarget=0;rounded=0;" parent="xPs3qHdYtmF-mURhRglS-262" vertex="1">
          <mxGeometry y="160" width="200" height="10" as="geometry" />
        </mxCell>
        <mxCell id="xPs3qHdYtmF-mURhRglS-272" value="" style="shape=partialRectangle;top=0;left=0;bottom=0;fillColor=none;align=left;verticalAlign=top;spacingLeft=4;spacingRight=4;overflow=hidden;rotatable=0;points=[];portConstraint=eastwest;part=1;rounded=0;" parent="xPs3qHdYtmF-mURhRglS-271" vertex="1" connectable="0">
          <mxGeometry width="30" height="10" as="geometry" />
        </mxCell>
        <mxCell id="xPs3qHdYtmF-mURhRglS-281" value="service_request_assignment" style="swimlane;fontStyle=1;childLayout=stackLayout;horizontal=1;startSize=26;fillColor=#F0F0F0;horizontalStack=0;resizeParent=1;resizeParentMax=0;resizeLast=0;collapsible=1;marginBottom=0;swimlaneFillColor=#B9E0A5;align=center;strokeWidth=1;fontSize=13;strokeColor=#000000;rounded=0;" parent="1" vertex="1">
          <mxGeometry x="1330" y="806" width="230" height="118" as="geometry" />
        </mxCell>
        <mxCell id="xPs3qHdYtmF-mURhRglS-282" value="id" style="shape=partialRectangle;top=0;left=0;right=0;bottom=1;align=left;verticalAlign=middle;fillColor=none;spacingLeft=34;spacingRight=4;overflow=hidden;rotatable=0;points=[[0,0.5],[1,0.5]];portConstraint=eastwest;dropTarget=0;fontStyle=5;rounded=0;" parent="xPs3qHdYtmF-mURhRglS-281" vertex="1">
          <mxGeometry y="26" width="230" height="30" as="geometry" />
        </mxCell>
        <mxCell id="xPs3qHdYtmF-mURhRglS-283" value="PK" style="shape=partialRectangle;top=0;left=0;bottom=0;fillColor=none;align=left;verticalAlign=middle;spacingLeft=4;spacingRight=4;overflow=hidden;rotatable=0;points=[];portConstraint=eastwest;part=1;fontStyle=1;rounded=0;" parent="xPs3qHdYtmF-mURhRglS-282" vertex="1" connectable="0">
          <mxGeometry width="30" height="30" as="geometry" />
        </mxCell>
        <mxCell id="xPs3qHdYtmF-mURhRglS-284" value="service_request_id" style="shape=partialRectangle;top=0;left=0;right=0;bottom=0;align=left;verticalAlign=top;fillColor=none;spacingLeft=34;spacingRight=4;overflow=hidden;rotatable=0;points=[[0,0.5],[1,0.5]];portConstraint=eastwest;dropTarget=0;rounded=0;fontStyle=2" parent="xPs3qHdYtmF-mURhRglS-281" vertex="1">
          <mxGeometry y="56" width="230" height="26" as="geometry" />
        </mxCell>
        <mxCell id="xPs3qHdYtmF-mURhRglS-285" value="FK" style="shape=partialRectangle;top=0;left=0;bottom=0;fillColor=none;align=left;verticalAlign=top;spacingLeft=4;spacingRight=4;overflow=hidden;rotatable=0;points=[];portConstraint=eastwest;part=1;rounded=0;" parent="xPs3qHdYtmF-mURhRglS-284" vertex="1" connectable="0">
          <mxGeometry width="30" height="26" as="geometry" />
        </mxCell>
        <mxCell id="xPs3qHdYtmF-mURhRglS-286" value="mechanic_id" style="shape=partialRectangle;top=0;left=0;right=0;bottom=0;align=left;verticalAlign=top;fillColor=none;spacingLeft=34;spacingRight=4;overflow=hidden;rotatable=0;points=[[0,0.5],[1,0.5]];portConstraint=eastwest;dropTarget=0;rounded=0;fontStyle=2" parent="xPs3qHdYtmF-mURhRglS-281" vertex="1">
          <mxGeometry y="82" width="230" height="26" as="geometry" />
        </mxCell>
        <mxCell id="xPs3qHdYtmF-mURhRglS-287" value="FK" style="shape=partialRectangle;top=0;left=0;bottom=0;fillColor=none;align=left;verticalAlign=top;spacingLeft=4;spacingRight=4;overflow=hidden;rotatable=0;points=[];portConstraint=eastwest;part=1;rounded=0;" parent="xPs3qHdYtmF-mURhRglS-286" vertex="1" connectable="0">
          <mxGeometry width="30" height="26" as="geometry" />
        </mxCell>
        <mxCell id="xPs3qHdYtmF-mURhRglS-290" value="" style="shape=partialRectangle;top=0;left=0;right=0;bottom=0;align=left;verticalAlign=top;fillColor=none;spacingLeft=34;spacingRight=4;overflow=hidden;rotatable=0;points=[[0,0.5],[1,0.5]];portConstraint=eastwest;dropTarget=0;rounded=0;" parent="xPs3qHdYtmF-mURhRglS-281" vertex="1">
          <mxGeometry y="108" width="230" height="10" as="geometry" />
        </mxCell>
        <mxCell id="xPs3qHdYtmF-mURhRglS-291" value="" style="shape=partialRectangle;top=0;left=0;bottom=0;fillColor=none;align=left;verticalAlign=top;spacingLeft=4;spacingRight=4;overflow=hidden;rotatable=0;points=[];portConstraint=eastwest;part=1;rounded=0;" parent="xPs3qHdYtmF-mURhRglS-290" vertex="1" connectable="0">
          <mxGeometry width="30" height="10" as="geometry" />
        </mxCell>
        <mxCell id="xPs3qHdYtmF-mURhRglS-296" style="edgeStyle=orthogonalEdgeStyle;rounded=0;orthogonalLoop=1;jettySize=auto;html=1;endArrow=ERzeroToMany;endFill=0;startArrow=ERmandOne;startFill=0;" parent="1" edge="1">
          <mxGeometry relative="1" as="geometry">
            <Array as="points">
              <mxPoint x="2050" y="840" />
              <mxPoint x="2050" y="1099" />
            </Array>
            <mxPoint x="2100" y="840.0000000000005" as="sourcePoint" />
            <mxPoint x="1545" y="1099" as="targetPoint" />
          </mxGeometry>
        </mxCell>
        <mxCell id="xPs3qHdYtmF-mURhRglS-304" value="User" style="swimlane;fontStyle=0;childLayout=stackLayout;horizontal=1;startSize=26;fillColor=#F0F0F0;horizontalStack=0;resizeParent=1;resizeParentMax=0;resizeLast=0;collapsible=1;marginBottom=0;swimlaneFillColor=none;align=center;strokeWidth=1;fontSize=13;strokeColor=#000000;rounded=0;" parent="1" vertex="1">
          <mxGeometry x="1050" y="1084" width="160" height="144" as="geometry" />
        </mxCell>
        <mxCell id="xPs3qHdYtmF-mURhRglS-305" value="id" style="shape=partialRectangle;top=0;left=0;right=0;bottom=1;align=left;verticalAlign=middle;fillColor=none;spacingLeft=34;spacingRight=4;overflow=hidden;rotatable=0;points=[[0,0.5],[1,0.5]];portConstraint=eastwest;dropTarget=0;fontStyle=5;rounded=0;" parent="xPs3qHdYtmF-mURhRglS-304" vertex="1">
          <mxGeometry y="26" width="160" height="30" as="geometry" />
        </mxCell>
        <mxCell id="xPs3qHdYtmF-mURhRglS-306" value="PK" style="shape=partialRectangle;top=0;left=0;bottom=0;fillColor=none;align=left;verticalAlign=middle;spacingLeft=4;spacingRight=4;overflow=hidden;rotatable=0;points=[];portConstraint=eastwest;part=1;fontStyle=1;rounded=0;" parent="xPs3qHdYtmF-mURhRglS-305" vertex="1" connectable="0">
          <mxGeometry width="30" height="30" as="geometry" />
        </mxCell>
        <mxCell id="xPs3qHdYtmF-mURhRglS-307" value="avatar_url" style="shape=partialRectangle;top=0;left=0;right=0;bottom=0;align=left;verticalAlign=top;fillColor=none;spacingLeft=34;spacingRight=4;overflow=hidden;rotatable=0;points=[[0,0.5],[1,0.5]];portConstraint=eastwest;dropTarget=0;rounded=0;" parent="xPs3qHdYtmF-mURhRglS-304" vertex="1">
          <mxGeometry y="56" width="160" height="26" as="geometry" />
        </mxCell>
        <mxCell id="xPs3qHdYtmF-mURhRglS-308" value="" style="shape=partialRectangle;top=0;left=0;bottom=0;fillColor=none;align=left;verticalAlign=top;spacingLeft=4;spacingRight=4;overflow=hidden;rotatable=0;points=[];portConstraint=eastwest;part=1;rounded=0;" parent="xPs3qHdYtmF-mURhRglS-307" vertex="1" connectable="0">
          <mxGeometry width="30" height="26" as="geometry" />
        </mxCell>
        <mxCell id="xPs3qHdYtmF-mURhRglS-309" value="role" style="shape=partialRectangle;top=0;left=0;right=0;bottom=0;align=left;verticalAlign=top;fillColor=none;spacingLeft=34;spacingRight=4;overflow=hidden;rotatable=0;points=[[0,0.5],[1,0.5]];portConstraint=eastwest;dropTarget=0;rounded=0;" parent="xPs3qHdYtmF-mURhRglS-304" vertex="1">
          <mxGeometry y="82" width="160" height="26" as="geometry" />
        </mxCell>
        <mxCell id="xPs3qHdYtmF-mURhRglS-310" value="" style="shape=partialRectangle;top=0;left=0;bottom=0;fillColor=none;align=left;verticalAlign=top;spacingLeft=4;spacingRight=4;overflow=hidden;rotatable=0;points=[];portConstraint=eastwest;part=1;rounded=0;" parent="xPs3qHdYtmF-mURhRglS-309" vertex="1" connectable="0">
          <mxGeometry width="30" height="26" as="geometry" />
        </mxCell>
        <mxCell id="xPs3qHdYtmF-mURhRglS-311" value="user_metadata" style="shape=partialRectangle;top=0;left=0;right=0;bottom=0;align=left;verticalAlign=top;fillColor=none;spacingLeft=34;spacingRight=4;overflow=hidden;rotatable=0;points=[[0,0.5],[1,0.5]];portConstraint=eastwest;dropTarget=0;rounded=0;" parent="xPs3qHdYtmF-mURhRglS-304" vertex="1">
          <mxGeometry y="108" width="160" height="26" as="geometry" />
        </mxCell>
        <mxCell id="xPs3qHdYtmF-mURhRglS-312" value="" style="shape=partialRectangle;top=0;left=0;bottom=0;fillColor=none;align=left;verticalAlign=top;spacingLeft=4;spacingRight=4;overflow=hidden;rotatable=0;points=[];portConstraint=eastwest;part=1;rounded=0;" parent="xPs3qHdYtmF-mURhRglS-311" vertex="1" connectable="0">
          <mxGeometry width="30" height="26" as="geometry" />
        </mxCell>
        <mxCell id="xPs3qHdYtmF-mURhRglS-313" value="" style="shape=partialRectangle;top=0;left=0;right=0;bottom=0;align=left;verticalAlign=top;fillColor=none;spacingLeft=34;spacingRight=4;overflow=hidden;rotatable=0;points=[[0,0.5],[1,0.5]];portConstraint=eastwest;dropTarget=0;rounded=0;" parent="xPs3qHdYtmF-mURhRglS-304" vertex="1">
          <mxGeometry y="134" width="160" height="10" as="geometry" />
        </mxCell>
        <mxCell id="xPs3qHdYtmF-mURhRglS-314" value="" style="shape=partialRectangle;top=0;left=0;bottom=0;fillColor=none;align=left;verticalAlign=top;spacingLeft=4;spacingRight=4;overflow=hidden;rotatable=0;points=[];portConstraint=eastwest;part=1;rounded=0;" parent="xPs3qHdYtmF-mURhRglS-313" vertex="1" connectable="0">
          <mxGeometry width="30" height="10" as="geometry" />
        </mxCell>
        <mxCell id="xPs3qHdYtmF-mURhRglS-315" style="edgeStyle=orthogonalEdgeStyle;rounded=0;orthogonalLoop=1;jettySize=auto;html=1;exitX=1;exitY=0.5;exitDx=0;exitDy=0;endArrow=ERoneToMany;endFill=0;startArrow=ERmandOne;startFill=0;" parent="1" source="xPs3qHdYtmF-mURhRglS-305" target="xPs3qHdYtmF-mURhRglS-267" edge="1">
          <mxGeometry relative="1" as="geometry" />
        </mxCell>
        <mxCell id="xPs3qHdYtmF-mURhRglS-316" value="" style="fontSize=12;html=1;endArrow=ERzeroToMany;startArrow=ERmandOne;rounded=0;edgeStyle=orthogonalEdgeStyle;" parent="1" source="xPs3qHdYtmF-mURhRglS-262" target="xPs3qHdYtmF-mURhRglS-254" edge="1">
          <mxGeometry width="100" height="100" relative="1" as="geometry">
            <mxPoint x="1290" y="1160" as="sourcePoint" />
            <mxPoint x="1390" y="1060" as="targetPoint" />
          </mxGeometry>
        </mxCell>
        <mxCell id="xPs3qHdYtmF-mURhRglS-317" style="edgeStyle=orthogonalEdgeStyle;rounded=0;orthogonalLoop=1;jettySize=auto;html=1;exitX=1;exitY=0.5;exitDx=0;exitDy=0;endArrow=ERoneToMany;endFill=0;startArrow=ERmandOne;startFill=0;" parent="1" source="xPs3qHdYtmF-mURhRglS-131" target="xPs3qHdYtmF-mURhRglS-281" edge="1">
          <mxGeometry relative="1" as="geometry" />
        </mxCell>
        <mxCell id="xPs3qHdYtmF-mURhRglS-318" value="quotation" style="swimlane;fontStyle=1;childLayout=stackLayout;horizontal=1;startSize=26;fillColor=#F0F0F0;horizontalStack=0;resizeParent=1;resizeParentMax=0;resizeLast=0;collapsible=1;marginBottom=0;swimlaneFillColor=#B9E0A5;align=center;strokeWidth=1;fontSize=13;strokeColor=#000000;rounded=0;" parent="1" vertex="1">
          <mxGeometry x="2065" y="1080" width="230" height="166" as="geometry" />
        </mxCell>
        <mxCell id="yQyPxhstI3LtVDyPCECz-70" value="id" style="shape=partialRectangle;top=0;left=0;right=0;bottom=1;align=left;verticalAlign=top;fillColor=none;spacingLeft=34;spacingRight=4;overflow=hidden;rotatable=0;points=[[0,0.5],[1,0.5]];portConstraint=eastwest;dropTarget=0;rounded=0;fontStyle=2" parent="xPs3qHdYtmF-mURhRglS-318" vertex="1">
          <mxGeometry y="26" width="230" height="26" as="geometry" />
        </mxCell>
        <mxCell id="yQyPxhstI3LtVDyPCECz-71" value="PK" style="shape=partialRectangle;top=0;left=0;bottom=0;fillColor=none;align=left;verticalAlign=top;spacingLeft=4;spacingRight=4;overflow=hidden;rotatable=0;points=[];portConstraint=eastwest;part=1;rounded=0;" parent="yQyPxhstI3LtVDyPCECz-70" vertex="1" connectable="0">
          <mxGeometry width="30" height="26" as="geometry" />
        </mxCell>
        <mxCell id="YpMVhhTAt_-KF-ZNPzt0-1" value="shop_order_id" style="shape=partialRectangle;top=0;left=0;right=0;bottom=0;align=left;verticalAlign=top;fillColor=none;spacingLeft=34;spacingRight=4;overflow=hidden;rotatable=0;points=[[0,0.5],[1,0.5]];portConstraint=eastwest;dropTarget=0;rounded=0;fontStyle=2" parent="xPs3qHdYtmF-mURhRglS-318" vertex="1">
          <mxGeometry y="52" width="230" height="26" as="geometry" />
        </mxCell>
        <mxCell id="YpMVhhTAt_-KF-ZNPzt0-2" value="FK" style="shape=partialRectangle;top=0;left=0;bottom=0;fillColor=none;align=left;verticalAlign=top;spacingLeft=4;spacingRight=4;overflow=hidden;rotatable=0;points=[];portConstraint=eastwest;part=1;rounded=0;" parent="YpMVhhTAt_-KF-ZNPzt0-1" vertex="1" connectable="0">
          <mxGeometry width="30" height="26" as="geometry" />
        </mxCell>
        <mxCell id="xPs3qHdYtmF-mURhRglS-323" value="description" style="shape=partialRectangle;top=0;left=0;right=0;bottom=0;align=left;verticalAlign=top;fillColor=none;spacingLeft=34;spacingRight=4;overflow=hidden;rotatable=0;points=[[0,0.5],[1,0.5]];portConstraint=eastwest;dropTarget=0;rounded=0;fontStyle=0" parent="xPs3qHdYtmF-mURhRglS-318" vertex="1">
          <mxGeometry y="78" width="230" height="26" as="geometry" />
        </mxCell>
        <mxCell id="xPs3qHdYtmF-mURhRglS-324" value="" style="shape=partialRectangle;top=0;left=0;bottom=0;fillColor=none;align=left;verticalAlign=top;spacingLeft=4;spacingRight=4;overflow=hidden;rotatable=0;points=[];portConstraint=eastwest;part=1;rounded=0;" parent="xPs3qHdYtmF-mURhRglS-323" vertex="1" connectable="0">
          <mxGeometry width="30" height="26" as="geometry" />
        </mxCell>
        <mxCell id="xPs3qHdYtmF-mURhRglS-330" value="breakdowns" style="shape=partialRectangle;top=0;left=0;right=0;bottom=0;align=left;verticalAlign=top;fillColor=none;spacingLeft=34;spacingRight=4;overflow=hidden;rotatable=0;points=[[0,0.5],[1,0.5]];portConstraint=eastwest;dropTarget=0;rounded=0;fontStyle=0" parent="xPs3qHdYtmF-mURhRglS-318" vertex="1">
          <mxGeometry y="104" width="230" height="26" as="geometry" />
        </mxCell>
        <mxCell id="xPs3qHdYtmF-mURhRglS-331" value="" style="shape=partialRectangle;top=0;left=0;bottom=0;fillColor=none;align=left;verticalAlign=top;spacingLeft=4;spacingRight=4;overflow=hidden;rotatable=0;points=[];portConstraint=eastwest;part=1;rounded=0;" parent="xPs3qHdYtmF-mURhRglS-330" vertex="1" connectable="0">
          <mxGeometry width="30" height="26" as="geometry" />
        </mxCell>
        <mxCell id="yQyPxhstI3LtVDyPCECz-91" value="order_total" style="shape=partialRectangle;top=0;left=0;right=0;bottom=0;align=left;verticalAlign=top;fillColor=none;spacingLeft=34;spacingRight=4;overflow=hidden;rotatable=0;points=[[0,0.5],[1,0.5]];portConstraint=eastwest;dropTarget=0;rounded=0;fontStyle=0" parent="xPs3qHdYtmF-mURhRglS-318" vertex="1">
          <mxGeometry y="130" width="230" height="26" as="geometry" />
        </mxCell>
        <mxCell id="yQyPxhstI3LtVDyPCECz-92" value="" style="shape=partialRectangle;top=0;left=0;bottom=0;fillColor=none;align=left;verticalAlign=top;spacingLeft=4;spacingRight=4;overflow=hidden;rotatable=0;points=[];portConstraint=eastwest;part=1;rounded=0;" parent="yQyPxhstI3LtVDyPCECz-91" vertex="1" connectable="0">
          <mxGeometry width="30" height="26" as="geometry" />
        </mxCell>
        <mxCell id="xPs3qHdYtmF-mURhRglS-325" value="" style="shape=partialRectangle;top=0;left=0;right=0;bottom=0;align=left;verticalAlign=top;fillColor=none;spacingLeft=34;spacingRight=4;overflow=hidden;rotatable=0;points=[[0,0.5],[1,0.5]];portConstraint=eastwest;dropTarget=0;rounded=0;" parent="xPs3qHdYtmF-mURhRglS-318" vertex="1">
          <mxGeometry y="156" width="230" height="10" as="geometry" />
        </mxCell>
        <mxCell id="xPs3qHdYtmF-mURhRglS-326" value="" style="shape=partialRectangle;top=0;left=0;bottom=0;fillColor=none;align=left;verticalAlign=top;spacingLeft=4;spacingRight=4;overflow=hidden;rotatable=0;points=[];portConstraint=eastwest;part=1;rounded=0;" parent="xPs3qHdYtmF-mURhRglS-325" vertex="1" connectable="0">
          <mxGeometry width="30" height="10" as="geometry" />
        </mxCell>
        <mxCell id="yQyPxhstI3LtVDyPCECz-1" value="shop_order" style="swimlane;fontStyle=0;childLayout=stackLayout;horizontal=1;startSize=26;fillColor=#F0F0F0;horizontalStack=0;resizeParent=1;resizeParentMax=0;resizeLast=0;collapsible=1;marginBottom=0;swimlaneFillColor=#E5CCFF;align=center;strokeWidth=1;fontSize=13;strokeColor=#000000;rounded=0;" parent="1" vertex="1">
          <mxGeometry x="2100" y="798" width="160" height="144" as="geometry" />
        </mxCell>
        <mxCell id="yQyPxhstI3LtVDyPCECz-2" value="id" style="shape=partialRectangle;top=0;left=0;right=0;bottom=1;align=left;verticalAlign=middle;fillColor=none;spacingLeft=34;spacingRight=4;overflow=hidden;rotatable=0;points=[[0,0.5],[1,0.5]];portConstraint=eastwest;dropTarget=0;fontStyle=5;rounded=0;" parent="yQyPxhstI3LtVDyPCECz-1" vertex="1">
          <mxGeometry y="26" width="160" height="30" as="geometry" />
        </mxCell>
        <mxCell id="yQyPxhstI3LtVDyPCECz-3" value="PK" style="shape=partialRectangle;top=0;left=0;bottom=0;fillColor=none;align=left;verticalAlign=middle;spacingLeft=4;spacingRight=4;overflow=hidden;rotatable=0;points=[];portConstraint=eastwest;part=1;fontStyle=1;rounded=0;" parent="yQyPxhstI3LtVDyPCECz-2" vertex="1" connectable="0">
          <mxGeometry width="30" height="30" as="geometry" />
        </mxCell>
        <mxCell id="yQyPxhstI3LtVDyPCECz-4" value="user_id" style="shape=partialRectangle;top=0;left=0;right=0;bottom=0;align=left;verticalAlign=top;fillColor=none;spacingLeft=34;spacingRight=4;overflow=hidden;rotatable=0;points=[[0,0.5],[1,0.5]];portConstraint=eastwest;dropTarget=0;rounded=0;fontStyle=2" parent="yQyPxhstI3LtVDyPCECz-1" vertex="1">
          <mxGeometry y="56" width="160" height="26" as="geometry" />
        </mxCell>
        <mxCell id="yQyPxhstI3LtVDyPCECz-5" value="FK" style="shape=partialRectangle;top=0;left=0;bottom=0;fillColor=none;align=left;verticalAlign=top;spacingLeft=4;spacingRight=4;overflow=hidden;rotatable=0;points=[];portConstraint=eastwest;part=1;rounded=0;" parent="yQyPxhstI3LtVDyPCECz-4" vertex="1" connectable="0">
          <mxGeometry width="30" height="26" as="geometry" />
        </mxCell>
        <mxCell id="yQyPxhstI3LtVDyPCECz-51" value="order_status_id" style="shape=partialRectangle;top=0;left=0;right=0;bottom=0;align=left;verticalAlign=top;fillColor=none;spacingLeft=34;spacingRight=4;overflow=hidden;rotatable=0;points=[[0,0.5],[1,0.5]];portConstraint=eastwest;dropTarget=0;rounded=0;fontStyle=2" parent="yQyPxhstI3LtVDyPCECz-1" vertex="1">
          <mxGeometry y="82" width="160" height="26" as="geometry" />
        </mxCell>
        <mxCell id="yQyPxhstI3LtVDyPCECz-52" value="FK" style="shape=partialRectangle;top=0;left=0;bottom=0;fillColor=none;align=left;verticalAlign=top;spacingLeft=4;spacingRight=4;overflow=hidden;rotatable=0;points=[];portConstraint=eastwest;part=1;rounded=0;" parent="yQyPxhstI3LtVDyPCECz-51" vertex="1" connectable="0">
          <mxGeometry width="30" height="26" as="geometry" />
        </mxCell>
        <mxCell id="yQyPxhstI3LtVDyPCECz-64" value="order_approved_at" style="shape=partialRectangle;top=0;left=0;right=0;bottom=0;align=left;verticalAlign=top;fillColor=none;spacingLeft=34;spacingRight=4;overflow=hidden;rotatable=0;points=[[0,0.5],[1,0.5]];portConstraint=eastwest;dropTarget=0;rounded=0;fontStyle=0" parent="yQyPxhstI3LtVDyPCECz-1" vertex="1">
          <mxGeometry y="108" width="160" height="26" as="geometry" />
        </mxCell>
        <mxCell id="yQyPxhstI3LtVDyPCECz-65" value="" style="shape=partialRectangle;top=0;left=0;bottom=0;fillColor=none;align=left;verticalAlign=top;spacingLeft=4;spacingRight=4;overflow=hidden;rotatable=0;points=[];portConstraint=eastwest;part=1;rounded=0;" parent="yQyPxhstI3LtVDyPCECz-64" vertex="1" connectable="0">
          <mxGeometry width="30" height="26" as="geometry" />
        </mxCell>
        <mxCell id="yQyPxhstI3LtVDyPCECz-10" value="" style="shape=partialRectangle;top=0;left=0;right=0;bottom=0;align=left;verticalAlign=top;fillColor=none;spacingLeft=34;spacingRight=4;overflow=hidden;rotatable=0;points=[[0,0.5],[1,0.5]];portConstraint=eastwest;dropTarget=0;rounded=0;" parent="yQyPxhstI3LtVDyPCECz-1" vertex="1">
          <mxGeometry y="134" width="160" height="10" as="geometry" />
        </mxCell>
        <mxCell id="yQyPxhstI3LtVDyPCECz-11" value="" style="shape=partialRectangle;top=0;left=0;bottom=0;fillColor=none;align=left;verticalAlign=top;spacingLeft=4;spacingRight=4;overflow=hidden;rotatable=0;points=[];portConstraint=eastwest;part=1;rounded=0;" parent="yQyPxhstI3LtVDyPCECz-10" vertex="1" connectable="0">
          <mxGeometry width="30" height="10" as="geometry" />
        </mxCell>
        <mxCell id="yQyPxhstI3LtVDyPCECz-12" value="TAGS" style="rounded=1;whiteSpace=wrap;html=1;" parent="1" vertex="1">
          <mxGeometry x="1745" y="-190" width="120" height="60" as="geometry" />
        </mxCell>
        <mxCell id="yQyPxhstI3LtVDyPCECz-20" value="" style="edgeStyle=orthogonalEdgeStyle;rounded=0;orthogonalLoop=1;jettySize=auto;html=1;" parent="1" source="yQyPxhstI3LtVDyPCECz-13" edge="1">
          <mxGeometry relative="1" as="geometry">
            <mxPoint x="2040.0000000000005" y="-399.9999999999998" as="targetPoint" />
          </mxGeometry>
        </mxCell>
        <mxCell id="yQyPxhstI3LtVDyPCECz-13" value="USER" style="rounded=1;whiteSpace=wrap;html=1;" parent="1" vertex="1">
          <mxGeometry x="1980" y="-530" width="120" height="60" as="geometry" />
        </mxCell>
        <mxCell id="yQyPxhstI3LtVDyPCECz-17" style="edgeStyle=orthogonalEdgeStyle;rounded=0;orthogonalLoop=1;jettySize=auto;html=1;exitX=0.5;exitY=1;exitDx=0;exitDy=0;" parent="1" source="yQyPxhstI3LtVDyPCECz-14" edge="1">
          <mxGeometry relative="1" as="geometry">
            <mxPoint x="1804.3076923076924" y="-200" as="targetPoint" />
          </mxGeometry>
        </mxCell>
        <mxCell id="yQyPxhstI3LtVDyPCECz-14" value="Has" style="rhombus;whiteSpace=wrap;html=1;" parent="1" vertex="1">
          <mxGeometry x="1765" y="-350" width="80" height="80" as="geometry" />
        </mxCell>
        <mxCell id="yQyPxhstI3LtVDyPCECz-16" style="edgeStyle=orthogonalEdgeStyle;rounded=0;orthogonalLoop=1;jettySize=auto;html=1;entryX=0.5;entryY=0;entryDx=0;entryDy=0;" parent="1" source="yQyPxhstI3LtVDyPCECz-15" target="yQyPxhstI3LtVDyPCECz-14" edge="1">
          <mxGeometry relative="1" as="geometry" />
        </mxCell>
        <mxCell id="yQyPxhstI3LtVDyPCECz-15" value="PRODUCTS" style="rounded=1;whiteSpace=wrap;html=1;" parent="1" vertex="1">
          <mxGeometry x="1745" y="-520" width="120" height="60" as="geometry" />
        </mxCell>
        <mxCell id="yQyPxhstI3LtVDyPCECz-23" value="" style="edgeStyle=orthogonalEdgeStyle;rounded=0;orthogonalLoop=1;jettySize=auto;html=1;" parent="1" source="yQyPxhstI3LtVDyPCECz-21" target="yQyPxhstI3LtVDyPCECz-22" edge="1">
          <mxGeometry relative="1" as="geometry" />
        </mxCell>
        <mxCell id="yQyPxhstI3LtVDyPCECz-21" value="USER_ROLE" style="rounded=1;whiteSpace=wrap;html=1;" parent="1" vertex="1">
          <mxGeometry x="1980" y="-400" width="120" height="60" as="geometry" />
        </mxCell>
        <mxCell id="yQyPxhstI3LtVDyPCECz-22" value="ROLE" style="whiteSpace=wrap;html=1;rounded=1;" parent="1" vertex="1">
          <mxGeometry x="1980" y="-260" width="120" height="60" as="geometry" />
        </mxCell>
        <mxCell id="yQyPxhstI3LtVDyPCECz-24" value="order_line" style="swimlane;fontStyle=0;childLayout=stackLayout;horizontal=1;startSize=26;fillColor=#F0F0F0;horizontalStack=0;resizeParent=1;resizeParentMax=0;resizeLast=0;collapsible=1;marginBottom=0;swimlaneFillColor=#E5CCFF;align=center;strokeWidth=1;fontSize=13;strokeColor=#000000;rounded=0;" parent="1" vertex="1">
          <mxGeometry x="2100" y="496" width="160" height="170" as="geometry" />
        </mxCell>
        <mxCell id="yQyPxhstI3LtVDyPCECz-25" value="id" style="shape=partialRectangle;top=0;left=0;right=0;bottom=1;align=left;verticalAlign=middle;fillColor=none;spacingLeft=34;spacingRight=4;overflow=hidden;rotatable=0;points=[[0,0.5],[1,0.5]];portConstraint=eastwest;dropTarget=0;fontStyle=5;rounded=0;" parent="yQyPxhstI3LtVDyPCECz-24" vertex="1">
          <mxGeometry y="26" width="160" height="30" as="geometry" />
        </mxCell>
        <mxCell id="yQyPxhstI3LtVDyPCECz-26" value="PK" style="shape=partialRectangle;top=0;left=0;bottom=0;fillColor=none;align=left;verticalAlign=middle;spacingLeft=4;spacingRight=4;overflow=hidden;rotatable=0;points=[];portConstraint=eastwest;part=1;fontStyle=1;rounded=0;" parent="yQyPxhstI3LtVDyPCECz-25" vertex="1" connectable="0">
          <mxGeometry width="30" height="30" as="geometry" />
        </mxCell>
        <mxCell id="yQyPxhstI3LtVDyPCECz-27" value="shop_order_id" style="shape=partialRectangle;top=0;left=0;right=0;bottom=0;align=left;verticalAlign=top;fillColor=none;spacingLeft=34;spacingRight=4;overflow=hidden;rotatable=0;points=[[0,0.5],[1,0.5]];portConstraint=eastwest;dropTarget=0;rounded=0;fontStyle=2" parent="yQyPxhstI3LtVDyPCECz-24" vertex="1">
          <mxGeometry y="56" width="160" height="26" as="geometry" />
        </mxCell>
        <mxCell id="yQyPxhstI3LtVDyPCECz-28" value="FK" style="shape=partialRectangle;top=0;left=0;bottom=0;fillColor=none;align=left;verticalAlign=top;spacingLeft=4;spacingRight=4;overflow=hidden;rotatable=0;points=[];portConstraint=eastwest;part=1;rounded=0;" parent="yQyPxhstI3LtVDyPCECz-27" vertex="1" connectable="0">
          <mxGeometry width="30" height="26" as="geometry" />
        </mxCell>
        <mxCell id="yQyPxhstI3LtVDyPCECz-29" value="services_offered_id" style="shape=partialRectangle;top=0;left=0;right=0;bottom=0;align=left;verticalAlign=top;fillColor=none;spacingLeft=34;spacingRight=4;overflow=hidden;rotatable=0;points=[[0,0.5],[1,0.5]];portConstraint=eastwest;dropTarget=0;rounded=0;fontStyle=2" parent="yQyPxhstI3LtVDyPCECz-24" vertex="1">
          <mxGeometry y="82" width="160" height="26" as="geometry" />
        </mxCell>
        <mxCell id="yQyPxhstI3LtVDyPCECz-30" value="FK" style="shape=partialRectangle;top=0;left=0;bottom=0;fillColor=none;align=left;verticalAlign=top;spacingLeft=4;spacingRight=4;overflow=hidden;rotatable=0;points=[];portConstraint=eastwest;part=1;rounded=0;" parent="yQyPxhstI3LtVDyPCECz-29" vertex="1" connectable="0">
          <mxGeometry width="30" height="26" as="geometry" />
        </mxCell>
        <mxCell id="yQyPxhstI3LtVDyPCECz-87" value="price" style="shape=partialRectangle;top=0;left=0;right=0;bottom=0;align=left;verticalAlign=top;fillColor=none;spacingLeft=34;spacingRight=4;overflow=hidden;rotatable=0;points=[[0,0.5],[1,0.5]];portConstraint=eastwest;dropTarget=0;rounded=0;fontStyle=0" parent="yQyPxhstI3LtVDyPCECz-24" vertex="1">
          <mxGeometry y="108" width="160" height="26" as="geometry" />
        </mxCell>
        <mxCell id="yQyPxhstI3LtVDyPCECz-88" value="" style="shape=partialRectangle;top=0;left=0;bottom=0;fillColor=none;align=left;verticalAlign=top;spacingLeft=4;spacingRight=4;overflow=hidden;rotatable=0;points=[];portConstraint=eastwest;part=1;rounded=0;" parent="yQyPxhstI3LtVDyPCECz-87" vertex="1" connectable="0">
          <mxGeometry width="30" height="26" as="geometry" />
        </mxCell>
        <mxCell id="yQyPxhstI3LtVDyPCECz-89" value="quantity" style="shape=partialRectangle;top=0;left=0;right=0;bottom=0;align=left;verticalAlign=top;fillColor=none;spacingLeft=34;spacingRight=4;overflow=hidden;rotatable=0;points=[[0,0.5],[1,0.5]];portConstraint=eastwest;dropTarget=0;rounded=0;fontStyle=0" parent="yQyPxhstI3LtVDyPCECz-24" vertex="1">
          <mxGeometry y="134" width="160" height="26" as="geometry" />
        </mxCell>
        <mxCell id="yQyPxhstI3LtVDyPCECz-90" value="" style="shape=partialRectangle;top=0;left=0;bottom=0;fillColor=none;align=left;verticalAlign=top;spacingLeft=4;spacingRight=4;overflow=hidden;rotatable=0;points=[];portConstraint=eastwest;part=1;rounded=0;" parent="yQyPxhstI3LtVDyPCECz-89" vertex="1" connectable="0">
          <mxGeometry width="30" height="26" as="geometry" />
        </mxCell>
        <mxCell id="yQyPxhstI3LtVDyPCECz-33" value="" style="shape=partialRectangle;top=0;left=0;right=0;bottom=0;align=left;verticalAlign=top;fillColor=none;spacingLeft=34;spacingRight=4;overflow=hidden;rotatable=0;points=[[0,0.5],[1,0.5]];portConstraint=eastwest;dropTarget=0;rounded=0;" parent="yQyPxhstI3LtVDyPCECz-24" vertex="1">
          <mxGeometry y="160" width="160" height="10" as="geometry" />
        </mxCell>
        <mxCell id="yQyPxhstI3LtVDyPCECz-34" value="" style="shape=partialRectangle;top=0;left=0;bottom=0;fillColor=none;align=left;verticalAlign=top;spacingLeft=4;spacingRight=4;overflow=hidden;rotatable=0;points=[];portConstraint=eastwest;part=1;rounded=0;" parent="yQyPxhstI3LtVDyPCECz-33" vertex="1" connectable="0">
          <mxGeometry width="30" height="10" as="geometry" />
        </mxCell>
        <mxCell id="yQyPxhstI3LtVDyPCECz-40" value="user" style="swimlane;fontStyle=0;childLayout=stackLayout;horizontal=1;startSize=26;fillColor=#F0F0F0;horizontalStack=0;resizeParent=1;resizeParentMax=0;resizeLast=0;collapsible=1;marginBottom=0;swimlaneFillColor=none;align=center;strokeWidth=1;fontSize=13;strokeColor=#000000;rounded=0;" parent="1" vertex="1">
          <mxGeometry x="2390" y="666" width="160" height="144" as="geometry" />
        </mxCell>
        <mxCell id="yQyPxhstI3LtVDyPCECz-41" value="id" style="shape=partialRectangle;top=0;left=0;right=0;bottom=1;align=left;verticalAlign=middle;fillColor=none;spacingLeft=34;spacingRight=4;overflow=hidden;rotatable=0;points=[[0,0.5],[1,0.5]];portConstraint=eastwest;dropTarget=0;fontStyle=5;rounded=0;" parent="yQyPxhstI3LtVDyPCECz-40" vertex="1">
          <mxGeometry y="26" width="160" height="30" as="geometry" />
        </mxCell>
        <mxCell id="yQyPxhstI3LtVDyPCECz-42" value="PK" style="shape=partialRectangle;top=0;left=0;bottom=0;fillColor=none;align=left;verticalAlign=middle;spacingLeft=4;spacingRight=4;overflow=hidden;rotatable=0;points=[];portConstraint=eastwest;part=1;fontStyle=1;rounded=0;" parent="yQyPxhstI3LtVDyPCECz-41" vertex="1" connectable="0">
          <mxGeometry width="30" height="30" as="geometry" />
        </mxCell>
        <mxCell id="yQyPxhstI3LtVDyPCECz-43" value="avatar_url" style="shape=partialRectangle;top=0;left=0;right=0;bottom=0;align=left;verticalAlign=top;fillColor=none;spacingLeft=34;spacingRight=4;overflow=hidden;rotatable=0;points=[[0,0.5],[1,0.5]];portConstraint=eastwest;dropTarget=0;rounded=0;" parent="yQyPxhstI3LtVDyPCECz-40" vertex="1">
          <mxGeometry y="56" width="160" height="26" as="geometry" />
        </mxCell>
        <mxCell id="yQyPxhstI3LtVDyPCECz-44" value="" style="shape=partialRectangle;top=0;left=0;bottom=0;fillColor=none;align=left;verticalAlign=top;spacingLeft=4;spacingRight=4;overflow=hidden;rotatable=0;points=[];portConstraint=eastwest;part=1;rounded=0;" parent="yQyPxhstI3LtVDyPCECz-43" vertex="1" connectable="0">
          <mxGeometry width="30" height="26" as="geometry" />
        </mxCell>
        <mxCell id="yQyPxhstI3LtVDyPCECz-45" value="role" style="shape=partialRectangle;top=0;left=0;right=0;bottom=0;align=left;verticalAlign=top;fillColor=none;spacingLeft=34;spacingRight=4;overflow=hidden;rotatable=0;points=[[0,0.5],[1,0.5]];portConstraint=eastwest;dropTarget=0;rounded=0;" parent="yQyPxhstI3LtVDyPCECz-40" vertex="1">
          <mxGeometry y="82" width="160" height="26" as="geometry" />
        </mxCell>
        <mxCell id="yQyPxhstI3LtVDyPCECz-46" value="" style="shape=partialRectangle;top=0;left=0;bottom=0;fillColor=none;align=left;verticalAlign=top;spacingLeft=4;spacingRight=4;overflow=hidden;rotatable=0;points=[];portConstraint=eastwest;part=1;rounded=0;" parent="yQyPxhstI3LtVDyPCECz-45" vertex="1" connectable="0">
          <mxGeometry width="30" height="26" as="geometry" />
        </mxCell>
        <mxCell id="yQyPxhstI3LtVDyPCECz-47" value="user_metadata" style="shape=partialRectangle;top=0;left=0;right=0;bottom=0;align=left;verticalAlign=top;fillColor=none;spacingLeft=34;spacingRight=4;overflow=hidden;rotatable=0;points=[[0,0.5],[1,0.5]];portConstraint=eastwest;dropTarget=0;rounded=0;" parent="yQyPxhstI3LtVDyPCECz-40" vertex="1">
          <mxGeometry y="108" width="160" height="26" as="geometry" />
        </mxCell>
        <mxCell id="yQyPxhstI3LtVDyPCECz-48" value="" style="shape=partialRectangle;top=0;left=0;bottom=0;fillColor=none;align=left;verticalAlign=top;spacingLeft=4;spacingRight=4;overflow=hidden;rotatable=0;points=[];portConstraint=eastwest;part=1;rounded=0;" parent="yQyPxhstI3LtVDyPCECz-47" vertex="1" connectable="0">
          <mxGeometry width="30" height="26" as="geometry" />
        </mxCell>
        <mxCell id="yQyPxhstI3LtVDyPCECz-49" value="" style="shape=partialRectangle;top=0;left=0;right=0;bottom=0;align=left;verticalAlign=top;fillColor=none;spacingLeft=34;spacingRight=4;overflow=hidden;rotatable=0;points=[[0,0.5],[1,0.5]];portConstraint=eastwest;dropTarget=0;rounded=0;" parent="yQyPxhstI3LtVDyPCECz-40" vertex="1">
          <mxGeometry y="134" width="160" height="10" as="geometry" />
        </mxCell>
        <mxCell id="yQyPxhstI3LtVDyPCECz-50" value="" style="shape=partialRectangle;top=0;left=0;bottom=0;fillColor=none;align=left;verticalAlign=top;spacingLeft=4;spacingRight=4;overflow=hidden;rotatable=0;points=[];portConstraint=eastwest;part=1;rounded=0;" parent="yQyPxhstI3LtVDyPCECz-49" vertex="1" connectable="0">
          <mxGeometry width="30" height="10" as="geometry" />
        </mxCell>
        <mxCell id="yQyPxhstI3LtVDyPCECz-53" value="order_status" style="swimlane;fontStyle=0;childLayout=stackLayout;horizontal=1;startSize=26;fillColor=#F0F0F0;horizontalStack=0;resizeParent=1;resizeParentMax=0;resizeLast=0;collapsible=1;marginBottom=0;swimlaneFillColor=#E5CCFF;align=center;strokeWidth=1;fontSize=13;strokeColor=#000000;rounded=0;" parent="1" vertex="1">
          <mxGeometry x="2390" y="930" width="210" height="92" as="geometry" />
        </mxCell>
        <mxCell id="yQyPxhstI3LtVDyPCECz-54" value="id" style="shape=partialRectangle;top=0;left=0;right=0;bottom=1;align=left;verticalAlign=middle;fillColor=none;spacingLeft=34;spacingRight=4;overflow=hidden;rotatable=0;points=[[0,0.5],[1,0.5]];portConstraint=eastwest;dropTarget=0;fontStyle=5;rounded=0;" parent="yQyPxhstI3LtVDyPCECz-53" vertex="1">
          <mxGeometry y="26" width="210" height="30" as="geometry" />
        </mxCell>
        <mxCell id="yQyPxhstI3LtVDyPCECz-55" value="PK" style="shape=partialRectangle;top=0;left=0;bottom=0;fillColor=none;align=left;verticalAlign=middle;spacingLeft=4;spacingRight=4;overflow=hidden;rotatable=0;points=[];portConstraint=eastwest;part=1;fontStyle=1;rounded=0;" parent="yQyPxhstI3LtVDyPCECz-54" vertex="1" connectable="0">
          <mxGeometry width="30" height="30" as="geometry" />
        </mxCell>
        <mxCell id="yQyPxhstI3LtVDyPCECz-56" value="name" style="shape=partialRectangle;top=0;left=0;right=0;bottom=0;align=left;verticalAlign=top;fillColor=none;spacingLeft=34;spacingRight=4;overflow=hidden;rotatable=0;points=[[0,0.5],[1,0.5]];portConstraint=eastwest;dropTarget=0;rounded=0;fontStyle=0" parent="yQyPxhstI3LtVDyPCECz-53" vertex="1">
          <mxGeometry y="56" width="210" height="26" as="geometry" />
        </mxCell>
        <mxCell id="yQyPxhstI3LtVDyPCECz-57" value="" style="shape=partialRectangle;top=0;left=0;bottom=0;fillColor=none;align=left;verticalAlign=top;spacingLeft=4;spacingRight=4;overflow=hidden;rotatable=0;points=[];portConstraint=eastwest;part=1;rounded=0;" parent="yQyPxhstI3LtVDyPCECz-56" vertex="1" connectable="0">
          <mxGeometry width="30" height="26" as="geometry" />
        </mxCell>
        <mxCell id="yQyPxhstI3LtVDyPCECz-62" value="" style="shape=partialRectangle;top=0;left=0;right=0;bottom=0;align=left;verticalAlign=top;fillColor=none;spacingLeft=34;spacingRight=4;overflow=hidden;rotatable=0;points=[[0,0.5],[1,0.5]];portConstraint=eastwest;dropTarget=0;rounded=0;" parent="yQyPxhstI3LtVDyPCECz-53" vertex="1">
          <mxGeometry y="82" width="210" height="10" as="geometry" />
        </mxCell>
        <mxCell id="yQyPxhstI3LtVDyPCECz-63" value="" style="shape=partialRectangle;top=0;left=0;bottom=0;fillColor=none;align=left;verticalAlign=top;spacingLeft=4;spacingRight=4;overflow=hidden;rotatable=0;points=[];portConstraint=eastwest;part=1;rounded=0;" parent="yQyPxhstI3LtVDyPCECz-62" vertex="1" connectable="0">
          <mxGeometry width="30" height="10" as="geometry" />
        </mxCell>
        <mxCell id="yQyPxhstI3LtVDyPCECz-66" style="edgeStyle=orthogonalEdgeStyle;rounded=0;orthogonalLoop=1;jettySize=auto;html=1;endArrow=ERoneToMany;endFill=0;startArrow=ERmandOne;startFill=0;" parent="1" source="yQyPxhstI3LtVDyPCECz-54" target="yQyPxhstI3LtVDyPCECz-51" edge="1">
          <mxGeometry relative="1" as="geometry" />
        </mxCell>
        <mxCell id="yQyPxhstI3LtVDyPCECz-67" style="edgeStyle=orthogonalEdgeStyle;rounded=0;orthogonalLoop=1;jettySize=auto;html=1;startArrow=ERmandOne;startFill=0;endArrow=ERoneToMany;endFill=0;" parent="1" source="yQyPxhstI3LtVDyPCECz-41" target="yQyPxhstI3LtVDyPCECz-4" edge="1">
          <mxGeometry relative="1" as="geometry" />
        </mxCell>
        <mxCell id="yQyPxhstI3LtVDyPCECz-73" style="edgeStyle=orthogonalEdgeStyle;rounded=0;orthogonalLoop=1;jettySize=auto;html=1;exitX=1;exitY=0.5;exitDx=0;exitDy=0;endArrow=ERoneToMany;endFill=0;startArrow=ERone;startFill=0;" parent="1" source="yQyPxhstI3LtVDyPCECz-2" target="yQyPxhstI3LtVDyPCECz-27" edge="1">
          <mxGeometry relative="1" as="geometry">
            <Array as="points">
              <mxPoint x="2300" y="839" />
              <mxPoint x="2300" y="565" />
            </Array>
          </mxGeometry>
        </mxCell>
        <mxCell id="yQyPxhstI3LtVDyPCECz-86" style="rounded=0;orthogonalLoop=1;jettySize=auto;html=1;endArrow=ERzeroToMany;endFill=0;startArrow=none;startFill=0;" parent="1" source="yQyPxhstI3LtVDyPCECz-1" target="xPs3qHdYtmF-mURhRglS-318" edge="1">
          <mxGeometry relative="1" as="geometry" />
        </mxCell>
        <mxCell id="7PbGszhR01sK47aoAYNo-1" value="products" style="swimlane;fontStyle=0;childLayout=stackLayout;horizontal=1;startSize=26;fillColor=#F0F0F0;horizontalStack=0;resizeParent=1;resizeParentMax=0;resizeLast=0;collapsible=1;marginBottom=0;swimlaneFillColor=#E5CCFF;align=center;strokeWidth=1;fontSize=13;strokeColor=#000000;rounded=0;" parent="1" vertex="1">
          <mxGeometry x="2170" y="-52" width="160" height="352" as="geometry" />
        </mxCell>
        <mxCell id="7PbGszhR01sK47aoAYNo-2" value="id" style="shape=partialRectangle;top=0;left=0;right=0;bottom=1;align=left;verticalAlign=middle;fillColor=none;spacingLeft=34;spacingRight=4;overflow=hidden;rotatable=0;points=[[0,0.5],[1,0.5]];portConstraint=eastwest;dropTarget=0;fontStyle=5;rounded=0;" parent="7PbGszhR01sK47aoAYNo-1" vertex="1">
          <mxGeometry y="26" width="160" height="30" as="geometry" />
        </mxCell>
        <mxCell id="7PbGszhR01sK47aoAYNo-3" value="PK" style="shape=partialRectangle;top=0;left=0;bottom=0;fillColor=none;align=left;verticalAlign=middle;spacingLeft=4;spacingRight=4;overflow=hidden;rotatable=0;points=[];portConstraint=eastwest;part=1;fontStyle=1;rounded=0;" parent="7PbGszhR01sK47aoAYNo-2" vertex="1" connectable="0">
          <mxGeometry width="30" height="30" as="geometry" />
        </mxCell>
        <mxCell id="7PbGszhR01sK47aoAYNo-4" value="shop_location_id" style="shape=partialRectangle;top=0;left=0;right=0;bottom=0;align=left;verticalAlign=top;fillColor=none;spacingLeft=34;spacingRight=4;overflow=hidden;rotatable=0;points=[[0,0.5],[1,0.5]];portConstraint=eastwest;dropTarget=0;rounded=0;fontStyle=2" parent="7PbGszhR01sK47aoAYNo-1" vertex="1">
          <mxGeometry y="56" width="160" height="26" as="geometry" />
        </mxCell>
        <mxCell id="7PbGszhR01sK47aoAYNo-5" value="FK" style="shape=partialRectangle;top=0;left=0;bottom=0;fillColor=none;align=left;verticalAlign=top;spacingLeft=4;spacingRight=4;overflow=hidden;rotatable=0;points=[];portConstraint=eastwest;part=1;rounded=0;" parent="7PbGszhR01sK47aoAYNo-4" vertex="1" connectable="0">
          <mxGeometry width="30" height="26" as="geometry" />
        </mxCell>
        <mxCell id="7PbGszhR01sK47aoAYNo-31" value="categories_id" style="shape=partialRectangle;top=0;left=0;right=0;bottom=0;align=left;verticalAlign=top;fillColor=none;spacingLeft=34;spacingRight=4;overflow=hidden;rotatable=0;points=[[0,0.5],[1,0.5]];portConstraint=eastwest;dropTarget=0;rounded=0;fontStyle=2" parent="7PbGszhR01sK47aoAYNo-1" vertex="1">
          <mxGeometry y="82" width="160" height="26" as="geometry" />
        </mxCell>
        <mxCell id="7PbGszhR01sK47aoAYNo-32" value="FK" style="shape=partialRectangle;top=0;left=0;bottom=0;fillColor=none;align=left;verticalAlign=top;spacingLeft=4;spacingRight=4;overflow=hidden;rotatable=0;points=[];portConstraint=eastwest;part=1;rounded=0;" parent="7PbGszhR01sK47aoAYNo-31" vertex="1" connectable="0">
          <mxGeometry width="30" height="26" as="geometry" />
        </mxCell>
        <mxCell id="7PbGszhR01sK47aoAYNo-6" value="name" style="shape=partialRectangle;top=0;left=0;right=0;bottom=0;align=left;verticalAlign=top;fillColor=none;spacingLeft=34;spacingRight=4;overflow=hidden;rotatable=0;points=[[0,0.5],[1,0.5]];portConstraint=eastwest;dropTarget=0;rounded=0;fontStyle=0" parent="7PbGszhR01sK47aoAYNo-1" vertex="1">
          <mxGeometry y="108" width="160" height="26" as="geometry" />
        </mxCell>
        <mxCell id="7PbGszhR01sK47aoAYNo-7" value="" style="shape=partialRectangle;top=0;left=0;bottom=0;fillColor=none;align=left;verticalAlign=top;spacingLeft=4;spacingRight=4;overflow=hidden;rotatable=0;points=[];portConstraint=eastwest;part=1;rounded=0;" parent="7PbGszhR01sK47aoAYNo-6" vertex="1" connectable="0">
          <mxGeometry width="30" height="26" as="geometry" />
        </mxCell>
        <mxCell id="7PbGszhR01sK47aoAYNo-8" value="description" style="shape=partialRectangle;top=0;left=0;right=0;bottom=0;align=left;verticalAlign=top;fillColor=none;spacingLeft=34;spacingRight=4;overflow=hidden;rotatable=0;points=[[0,0.5],[1,0.5]];portConstraint=eastwest;dropTarget=0;rounded=0;fontStyle=0" parent="7PbGszhR01sK47aoAYNo-1" vertex="1">
          <mxGeometry y="134" width="160" height="26" as="geometry" />
        </mxCell>
        <mxCell id="7PbGszhR01sK47aoAYNo-9" value="" style="shape=partialRectangle;top=0;left=0;bottom=0;fillColor=none;align=left;verticalAlign=top;spacingLeft=4;spacingRight=4;overflow=hidden;rotatable=0;points=[];portConstraint=eastwest;part=1;rounded=0;" parent="7PbGszhR01sK47aoAYNo-8" vertex="1" connectable="0">
          <mxGeometry width="30" height="26" as="geometry" />
        </mxCell>
        <mxCell id="7PbGszhR01sK47aoAYNo-10" value="sku" style="shape=partialRectangle;top=0;left=0;right=0;bottom=0;align=left;verticalAlign=top;fillColor=none;spacingLeft=34;spacingRight=4;overflow=hidden;rotatable=0;points=[[0,0.5],[1,0.5]];portConstraint=eastwest;dropTarget=0;rounded=0;fontStyle=0" parent="7PbGszhR01sK47aoAYNo-1" vertex="1">
          <mxGeometry y="160" width="160" height="26" as="geometry" />
        </mxCell>
        <mxCell id="7PbGszhR01sK47aoAYNo-11" value="" style="shape=partialRectangle;top=0;left=0;bottom=0;fillColor=none;align=left;verticalAlign=top;spacingLeft=4;spacingRight=4;overflow=hidden;rotatable=0;points=[];portConstraint=eastwest;part=1;rounded=0;" parent="7PbGszhR01sK47aoAYNo-10" vertex="1" connectable="0">
          <mxGeometry width="30" height="26" as="geometry" />
        </mxCell>
        <mxCell id="7PbGszhR01sK47aoAYNo-16" value="cost" style="shape=partialRectangle;top=0;left=0;right=0;bottom=0;align=left;verticalAlign=top;fillColor=none;spacingLeft=34;spacingRight=4;overflow=hidden;rotatable=0;points=[[0,0.5],[1,0.5]];portConstraint=eastwest;dropTarget=0;rounded=0;fontStyle=0" parent="7PbGszhR01sK47aoAYNo-1" vertex="1">
          <mxGeometry y="186" width="160" height="26" as="geometry" />
        </mxCell>
        <mxCell id="7PbGszhR01sK47aoAYNo-17" value="" style="shape=partialRectangle;top=0;left=0;bottom=0;fillColor=none;align=left;verticalAlign=top;spacingLeft=4;spacingRight=4;overflow=hidden;rotatable=0;points=[];portConstraint=eastwest;part=1;rounded=0;" parent="7PbGszhR01sK47aoAYNo-16" vertex="1" connectable="0">
          <mxGeometry width="30" height="26" as="geometry" />
        </mxCell>
        <mxCell id="7PbGszhR01sK47aoAYNo-18" value="price" style="shape=partialRectangle;top=0;left=0;right=0;bottom=0;align=left;verticalAlign=top;fillColor=none;spacingLeft=34;spacingRight=4;overflow=hidden;rotatable=0;points=[[0,0.5],[1,0.5]];portConstraint=eastwest;dropTarget=0;rounded=0;fontStyle=0" parent="7PbGszhR01sK47aoAYNo-1" vertex="1">
          <mxGeometry y="212" width="160" height="26" as="geometry" />
        </mxCell>
        <mxCell id="7PbGszhR01sK47aoAYNo-19" value="" style="shape=partialRectangle;top=0;left=0;bottom=0;fillColor=none;align=left;verticalAlign=top;spacingLeft=4;spacingRight=4;overflow=hidden;rotatable=0;points=[];portConstraint=eastwest;part=1;rounded=0;" parent="7PbGszhR01sK47aoAYNo-18" vertex="1" connectable="0">
          <mxGeometry width="30" height="26" as="geometry" />
        </mxCell>
        <mxCell id="7PbGszhR01sK47aoAYNo-20" value="quantity_on_hand" style="shape=partialRectangle;top=0;left=0;right=0;bottom=0;align=left;verticalAlign=top;fillColor=none;spacingLeft=34;spacingRight=4;overflow=hidden;rotatable=0;points=[[0,0.5],[1,0.5]];portConstraint=eastwest;dropTarget=0;rounded=0;fontStyle=0" parent="7PbGszhR01sK47aoAYNo-1" vertex="1">
          <mxGeometry y="238" width="160" height="26" as="geometry" />
        </mxCell>
        <mxCell id="7PbGszhR01sK47aoAYNo-21" value="" style="shape=partialRectangle;top=0;left=0;bottom=0;fillColor=none;align=left;verticalAlign=top;spacingLeft=4;spacingRight=4;overflow=hidden;rotatable=0;points=[];portConstraint=eastwest;part=1;rounded=0;" parent="7PbGszhR01sK47aoAYNo-20" vertex="1" connectable="0">
          <mxGeometry width="30" height="26" as="geometry" />
        </mxCell>
        <mxCell id="7PbGszhR01sK47aoAYNo-22" value="specifications" style="shape=partialRectangle;top=0;left=0;right=0;bottom=0;align=left;verticalAlign=top;fillColor=none;spacingLeft=34;spacingRight=4;overflow=hidden;rotatable=0;points=[[0,0.5],[1,0.5]];portConstraint=eastwest;dropTarget=0;rounded=0;fontStyle=0" parent="7PbGszhR01sK47aoAYNo-1" vertex="1">
          <mxGeometry y="264" width="160" height="26" as="geometry" />
        </mxCell>
        <mxCell id="7PbGszhR01sK47aoAYNo-23" value="" style="shape=partialRectangle;top=0;left=0;bottom=0;fillColor=none;align=left;verticalAlign=top;spacingLeft=4;spacingRight=4;overflow=hidden;rotatable=0;points=[];portConstraint=eastwest;part=1;rounded=0;" parent="7PbGszhR01sK47aoAYNo-22" vertex="1" connectable="0">
          <mxGeometry width="30" height="26" as="geometry" />
        </mxCell>
        <mxCell id="7PbGszhR01sK47aoAYNo-24" value="reorder_point" style="shape=partialRectangle;top=0;left=0;right=0;bottom=0;align=left;verticalAlign=top;fillColor=none;spacingLeft=34;spacingRight=4;overflow=hidden;rotatable=0;points=[[0,0.5],[1,0.5]];portConstraint=eastwest;dropTarget=0;rounded=0;fontStyle=0" parent="7PbGszhR01sK47aoAYNo-1" vertex="1">
          <mxGeometry y="290" width="160" height="26" as="geometry" />
        </mxCell>
        <mxCell id="7PbGszhR01sK47aoAYNo-25" value="" style="shape=partialRectangle;top=0;left=0;bottom=0;fillColor=none;align=left;verticalAlign=top;spacingLeft=4;spacingRight=4;overflow=hidden;rotatable=0;points=[];portConstraint=eastwest;part=1;rounded=0;" parent="7PbGszhR01sK47aoAYNo-24" vertex="1" connectable="0">
          <mxGeometry width="30" height="26" as="geometry" />
        </mxCell>
        <mxCell id="7PbGszhR01sK47aoAYNo-28" value="supplier_id " style="shape=partialRectangle;top=0;left=0;right=0;bottom=0;align=left;verticalAlign=top;fillColor=none;spacingLeft=34;spacingRight=4;overflow=hidden;rotatable=0;points=[[0,0.5],[1,0.5]];portConstraint=eastwest;dropTarget=0;rounded=0;fontStyle=0" parent="7PbGszhR01sK47aoAYNo-1" vertex="1">
          <mxGeometry y="316" width="160" height="26" as="geometry" />
        </mxCell>
        <mxCell id="7PbGszhR01sK47aoAYNo-29" value="" style="shape=partialRectangle;top=0;left=0;bottom=0;fillColor=none;align=left;verticalAlign=top;spacingLeft=4;spacingRight=4;overflow=hidden;rotatable=0;points=[];portConstraint=eastwest;part=1;rounded=0;" parent="7PbGszhR01sK47aoAYNo-28" vertex="1" connectable="0">
          <mxGeometry width="30" height="26" as="geometry" />
        </mxCell>
        <mxCell id="7PbGszhR01sK47aoAYNo-12" value="" style="shape=partialRectangle;top=0;left=0;right=0;bottom=0;align=left;verticalAlign=top;fillColor=none;spacingLeft=34;spacingRight=4;overflow=hidden;rotatable=0;points=[[0,0.5],[1,0.5]];portConstraint=eastwest;dropTarget=0;rounded=0;" parent="7PbGszhR01sK47aoAYNo-1" vertex="1">
          <mxGeometry y="342" width="160" height="10" as="geometry" />
        </mxCell>
        <mxCell id="7PbGszhR01sK47aoAYNo-13" value="" style="shape=partialRectangle;top=0;left=0;bottom=0;fillColor=none;align=left;verticalAlign=top;spacingLeft=4;spacingRight=4;overflow=hidden;rotatable=0;points=[];portConstraint=eastwest;part=1;rounded=0;" parent="7PbGszhR01sK47aoAYNo-12" vertex="1" connectable="0">
          <mxGeometry width="30" height="10" as="geometry" />
        </mxCell>
      </root>
    </mxGraphModel>
  </diagram>
</mxfile>
